SplineFontDB: 3.2
FontName: YoungSerif-MediumItalic
FullName: Young Serif Medium Italic
FamilyName: Young Serif Medium Italic
Weight: Medium
Copyright: Copyright 2023 The Young Serif Project Authors \\(https://github.com/noirblancrouge/YoungSerif\\)
Version: 005.002
ItalicAngle: -11
UnderlinePosition: -125
UnderlineWidth: 50
Ascent: 800
Descent: 200
InvalidEm: 0
sfntRevision: 0x00050083
LayerCount: 2
Layer: 0 0 "Back" 1
Layer: 1 0 "Fore" 0
XUID: [1021 735 254010608 30799]
StyleMap: 0x0040
FSType: 0
OS2Version: 4
OS2_WeightWidthSlopeOnly: 0
OS2_UseTypoMetrics: 1
CreationTime: 1750244485
ModificationTime: 1752514998
PfmFamily: 17
TTFWeight: 500
TTFWidth: 5
LineGap: 0
VLineGap: 0
Panose: 2 2 7 4 4 4 6 0 2 3
OS2TypoAscent: 930
OS2TypoAOffset: 0
OS2TypoDescent: -275
OS2TypoDOffset: 0
OS2TypoLinegap: 0
OS2WinAscent: 1150
OS2WinAOffset: 0
OS2WinDescent: 275
OS2WinDOffset: 0
HheadAscent: 930
HheadAOffset: 0
HheadDescent: -275
HheadDOffset: 0
OS2SubXSize: 650
OS2SubYSize: 600
OS2SubXOff: 0
OS2SubYOff: 75
OS2SupXSize: 650
OS2SupYSize: 600
OS2SupXOff: 0
OS2SupYOff: 350
OS2StrikeYSize: 44
OS2StrikeYPos: 300
OS2CapHeight: 660
OS2XHeight: 440
OS2Vendor: 'NBR '
OS2CodePages: 00000001.00000000
OS2UnicodeRanges: 00000003.00000000.00000000.00000000
Lookup: 3 0 0 "'aalt' Access All Alternates in Latin lookup 0" { "'aalt' Access All Alternates in Latin lookup 0 subtable"  } ['aalt' ('DFLT' <'dflt' > 'latn' <'AZE ' 'CAT ' 'CRT ' 'KAZ ' 'MAH ' 'MOL ' 'NLD ' 'ROM ' 'TAT ' 'TRK ' 'dflt' > ) ]
Lookup: 1 0 0 "'smcp' Lowercase to Small Capitals in Latin lookup 1" { "'smcp' Lowercase to Small Capitals in Latin lookup 1 subtable"  } ['smcp' ('DFLT' <'dflt' > 'latn' <'AZE ' 'CAT ' 'CRT ' 'KAZ ' 'MAH ' 'MOL ' 'NLD ' 'ROM ' 'TAT ' 'TRK ' 'dflt' > ) ]
Lookup: 1 0 0 "'sinf' Scientific Inferiors in Latin lookup 2" { "'sinf' Scientific Inferiors in Latin lookup 2 subtable"  } ['sinf' ('DFLT' <'dflt' > 'latn' <'AZE ' 'CAT ' 'CRT ' 'KAZ ' 'MAH ' 'MOL ' 'NLD ' 'ROM ' 'TAT ' 'TRK ' 'dflt' > ) ]

StartChar: .notdef
Encoding: 1114112 -1 0
Width: 440
GlyphClass: 1
Flags: MW
HStem: 0 30.69 0 125 267 82 491 125 585.31 30.69
VStem: 0 35.13 0 70 190 60 370 70 404.88 35.12
LayerCount: 2
Fore
SplineSet
0 603 m 2x8c40
 0 610 6 616 13 616 c 2
 427 616 l 2
 434 616 440 610 440 603 c 2
 440 13 l 2
 440 6 434 0 427 0 c 2
 13 0 l 2
 6 0 0 6 0 13 c 2
 0 603 l 2x8c40
366.719726562 556.41015625 m 2xaa80
 375.609375 569.75 367.840820312 585.299804688 351.170898438 585.299804688 c 2
 88.8408203125 585.299804688 l 2
 72.1708984375 585.299804688 64.4013671875 569.75 73.291015625 556.41015625 c 2
 205.560546875 357.450195312 l 2
 212.23046875 346.330078125 227.780273438 346.330078125 234.450195312 357.450195312 c 2
 366.719726562 556.41015625 l 2xaa80
362.860351562 135.740234375 m 2x5540
 375.450195312 115.790039062 404.870117188 126.291015625 404.870117188 149.390625 c 2
 404.870117188 466.610351562 l 2
 404.870117188 489.709960938 375.450195312 500.209960938 362.860351562 480.259765625 c 2
 252.560546875 315.33984375 l 2
 249.41015625 312.200195312 249.41015625 303.799804688 252.560546875 300.66015625 c 2
 362.860351562 135.740234375 l 2x5540
351.169921875 30.7109375 m 2xaa80
 367.83984375 30.7109375 375.608398438 46.2705078125 366.71875 59.6005859375 c 2
 234.44921875 258.560546875 l 2
 227.779296875 269.680664062 212.229492188 269.680664062 205.559570312 258.560546875 c 2
 73.2900390625 59.6005859375 l 2
 64.400390625 46.2705078125 72.169921875 30.7109375 88.83984375 30.7109375 c 2
 351.169921875 30.7109375 l 2xaa80
35.138671875 149.401367188 m 2x5540
 35.138671875 126.301757812 64.548828125 115.801757812 77.138671875 135.751953125 c 2
 187.438476562 300.671875 l 2
 190.588867188 303.811523438 190.588867188 312.211914062 187.438476562 315.3515625 c 2
 77.138671875 480.271484375 l 2
 64.548828125 500.221679688 35.138671875 490.771484375 35.138671875 467.661132812 c 2
 35.138671875 149.401367188 l 2x5540
EndSplineSet
EndChar

StartChar: A
Encoding: 65 65 4
Width: 667
GlyphClass: 2
Flags: MW
HStem: 640 20G<375.291 456.291 456.291 459.791>
AnchorPoint: "Anchor-6" 606 0 basechar 0
AnchorPoint: "Anchor-5" 414 660 basechar 0
AnchorPoint: "Anchor-4" 263 0 basechar 0
LayerCount: 2
Fore
SplineSet
571.98046875 110.5 m 2
 579.190429688 73 582.359375 43 614.359375 43 c 0
 626.359375 43 626.389648438 38 624.830078125 30 c 2
 621.530273438 13 l 2
 619.780273438 4 615 0 606 0 c 2
 371 0 l 2
 363 0 358.780273438 4 360.530273438 13 c 2
 363.830078125 30 l 2
 365.389648438 38 367.359375 43 379.359375 43 c 0
 433.359375 43 461.58984375 72.5 454.129882812 119 c 2
 437.780273438 221 l 1
 177.16015625 221 l 1
 117.850585938 115 l 2
 94.1904296875 73 118.860351562 43 169.360351562 43 c 0
 181.360351562 43 181.390625 38 179.831054688 30 c 2
 176.53125 13 l 2
 174.78125 4 169.000976562 0 161.000976562 0 c 2
 -23.9990234375 0 l 2
 -31.9990234375 0 -36.21875 4 -34.46875 13 c 2
 -31.1689453125 30 l 2
 -29.609375 38 -27.6396484375 43 -15.6396484375 43 c 0
 15.3603515625 43 33.6904296875 73 56.060546875 113.5 c 2
 358.150390625 649 l 2
 361.510742188 656 367.291015625 660 375.291015625 660 c 2
 456.291015625 660 l 2
 463.291015625 660 467.510742188 656 469.150390625 649 c 2
 571.98046875 110.5 l 2
208.209960938 278 m 1
 427.879882812 278 l 1
 375.059570312 577.379882812 l 1
 208.209960938 278 l 1
EndSplineSet
Substitution2: "Single Substitution lookup 36 subtable" ordfeminine
Substitution2: "'ss04' Style Set 4 in Latin lookup 33 subtable" u1F150
Substitution2: "'ss03' Style Set 3 in Latin lookup 31 subtable" uni24B6
Substitution2: "'c2sc' Capitals to Small Capitals in Latin lookup 11 subtable" A.sc
AlternateSubs2: "'aalt' Access All Alternates in Latin lookup 0 subtable" ordfeminine A.sc uni24B6 u1F150
Position2: "'cpsp' Capital Spacing in Latin lookup 0 subtable" dx=5 dy=0 dh=10 dv=0
EndChar

StartChar: Aacute
Encoding: 193 193 5
Width: 667
GlyphClass: 2
Flags: MW
HStem: 640 20G<375.291 456.291 456.291 459.791> 865 20G
VStem: 366 190
AnchorPoint: "Anchor-6" 606 0 basechar 0
AnchorPoint: "Anchor-5" 493 899 basechar 0
AnchorPoint: "Anchor-4" 263 0 basechar 0
LayerCount: 2
Fore
SplineSet
571.98046875 110.5 m 2
 579.190429688 73 582.359375 43 614.359375 43 c 0
 626.359375 43 626.389648438 38 624.830078125 30 c 2
 621.530273438 13 l 2
 619.780273438 4 615 0 606 0 c 2
 371 0 l 2
 363 0 358.780273438 4 360.530273438 13 c 2
 363.830078125 30 l 2
 365.389648438 38 367.359375 43 379.359375 43 c 0
 433.359375 43 461.58984375 72.5 454.129882812 119 c 2
 437.780273438 221 l 1
 177.16015625 221 l 1
 117.850585938 115 l 2
 94.1904296875 73 118.860351562 43 169.360351562 43 c 0
 181.360351562 43 181.390625 38 179.831054688 30 c 2
 176.53125 13 l 2
 174.78125 4 169.000976562 0 161.000976562 0 c 2
 -23.9990234375 0 l 2
 -31.9990234375 0 -36.21875 4 -34.46875 13 c 2
 -31.1689453125 30 l 2
 -29.609375 38 -27.6396484375 43 -15.6396484375 43 c 0
 15.3603515625 43 33.6904296875 73 56.060546875 113.5 c 2
 358.150390625 649 l 2
 361.510742188 656 367.291015625 660 375.291015625 660 c 2
 456.291015625 660 l 2
 463.291015625 660 467.510742188 656 469.150390625 649 c 2
 571.98046875 110.5 l 2
365.709960938 729.099609375 m 1
 431.759765625 795.69921875 449.73046875 820.390625 482.350585938 872.890625 c 0
 489.05078125 883.23046875 501.62109375 885.23046875 513.000976562 885.23046875 c 0
 543.361328125 885.23046875 559.741210938 871.020507812 554.4609375 843.880859375 c 0
 543.23046875 786.100585938 465.100585938 745.560546875 408.750976562 718.240234375 c 0
 404.331054688 716.240234375 399.840820312 714.330078125 396.140625 714.459960938 c 0
 393.120117188 714.629882812 389.5 716.229492188 385.23046875 718.569335938 c 2
 365.709960938 729.099609375 l 1
208.2109375 277.991210938 m 1
 427.880859375 277.991210938 l 1
 375.060546875 577.37109375 l 1
 208.2109375 277.991210938 l 1
EndSplineSet
Substitution2: "'c2sc' Capitals to Small Capitals in Latin lookup 11 subtable" Aacute.sc
AlternateSubs2: "'aalt' Access All Alternates in Latin lookup 0 subtable" Aacute.sc
Position2: "'cpsp' Capital Spacing in Latin lookup 0 subtable" dx=5 dy=0 dh=10 dv=0
EndChar

StartChar: Abreve
Encoding: 258 258 6
Width: 667
GlyphClass: 2
Flags: MW
HStem: 640 20G<375.291 456.291 456.291 459.791>
VStem: 311 269
AnchorPoint: "Anchor-6" 606 0 basechar 0
AnchorPoint: "Anchor-5" 446 825 basechar 0
AnchorPoint: "Anchor-4" 263 0 basechar 0
LayerCount: 2
Fore
SplineSet
571.98046875 110.5 m 2
 579.190429688 73 582.359375 43 614.359375 43 c 0
 626.359375 43 626.389648438 38 624.830078125 30 c 2
 621.530273438 13 l 2
 619.780273438 4 615 0 606 0 c 2
 371 0 l 2
 363 0 358.780273438 4 360.530273438 13 c 2
 363.830078125 30 l 2
 365.389648438 38 367.359375 43 379.359375 43 c 0
 433.359375 43 461.58984375 72.5 454.129882812 119 c 2
 437.780273438 221 l 1
 177.16015625 221 l 1
 117.850585938 115 l 2
 94.1904296875 73 118.860351562 43 169.360351562 43 c 0
 181.360351562 43 181.390625 38 179.831054688 30 c 2
 176.53125 13 l 2
 174.78125 4 169.000976562 0 161.000976562 0 c 2
 -23.9990234375 0 l 2
 -31.9990234375 0 -36.21875 4 -34.46875 13 c 2
 -31.1689453125 30 l 2
 -29.609375 38 -27.6396484375 43 -15.6396484375 43 c 0
 15.3603515625 43 33.6904296875 73 56.060546875 113.5 c 2
 358.150390625 649 l 2
 361.510742188 656 367.291015625 660 375.291015625 660 c 2
 456.291015625 660 l 2
 463.291015625 660 467.510742188 656 469.150390625 649 c 2
 571.98046875 110.5 l 2
424.209960938 711 m 0
 333.709960938 711 304.08203125 782.849609375 311.641601562 821.75 c 0
 313.58203125 831.75 320.162109375 835.650390625 329.551757812 836.75 c 0
 340.811523438 837.990234375 360.401367188 840.200195312 368.901367188 840.549804688 c 0
 379.581054688 841.209960938 382.760742188 837.629882812 381.780273438 825.979492188 c 0
 379.379882812 789.239257812 396.229492188 767.239257812 435.139648438 767.239257812 c 0
 474.540039062 767.239257812 499.940429688 789.239257812 511.830078125 825.979492188 c 0
 514.879882812 837.629882812 519.950195312 841.209960938 530.370117188 840.549804688 c 0
 538.240234375 840.200195312 557.459960938 837.990234375 567.740234375 836.75 c 0
 576.709960938 835.650390625 581.76953125 831.75 579.829101562 821.75 c 0
 572.26953125 782.849609375 515.209960938 711 424.209960938 711 c 0
208.211914062 278 m 1
 427.881835938 278 l 1
 375.061523438 577.379882812 l 1
 208.211914062 278 l 1
EndSplineSet
Substitution2: "'c2sc' Capitals to Small Capitals in Latin lookup 11 subtable" Abreve.sc
AlternateSubs2: "'aalt' Access All Alternates in Latin lookup 0 subtable" Abreve.sc
Position2: "'cpsp' Capital Spacing in Latin lookup 0 subtable" dx=5 dy=0 dh=10 dv=0
EndChar

StartChar: uni1EAE
Encoding: 7854 7854 7
Width: 667
GlyphClass: 2
Flags: MW
HStem: 640 20G<375.291 456.291 456.291 459.791> 1031 20G
VStem: 311 269 398 190
AnchorPoint: "Anchor-6" 606 0 basechar 0
AnchorPoint: "Anchor-5" 525 1064 basechar 0
AnchorPoint: "Anchor-4" 263 0 basechar 0
LayerCount: 2
Fore
SplineSet
571.98046875 110.5 m 2xd0
 579.190429688 73 582.359375 43 614.359375 43 c 0
 626.359375 43 626.389648438 38 624.830078125 30 c 2
 621.530273438 13 l 2
 619.780273438 4 615 0 606 0 c 2
 371 0 l 2
 363 0 358.780273438 4 360.530273438 13 c 2
 363.830078125 30 l 2
 365.389648438 38 367.359375 43 379.359375 43 c 0
 433.359375 43 461.58984375 72.5 454.129882812 119 c 2
 437.780273438 221 l 1
 177.16015625 221 l 1
 117.850585938 115 l 2
 94.1904296875 73 118.860351562 43 169.360351562 43 c 0
 181.360351562 43 181.390625 38 179.831054688 30 c 2
 176.53125 13 l 2
 174.78125 4 169.000976562 0 161.000976562 0 c 2
 -23.9990234375 0 l 2
 -31.9990234375 0 -36.21875 4 -34.46875 13 c 2
 -31.1689453125 30 l 2
 -29.609375 38 -27.6396484375 43 -15.6396484375 43 c 0
 15.3603515625 43 33.6904296875 73 56.060546875 113.5 c 2
 358.150390625 649 l 2
 361.510742188 656 367.291015625 660 375.291015625 660 c 2
 456.291015625 660 l 2
 463.291015625 660 467.510742188 656 469.150390625 649 c 2
 571.98046875 110.5 l 2xd0
424.209960938 711 m 0
 333.709960938 711 304.08203125 782.849609375 311.641601562 821.75 c 0
 313.58203125 831.75 320.162109375 835.650390625 329.551757812 836.75 c 0
 340.811523438 837.990234375 360.401367188 840.200195312 368.901367188 840.549804688 c 0
 379.581054688 841.209960938 382.760742188 837.629882812 381.780273438 825.979492188 c 0
 379.379882812 789.239257812 396.229492188 767.239257812 435.139648438 767.239257812 c 0
 474.540039062 767.239257812 499.940429688 789.239257812 511.830078125 825.979492188 c 0
 514.879882812 837.629882812 519.950195312 841.209960938 530.370117188 840.549804688 c 0
 538.240234375 840.200195312 557.459960938 837.990234375 567.740234375 836.75 c 0
 576.709960938 835.650390625 581.76953125 831.75 579.829101562 821.75 c 0xe0
 572.26953125 782.849609375 515.209960938 711 424.209960938 711 c 0
397.881835938 894.580078125 m 1xd0
 463.931640625 961.190429688 481.903320312 985.880859375 514.513671875 1038.38085938 c 0
 521.223632812 1048.72070312 533.793945312 1050.72070312 545.173828125 1050.72070312 c 0
 575.5234375 1050.72070312 591.913085938 1036.51074219 586.6328125 1009.37109375 c 0
 575.40234375 951.581054688 497.272460938 911.041015625 440.922851562 883.720703125 c 0
 436.502929688 881.720703125 432.002929688 879.810546875 428.3125 879.950195312 c 0
 425.282226562 880.120117188 421.671875 881.709960938 417.401367188 884.049804688 c 2
 397.881835938 894.580078125 l 1xd0
208.213867188 277.990234375 m 1
 427.883789062 277.990234375 l 1
 375.063476562 577.370117188 l 1
 208.213867188 277.990234375 l 1
EndSplineSet
Substitution2: "'c2sc' Capitals to Small Capitals in Latin lookup 11 subtable" uni1EAE.sc
AlternateSubs2: "'aalt' Access All Alternates in Latin lookup 0 subtable" uni1EAE.sc
Position2: "'cpsp' Capital Spacing in Latin lookup 0 subtable" dx=5 dy=0 dh=10 dv=0
EndChar

StartChar: uni1EB6
Encoding: 7862 7862 8
Width: 667
GlyphClass: 2
Flags: MW
HStem: -189 135 640 20G<375.291 456.291 456.291 459.791>
VStem: 176 136 311 269
AnchorPoint: "Anchor-6" 606 0 basechar 0
AnchorPoint: "Anchor-5" 446 825 basechar 0
AnchorPoint: "Anchor-4" 263 0 basechar 0
LayerCount: 2
Fore
SplineSet
571.98046875 110.5 m 2xd0
 579.190429688 73 582.359375 43 614.359375 43 c 0
 626.359375 43 626.389648438 38 624.830078125 30 c 2
 621.530273438 13 l 2
 619.780273438 4 615 0 606 0 c 2
 371 0 l 2
 363 0 358.780273438 4 360.530273438 13 c 2
 363.830078125 30 l 2
 365.389648438 38 367.359375 43 379.359375 43 c 0
 433.359375 43 461.58984375 72.5 454.129882812 119 c 2
 437.780273438 221 l 1
 177.16015625 221 l 1
 117.850585938 115 l 2
 94.1904296875 73 118.860351562 43 169.360351562 43 c 0
 181.360351562 43 181.390625 38 179.831054688 30 c 2
 176.53125 13 l 2
 174.78125 4 169.000976562 0 161.000976562 0 c 2
 -23.9990234375 0 l 2
 -31.9990234375 0 -36.21875 4 -34.46875 13 c 2
 -31.1689453125 30 l 2
 -29.609375 38 -27.6396484375 43 -15.6396484375 43 c 0
 15.3603515625 43 33.6904296875 73 56.060546875 113.5 c 2
 358.150390625 649 l 2
 361.510742188 656 367.291015625 660 375.291015625 660 c 2
 456.291015625 660 l 2
 463.291015625 660 467.510742188 656 469.150390625 649 c 2
 571.98046875 110.5 l 2xd0
256.219726562 -53.990234375 m 0
 272.599609375 -57.1806640625 284.70703125 -65.900390625 297.907226562 -85.470703125 c 0
 311.09765625 -105.030273438 314.857421875 -118.510742188 311.666992188 -134.890625 c 0xd0
 308.487304688 -151.270507812 298.737304688 -163.180664062 280.387695312 -175.55078125 c 0
 260.828125 -188.750976562 246.328125 -192.310546875 229.948242188 -189.120117188 c 0
 214.587890625 -186.139648438 203.498046875 -177.609375 189.278320312 -157.83984375 c 0
 175.888671875 -139.309570312 172.329101562 -124.799804688 175.51953125 -108.419921875 c 0xe0
 178.69921875 -92.0400390625 187.229492188 -80.9501953125 206.799804688 -67.759765625 c 0
 226.359375 -54.5595703125 240.859375 -51.009765625 256.219726562 -53.990234375 c 0
424.216796875 711.009765625 m 0
 333.716796875 711.009765625 304.088867188 782.859375 311.6484375 821.759765625 c 0
 313.588867188 831.759765625 320.168945312 835.66015625 329.55859375 836.759765625 c 0
 340.818359375 838 360.408203125 840.209960938 368.908203125 840.559570312 c 0
 379.587890625 841.219726562 382.767578125 837.639648438 381.787109375 825.989257812 c 0
 379.38671875 789.249023438 396.236328125 767.249023438 435.146484375 767.249023438 c 0
 474.546875 767.249023438 499.947265625 789.249023438 511.836914062 825.989257812 c 0
 514.88671875 837.639648438 519.95703125 841.219726562 530.376953125 840.559570312 c 0
 538.247070312 840.209960938 557.466796875 838 567.747070312 836.759765625 c 0
 576.716796875 835.66015625 581.77734375 831.759765625 579.836914062 821.759765625 c 0
 572.27734375 782.859375 515.216796875 711.009765625 424.216796875 711.009765625 c 0
208.21875 278.009765625 m 1
 427.888671875 278.009765625 l 1
 375.068359375 577.389648438 l 1
 208.21875 278.009765625 l 1
EndSplineSet
Substitution2: "'c2sc' Capitals to Small Capitals in Latin lookup 11 subtable" uni1EB6.sc
AlternateSubs2: "'aalt' Access All Alternates in Latin lookup 0 subtable" uni1EB6.sc
Position2: "'cpsp' Capital Spacing in Latin lookup 0 subtable" dx=5 dy=0 dh=10 dv=0
EndChar

StartChar: uni1EB0
Encoding: 7856 7856 9
Width: 667
GlyphClass: 2
Flags: MW
HStem: 640 20G<375.291 456.291 456.291 459.791> 1031 20G
VStem: 311 269 325 190
AnchorPoint: "Anchor-6" 606 0 basechar 0
AnchorPoint: "Anchor-5" 468 1064 basechar 0
AnchorPoint: "Anchor-4" 263 0 basechar 0
LayerCount: 2
Fore
SplineSet
571.98046875 110.5 m 2xd0
 579.190429688 73 582.359375 43 614.359375 43 c 0
 626.359375 43 626.389648438 38 624.830078125 30 c 2
 621.530273438 13 l 2
 619.780273438 4 615 0 606 0 c 2
 371 0 l 2
 363 0 358.780273438 4 360.530273438 13 c 2
 363.830078125 30 l 2
 365.389648438 38 367.359375 43 379.359375 43 c 0
 433.359375 43 461.58984375 72.5 454.129882812 119 c 2
 437.780273438 221 l 1
 177.16015625 221 l 1
 117.850585938 115 l 2
 94.1904296875 73 118.860351562 43 169.360351562 43 c 0
 181.360351562 43 181.390625 38 179.831054688 30 c 2
 176.53125 13 l 2
 174.78125 4 169.000976562 0 161.000976562 0 c 2
 -23.9990234375 0 l 2
 -31.9990234375 0 -36.21875 4 -34.46875 13 c 2
 -31.1689453125 30 l 2
 -29.609375 38 -27.6396484375 43 -15.6396484375 43 c 0
 15.3603515625 43 33.6904296875 73 56.060546875 113.5 c 2
 358.150390625 649 l 2
 361.510742188 656 367.291015625 660 375.291015625 660 c 2
 456.291015625 660 l 2
 463.291015625 660 467.510742188 656 469.150390625 649 c 2
 571.98046875 110.5 l 2xd0
424.209960938 711 m 0
 333.709960938 711 304.08203125 782.849609375 311.641601562 821.75 c 0
 313.58203125 831.75 320.162109375 835.650390625 329.551757812 836.75 c 0
 340.811523438 837.990234375 360.401367188 840.200195312 368.901367188 840.549804688 c 0
 379.581054688 841.209960938 382.760742188 837.629882812 381.780273438 825.979492188 c 0
 379.379882812 789.239257812 396.229492188 767.239257812 435.139648438 767.239257812 c 0
 474.540039062 767.239257812 499.940429688 789.239257812 511.830078125 825.979492188 c 0
 514.879882812 837.629882812 519.950195312 841.209960938 530.370117188 840.549804688 c 0
 538.240234375 840.200195312 557.459960938 837.990234375 567.740234375 836.75 c 0
 576.709960938 835.650390625 581.76953125 831.75 579.829101562 821.75 c 0xe0
 572.26953125 782.849609375 515.209960938 711 424.209960938 711 c 0
495.391601562 884.049804688 m 2
 491.12109375 881.709960938 487.501953125 880.129882812 484.482421875 879.959960938 c 0
 480.782226562 879.8203125 476.291992188 881.73046875 471.872070312 883.73046875 c 0
 415.522460938 911.05078125 337.392578125 951.590820312 326.162109375 1009.38085938 c 0
 320.881835938 1036.52050781 337.26171875 1050.73046875 367.622070312 1050.73046875 c 0
 379.001953125 1050.73046875 391.561523438 1048.73046875 398.271484375 1038.390625 c 0
 430.891601562 985.890625 448.861328125 961.190429688 514.911132812 894.580078125 c 1xd0
 495.391601562 884.049804688 l 2
208.212890625 278.009765625 m 1
 427.8828125 278.009765625 l 1
 375.0625 577.389648438 l 1
 208.212890625 278.009765625 l 1
EndSplineSet
Substitution2: "'c2sc' Capitals to Small Capitals in Latin lookup 11 subtable" uni1EB0.sc
AlternateSubs2: "'aalt' Access All Alternates in Latin lookup 0 subtable" uni1EB0.sc
Position2: "'cpsp' Capital Spacing in Latin lookup 0 subtable" dx=5 dy=0 dh=10 dv=0
EndChar

StartChar: uni1EB2
Encoding: 7858 7858 10
Width: 667
GlyphClass: 2
Flags: MW
HStem: 640 20G<375.291 456.291 456.291 459.791> 990 68
VStem: 311 269 410 136 482 63
AnchorPoint: "Anchor-6" 606 0 basechar 0
AnchorPoint: "Anchor-5" 502 1111 basechar 0
AnchorPoint: "Anchor-4" 263 0 basechar 0
LayerCount: 2
Fore
SplineSet
571.98046875 110.5 m 2xe0
 579.190429688 73 582.359375 43 614.359375 43 c 0
 626.359375 43 626.389648438 38 624.830078125 30 c 2
 621.530273438 13 l 2
 619.780273438 4 615 0 606 0 c 2
 371 0 l 2
 363 0 358.780273438 4 360.530273438 13 c 2
 363.830078125 30 l 2
 365.389648438 38 367.359375 43 379.359375 43 c 0
 433.359375 43 461.58984375 72.5 454.129882812 119 c 2
 437.780273438 221 l 1
 177.16015625 221 l 1
 117.850585938 115 l 2
 94.1904296875 73 118.860351562 43 169.360351562 43 c 0
 181.360351562 43 181.390625 38 179.831054688 30 c 2
 176.53125 13 l 2
 174.78125 4 169.000976562 0 161.000976562 0 c 2
 -23.9990234375 0 l 2
 -31.9990234375 0 -36.21875 4 -34.46875 13 c 2
 -31.1689453125 30 l 2
 -29.609375 38 -27.6396484375 43 -15.6396484375 43 c 0
 15.3603515625 43 33.6904296875 73 56.060546875 113.5 c 2
 358.150390625 649 l 2
 361.510742188 656 367.291015625 660 375.291015625 660 c 2
 456.291015625 660 l 2
 463.291015625 660 467.510742188 656 469.150390625 649 c 2
 571.98046875 110.5 l 2xe0
424.209960938 711 m 0
 333.709960938 711 304.08203125 782.849609375 311.641601562 821.75 c 0
 313.58203125 831.75 320.162109375 835.650390625 329.551757812 836.75 c 0
 340.811523438 837.990234375 360.401367188 840.200195312 368.901367188 840.549804688 c 0
 379.581054688 841.209960938 382.760742188 837.629882812 381.780273438 825.979492188 c 0
 379.379882812 789.239257812 396.229492188 767.239257812 435.139648438 767.239257812 c 0
 474.540039062 767.239257812 499.940429688 789.239257812 511.830078125 825.979492188 c 0
 514.879882812 837.629882812 519.950195312 841.209960938 530.370117188 840.549804688 c 0
 538.240234375 840.200195312 557.459960938 837.990234375 567.740234375 836.75 c 0
 576.709960938 835.650390625 581.76953125 831.75 579.829101562 821.75 c 0
 572.26953125 782.849609375 515.209960938 711 424.209960938 711 c 0
489.301757812 883.419921875 m 0
 477.021484375 870.610351562 440.3125 894.360351562 450.122070312 905.360351562 c 0
 463.83203125 921.190429688 477.9921875 935.360351562 482.251953125 957.270507812 c 0xc8
 487.291992188 983.220703125 474.291992188 989.7109375 460.551757812 989.7109375 c 0
 439.921875 989.7109375 421.221679688 969.600585938 417.08203125 979.55078125 c 0
 411.162109375 993.991210938 405.341796875 1008.2109375 409.662109375 1025.140625 c 0xd0
 412.40234375 1036.85058594 453.162109375 1057.99023438 485.65234375 1057.99023438 c 0
 542.501953125 1057.99023438 552.501953125 1013.47070312 545.501953125 977.490234375 c 0xc8
 539.631835938 947.259765625 519.282226562 914.139648438 489.301757812 883.419921875 c 0
208.203125 277.990234375 m 1
 427.873046875 277.990234375 l 1
 375.052734375 577.370117188 l 1
 208.203125 277.990234375 l 1
EndSplineSet
Substitution2: "'c2sc' Capitals to Small Capitals in Latin lookup 11 subtable" uni1EB2.sc
AlternateSubs2: "'aalt' Access All Alternates in Latin lookup 0 subtable" uni1EB2.sc
Position2: "'cpsp' Capital Spacing in Latin lookup 0 subtable" dx=5 dy=0 dh=10 dv=0
EndChar

StartChar: uni1EB4
Encoding: 7860 7860 11
Width: 667
GlyphClass: 2
Flags: MW
HStem: 640 20G<375.291 456.291 456.291 459.791> 886 59 970 58
VStem: 311 269 323 298 324 67 554 66
AnchorPoint: "Anchor-6" 606 0 basechar 0
AnchorPoint: "Anchor-5" 482 1010 basechar 0
AnchorPoint: "Anchor-4" 263 0 basechar 0
LayerCount: 2
Fore
SplineSet
571.98046875 110.5 m 2xf0
 579.190429688 73 582.359375 43 614.359375 43 c 0
 626.359375 43 626.389648438 38 624.830078125 30 c 2
 621.530273438 13 l 2xe8
 619.780273438 4 615 0 606 0 c 2
 371 0 l 2
 363 0 358.780273438 4 360.530273438 13 c 2
 363.830078125 30 l 2
 365.389648438 38 367.359375 43 379.359375 43 c 0
 433.359375 43 461.58984375 72.5 454.129882812 119 c 2
 437.780273438 221 l 1
 177.16015625 221 l 1
 117.850585938 115 l 2
 94.1904296875 73 118.860351562 43 169.360351562 43 c 0
 181.360351562 43 181.390625 38 179.831054688 30 c 2
 176.53125 13 l 2
 174.78125 4 169.000976562 0 161.000976562 0 c 2
 -23.9990234375 0 l 2
 -31.9990234375 0 -36.21875 4 -34.46875 13 c 2
 -31.1689453125 30 l 2
 -29.609375 38 -27.6396484375 43 -15.6396484375 43 c 0
 15.3603515625 43 33.6904296875 73 56.060546875 113.5 c 2
 358.150390625 649 l 2
 361.510742188 656 367.291015625 660 375.291015625 660 c 2
 456.291015625 660 l 2
 463.291015625 660 467.510742188 656 469.150390625 649 c 2
 571.98046875 110.5 l 2xf0
424.209960938 711 m 0
 333.709960938 711 304.08203125 782.849609375 311.641601562 821.75 c 0
 313.58203125 831.75 320.162109375 835.650390625 329.551757812 836.75 c 0
 340.811523438 837.990234375 360.401367188 840.200195312 368.901367188 840.549804688 c 0
 379.581054688 841.209960938 382.760742188 837.629882812 381.780273438 825.979492188 c 0
 379.379882812 789.239257812 396.229492188 767.239257812 435.139648438 767.239257812 c 0
 474.540039062 767.239257812 499.940429688 789.239257812 511.830078125 825.979492188 c 0
 514.879882812 837.629882812 519.950195312 841.209960938 530.370117188 840.549804688 c 0
 538.240234375 840.200195312 557.459960938 837.990234375 567.740234375 836.75 c 0
 576.709960938 835.650390625 581.76953125 831.75 579.829101562 821.75 c 0xf0
 572.26953125 782.849609375 515.209960938 711 424.209960938 711 c 0
496.912109375 973 m 0
 506.142578125 952.58984375 514.995117188 944.981445312 527.6953125 944.981445312 c 0
 543.6953125 944.981445312 554.6953125 957.841796875 557.735351562 973.481445312 c 0
 559.9453125 984.8515625 559.67578125 996.681640625 554.065429688 1009.11132812 c 1xe2
 564.955078125 1018.01171875 582.224609375 1028.98144531 596.024414062 1028.98144531 c 0
 610.154296875 1028.98144531 626.124023438 1001.20117188 619.954101562 969.481445312 c 0xe8
 609.864257812 917.561523438 566.043945312 885.981445312 526.223632812 885.981445312 c 0
 470.124023438 885.981445312 456.43359375 917.051757812 447.243164062 940.681640625 c 0
 439.453125 962.26171875 430.252929688 969.981445312 417.552734375 969.981445312 c 0
 401.552734375 969.981445312 389.172851562 955.181640625 386.3125 940.481445312 c 0
 384.0625 928.901367188 385.192382812 917.081054688 390.912109375 904.80078125 c 1xe4
 380.001953125 895.920898438 362.662109375 884.98046875 348.022460938 884.98046875 c 0
 334.372070312 884.98046875 317.9921875 913.080078125 323.90234375 943.48046875 c 0xe8
 334.172851562 996.330078125 378.942382812 1027.98046875 418.822265625 1027.98046875 c 0
 474.001953125 1027.98046875 488.192382812 994.98046875 496.912109375 973 c 0
208.21484375 278.001953125 m 1
 427.884765625 278.001953125 l 1
 375.064453125 577.381835938 l 1
 208.21484375 278.001953125 l 1
EndSplineSet
Substitution2: "'c2sc' Capitals to Small Capitals in Latin lookup 11 subtable" uni1EB4.sc
AlternateSubs2: "'aalt' Access All Alternates in Latin lookup 0 subtable" uni1EB4.sc
Position2: "'cpsp' Capital Spacing in Latin lookup 0 subtable" dx=5 dy=0 dh=10 dv=0
EndChar

StartChar: uni01CD
Encoding: 461 461 12
Width: 667
GlyphClass: 2
Flags: MW
HStem: 640 20G<375.291 456.291 456.291 459.791> 717 160
VStem: 300 294
AnchorPoint: "Anchor-6" 606 0 basechar 0
AnchorPoint: "Anchor-5" 457 845 basechar 0
AnchorPoint: "Anchor-4" 263 0 basechar 0
LayerCount: 2
Fore
SplineSet
571.98046875 110.5 m 2
 579.190429688 73 582.359375 43 614.359375 43 c 0
 626.359375 43 626.389648438 38 624.830078125 30 c 2
 621.530273438 13 l 2
 619.780273438 4 615 0 606 0 c 2
 371 0 l 2
 363 0 358.780273438 4 360.530273438 13 c 2
 363.830078125 30 l 2
 365.389648438 38 367.359375 43 379.359375 43 c 0
 433.359375 43 461.58984375 72.5 454.129882812 119 c 2
 437.780273438 221 l 1
 177.16015625 221 l 1
 117.850585938 115 l 2
 94.1904296875 73 118.860351562 43 169.360351562 43 c 0
 181.360351562 43 181.390625 38 179.831054688 30 c 2
 176.53125 13 l 2
 174.78125 4 169.000976562 0 161.000976562 0 c 2
 -23.9990234375 0 l 2
 -31.9990234375 0 -36.21875 4 -34.46875 13 c 2
 -31.1689453125 30 l 2
 -29.609375 38 -27.6396484375 43 -15.6396484375 43 c 0
 15.3603515625 43 33.6904296875 73 56.060546875 113.5 c 2
 358.150390625 649 l 2
 361.510742188 656 367.291015625 660 375.291015625 660 c 2
 456.291015625 660 l 2
 463.291015625 660 467.510742188 656 469.150390625 649 c 2
 571.98046875 110.5 l 2
439.75 789.040039062 m 1
 469.860351562 830.559570312 516.208984375 877.170898438 564.508789062 877.170898438 c 0
 589.938476562 877.170898438 597.018554688 852.590820312 591.588867188 824.630859375 c 0
 589.119140625 811.920898438 586.119140625 800.901367188 575.96875 796.670898438 c 0
 523.19921875 778.020507812 495.309570312 765.310546875 425.75 717.010742188 c 1
 374.98046875 765.310546875 352.020507812 778.020507812 306.500976562 796.670898438 c 0
 298.000976562 800.901367188 299.291015625 811.920898438 301.760742188 824.630859375 c 0
 307.201171875 852.590820312 323.840820312 877.170898438 349.260742188 877.170898438 c 0
 397.5703125 877.170898438 425.790039062 830.560546875 439.75 789.040039062 c 1
208.21875 278.000976562 m 1
 427.888671875 278.000976562 l 1
 375.068359375 577.380859375 l 1
 208.21875 278.000976562 l 1
EndSplineSet
Substitution2: "'c2sc' Capitals to Small Capitals in Latin lookup 11 subtable" uni01CD.sc
AlternateSubs2: "'aalt' Access All Alternates in Latin lookup 0 subtable" uni01CD.sc
Position2: "'cpsp' Capital Spacing in Latin lookup 0 subtable" dx=5 dy=0 dh=10 dv=0
EndChar

StartChar: Acircumflex
Encoding: 194 194 13
Width: 667
GlyphClass: 2
Flags: MW
HStem: 640 20G<375.291 456.291 456.291 459.791> 713 160
VStem: 288 294
AnchorPoint: "Anchor-7" 437 777 basechar 0
AnchorPoint: "Anchor-6" 606 0 basechar 0
AnchorPoint: "Anchor-5" 448 833 basechar 0
AnchorPoint: "Anchor-4" 263 0 basechar 0
LayerCount: 2
Fore
SplineSet
571.98046875 110.5 m 2
 579.190429688 73 582.359375 43 614.359375 43 c 0
 626.359375 43 626.389648438 38 624.830078125 30 c 2
 621.530273438 13 l 2
 619.780273438 4 615 0 606 0 c 2
 371 0 l 2
 363 0 358.780273438 4 360.530273438 13 c 2
 363.830078125 30 l 2
 365.389648438 38 367.359375 43 379.359375 43 c 0
 433.359375 43 461.58984375 72.5 454.129882812 119 c 2
 437.780273438 221 l 1
 177.16015625 221 l 1
 117.850585938 115 l 2
 94.1904296875 73 118.860351562 43 169.360351562 43 c 0
 181.360351562 43 181.390625 38 179.831054688 30 c 2
 176.53125 13 l 2
 174.78125 4 169.000976562 0 161.000976562 0 c 2
 -23.9990234375 0 l 2
 -31.9990234375 0 -36.21875 4 -34.46875 13 c 2
 -31.1689453125 30 l 2
 -29.609375 38 -27.6396484375 43 -15.6396484375 43 c 0
 15.3603515625 43 33.6904296875 73 56.060546875 113.5 c 2
 358.150390625 649 l 2
 361.510742188 656 367.291015625 660 375.291015625 660 c 2
 456.291015625 660 l 2
 463.291015625 660 467.510742188 656 469.150390625 649 c 2
 571.98046875 110.5 l 2
441.689453125 800.959960938 m 1
 411.58984375 759.440429688 365.23828125 712.829101562 316.938476562 712.829101562 c 0
 291.518554688 712.829101562 284.428710938 737.409179688 289.869140625 765.369140625 c 0
 292.338867188 778.079101562 295.329101562 789.098632812 305.46875 793.338867188 c 0
 358.23828125 811.978515625 386.138671875 824.688476562 455.688476562 872.98828125 c 1
 506.46875 824.688476562 529.418945312 811.978515625 574.94921875 793.338867188 c 0
 583.44921875 789.098632812 582.149414062 778.079101562 579.6796875 765.369140625 c 0
 574.239257812 737.409179688 557.599609375 712.829101562 532.1796875 712.829101562 c 0
 483.879882812 712.829101562 455.649414062 759.439453125 441.689453125 800.959960938 c 1
208.20703125 277.999023438 m 1
 427.876953125 277.999023438 l 1
 375.056640625 577.37890625 l 1
 208.20703125 277.999023438 l 1
EndSplineSet
Substitution2: "'c2sc' Capitals to Small Capitals in Latin lookup 11 subtable" Acircumflex.sc
AlternateSubs2: "'aalt' Access All Alternates in Latin lookup 0 subtable" Acircumflex.sc
Position2: "'cpsp' Capital Spacing in Latin lookup 0 subtable" dx=5 dy=0 dh=10 dv=0
EndChar

StartChar: uni1EA4
Encoding: 7844 7844 14
Width: 667
GlyphClass: 2
Flags: MW
HStem: 640 20G<375.291 456.291 456.291 459.791> 713 160 987 20G
VStem: 288 294 535 190
AnchorPoint: "Anchor-7" 662 1021 basechar 0
AnchorPoint: "Anchor-6" 606 0 basechar 0
AnchorPoint: "Anchor-5" 448 833 basechar 0
AnchorPoint: "Anchor-4" 263 0 basechar 0
LayerCount: 2
Fore
SplineSet
571.98046875 110.5 m 2xf0
 579.190429688 73 582.359375 43 614.359375 43 c 0
 626.359375 43 626.389648438 38 624.830078125 30 c 2
 621.530273438 13 l 2
 619.780273438 4 615 0 606 0 c 2
 371 0 l 2
 363 0 358.780273438 4 360.530273438 13 c 2
 363.830078125 30 l 2
 365.389648438 38 367.359375 43 379.359375 43 c 0
 433.359375 43 461.58984375 72.5 454.129882812 119 c 2
 437.780273438 221 l 1
 177.16015625 221 l 1
 117.850585938 115 l 2
 94.1904296875 73 118.860351562 43 169.360351562 43 c 0
 181.360351562 43 181.390625 38 179.831054688 30 c 2
 176.53125 13 l 2
 174.78125 4 169.000976562 0 161.000976562 0 c 2
 -23.9990234375 0 l 2
 -31.9990234375 0 -36.21875 4 -34.46875 13 c 2
 -31.1689453125 30 l 2
 -29.609375 38 -27.6396484375 43 -15.6396484375 43 c 0
 15.3603515625 43 33.6904296875 73 56.060546875 113.5 c 2
 358.150390625 649 l 2
 361.510742188 656 367.291015625 660 375.291015625 660 c 2
 456.291015625 660 l 2
 463.291015625 660 467.510742188 656 469.150390625 649 c 2
 571.98046875 110.5 l 2xf0
441.689453125 800.959960938 m 1
 411.58984375 759.440429688 365.23828125 712.829101562 316.938476562 712.829101562 c 0
 291.518554688 712.829101562 284.428710938 737.409179688 289.869140625 765.369140625 c 0
 292.338867188 778.079101562 295.329101562 789.098632812 305.46875 793.338867188 c 0
 358.23828125 811.978515625 386.138671875 824.688476562 455.688476562 872.98828125 c 1
 506.46875 824.688476562 529.418945312 811.978515625 574.94921875 793.338867188 c 0
 583.44921875 789.098632812 582.149414062 778.079101562 579.6796875 765.369140625 c 0
 574.239257812 737.409179688 557.599609375 712.829101562 532.1796875 712.829101562 c 0
 483.879882812 712.829101562 455.649414062 759.439453125 441.689453125 800.959960938 c 1
534.5078125 850.869140625 m 1xe8
 600.557617188 917.46875 618.528320312 942.169921875 651.138671875 994.669921875 c 0
 657.848632812 1005.00976562 670.418945312 1007.00976562 681.798828125 1007.00976562 c 0
 712.1484375 1007.00976562 728.538085938 992.799804688 723.2578125 965.66015625 c 0
 712.02734375 907.879882812 633.897460938 867.330078125 577.547851562 840.009765625 c 0
 573.127929688 838.009765625 568.637695312 836.099609375 564.9375 836.229492188 c 0
 561.916992188 836.399414062 558.296875 837.999023438 554.02734375 840.338867188 c 2
 534.5078125 850.869140625 l 1xe8
208.208984375 278 m 1
 427.87890625 278 l 1
 375.05859375 577.379882812 l 1
 208.208984375 278 l 1
EndSplineSet
Substitution2: "'c2sc' Capitals to Small Capitals in Latin lookup 11 subtable" uni1EA4.sc
AlternateSubs2: "'aalt' Access All Alternates in Latin lookup 0 subtable" uni1EA4.sc
Position2: "'cpsp' Capital Spacing in Latin lookup 0 subtable" dx=5 dy=0 dh=10 dv=0
EndChar

StartChar: uni1EAC
Encoding: 7852 7852 15
Width: 667
GlyphClass: 2
Flags: MW
HStem: -189 135 640 20G<375.291 456.291 456.291 459.791> 713 160
VStem: 176 136 288 294
AnchorPoint: "Anchor-7" 437 777 basechar 0
AnchorPoint: "Anchor-6" 606 0 basechar 0
AnchorPoint: "Anchor-5" 448 833 basechar 0
AnchorPoint: "Anchor-4" 263 0 basechar 0
LayerCount: 2
Fore
SplineSet
571.98046875 110.5 m 2xe8
 579.190429688 73 582.359375 43 614.359375 43 c 0
 626.359375 43 626.389648438 38 624.830078125 30 c 2
 621.530273438 13 l 2
 619.780273438 4 615 0 606 0 c 2
 371 0 l 2
 363 0 358.780273438 4 360.530273438 13 c 2
 363.830078125 30 l 2
 365.389648438 38 367.359375 43 379.359375 43 c 0
 433.359375 43 461.58984375 72.5 454.129882812 119 c 2
 437.780273438 221 l 1
 177.16015625 221 l 1
 117.850585938 115 l 2
 94.1904296875 73 118.860351562 43 169.360351562 43 c 0
 181.360351562 43 181.390625 38 179.831054688 30 c 2
 176.53125 13 l 2
 174.78125 4 169.000976562 0 161.000976562 0 c 2
 -23.9990234375 0 l 2
 -31.9990234375 0 -36.21875 4 -34.46875 13 c 2
 -31.1689453125 30 l 2
 -29.609375 38 -27.6396484375 43 -15.6396484375 43 c 0
 15.3603515625 43 33.6904296875 73 56.060546875 113.5 c 2
 358.150390625 649 l 2
 361.510742188 656 367.291015625 660 375.291015625 660 c 2
 456.291015625 660 l 2
 463.291015625 660 467.510742188 656 469.150390625 649 c 2
 571.98046875 110.5 l 2xe8
256.219726562 -53.990234375 m 0
 272.599609375 -57.1806640625 284.70703125 -65.900390625 297.907226562 -85.470703125 c 0
 311.09765625 -105.030273438 314.857421875 -118.510742188 311.666992188 -134.890625 c 0
 308.487304688 -151.270507812 298.737304688 -163.180664062 280.387695312 -175.55078125 c 0
 260.828125 -188.750976562 246.328125 -192.310546875 229.948242188 -189.120117188 c 0
 214.587890625 -186.139648438 203.498046875 -177.609375 189.278320312 -157.83984375 c 0
 175.888671875 -139.309570312 172.329101562 -124.799804688 175.51953125 -108.419921875 c 0xf0
 178.69921875 -92.0400390625 187.229492188 -80.9501953125 206.799804688 -67.759765625 c 0
 226.359375 -54.5595703125 240.859375 -51.009765625 256.219726562 -53.990234375 c 0
441.686523438 800.959960938 m 1
 411.586914062 759.440429688 365.235351562 712.829101562 316.935546875 712.829101562 c 0
 291.515625 712.829101562 284.42578125 737.409179688 289.866210938 765.369140625 c 0
 292.3359375 778.079101562 295.326171875 789.098632812 305.465820312 793.338867188 c 0
 358.235351562 811.978515625 386.135742188 824.688476562 455.685546875 872.98828125 c 1
 506.465820312 824.688476562 529.416015625 811.978515625 574.946289062 793.338867188 c 0
 583.446289062 789.098632812 582.146484375 778.079101562 579.676757812 765.369140625 c 0
 574.236328125 737.409179688 557.596679688 712.829101562 532.176757812 712.829101562 c 0
 483.876953125 712.829101562 455.646484375 759.439453125 441.686523438 800.959960938 c 1
208.204101562 277.999023438 m 1
 427.874023438 277.999023438 l 1
 375.053710938 577.37890625 l 1
 208.204101562 277.999023438 l 1
EndSplineSet
Substitution2: "'c2sc' Capitals to Small Capitals in Latin lookup 11 subtable" uni1EAC.sc
AlternateSubs2: "'aalt' Access All Alternates in Latin lookup 0 subtable" uni1EAC.sc
Position2: "'cpsp' Capital Spacing in Latin lookup 0 subtable" dx=5 dy=0 dh=10 dv=0
EndChar

StartChar: uni1EA6
Encoding: 7846 7846 16
Width: 667
GlyphClass: 2
Flags: MW
HStem: 640 20G<375.291 456.291 456.291 459.791> 713 160 987 20G
VStem: 188 190 288 294
AnchorPoint: "Anchor-7" 331 1021 basechar 0
AnchorPoint: "Anchor-6" 606 0 basechar 0
AnchorPoint: "Anchor-5" 448 833 basechar 0
AnchorPoint: "Anchor-4" 263 0 basechar 0
LayerCount: 2
Fore
SplineSet
571.98046875 110.5 m 2xe8
 579.190429688 73 582.359375 43 614.359375 43 c 0
 626.359375 43 626.389648438 38 624.830078125 30 c 2
 621.530273438 13 l 2
 619.780273438 4 615 0 606 0 c 2
 371 0 l 2
 363 0 358.780273438 4 360.530273438 13 c 2
 363.830078125 30 l 2
 365.389648438 38 367.359375 43 379.359375 43 c 0xf0
 433.359375 43 461.58984375 72.5 454.129882812 119 c 2
 437.780273438 221 l 1
 177.16015625 221 l 1
 117.850585938 115 l 2
 94.1904296875 73 118.860351562 43 169.360351562 43 c 0
 181.360351562 43 181.390625 38 179.831054688 30 c 2
 176.53125 13 l 2
 174.78125 4 169.000976562 0 161.000976562 0 c 2
 -23.9990234375 0 l 2
 -31.9990234375 0 -36.21875 4 -34.46875 13 c 2
 -31.1689453125 30 l 2
 -29.609375 38 -27.6396484375 43 -15.6396484375 43 c 0
 15.3603515625 43 33.6904296875 73 56.060546875 113.5 c 2
 358.150390625 649 l 2
 361.510742188 656 367.291015625 660 375.291015625 660 c 2
 456.291015625 660 l 2
 463.291015625 660 467.510742188 656 469.150390625 649 c 2
 571.98046875 110.5 l 2xe8
441.689453125 800.959960938 m 1
 411.58984375 759.440429688 365.23828125 712.829101562 316.938476562 712.829101562 c 0
 291.518554688 712.829101562 284.428710938 737.409179688 289.869140625 765.369140625 c 0
 292.338867188 778.079101562 295.329101562 789.098632812 305.46875 793.338867188 c 0
 358.23828125 811.978515625 386.138671875 824.688476562 455.688476562 872.98828125 c 1
 506.46875 824.688476562 529.418945312 811.978515625 574.94921875 793.338867188 c 0
 583.44921875 789.098632812 582.149414062 778.079101562 579.6796875 765.369140625 c 0
 574.239257812 737.409179688 557.599609375 712.829101562 532.1796875 712.829101562 c 0
 483.879882812 712.829101562 455.649414062 759.439453125 441.689453125 800.959960938 c 1
358.887695312 840.338867188 m 2
 354.6171875 837.999023438 350.998046875 836.3984375 347.978515625 836.228515625 c 0
 344.278320312 836.098632812 339.788085938 838.008789062 335.368164062 840.008789062 c 0
 279.018554688 867.329101562 200.888671875 907.87890625 189.658203125 965.659179688 c 0
 184.377929688 992.798828125 200.767578125 1007.00878906 231.1171875 1007.00878906 c 0
 242.497070312 1007.00878906 255.067382812 1005.00878906 261.77734375 994.668945312 c 0
 294.387695312 942.168945312 312.357421875 917.46875 378.407226562 850.869140625 c 1
 358.887695312 840.338867188 l 2
208.208984375 277.998046875 m 1
 427.87890625 277.998046875 l 1
 375.05859375 577.377929688 l 1
 208.208984375 277.998046875 l 1
EndSplineSet
Substitution2: "'c2sc' Capitals to Small Capitals in Latin lookup 11 subtable" uni1EA6.sc
AlternateSubs2: "'aalt' Access All Alternates in Latin lookup 0 subtable" uni1EA6.sc
Position2: "'cpsp' Capital Spacing in Latin lookup 0 subtable" dx=5 dy=0 dh=10 dv=0
EndChar

StartChar: uni1EA8
Encoding: 7848 7848 17
Width: 667
GlyphClass: 2
Flags: MW
HStem: 640 20G<375.291 456.291 456.291 459.791> 713 160 946 68
VStem: 288 294 502 136 575 63
AnchorPoint: "Anchor-7" 595 1068 basechar 0
AnchorPoint: "Anchor-6" 606 0 basechar 0
AnchorPoint: "Anchor-5" 448 833 basechar 0
AnchorPoint: "Anchor-4" 263 0 basechar 0
LayerCount: 2
Fore
SplineSet
571.98046875 110.5 m 2xe4
 579.190429688 73 582.359375 43 614.359375 43 c 0
 626.359375 43 626.389648438 38 624.830078125 30 c 2
 621.530273438 13 l 2
 619.780273438 4 615 0 606 0 c 2
 371 0 l 2
 363 0 358.780273438 4 360.530273438 13 c 2
 363.830078125 30 l 2
 365.389648438 38 367.359375 43 379.359375 43 c 0
 433.359375 43 461.58984375 72.5 454.129882812 119 c 2
 437.780273438 221 l 1
 177.16015625 221 l 1
 117.850585938 115 l 2
 94.1904296875 73 118.860351562 43 169.360351562 43 c 0
 181.360351562 43 181.390625 38 179.831054688 30 c 2
 176.53125 13 l 2
 174.78125 4 169.000976562 0 161.000976562 0 c 2
 -23.9990234375 0 l 2
 -31.9990234375 0 -36.21875 4 -34.46875 13 c 2
 -31.1689453125 30 l 2
 -29.609375 38 -27.6396484375 43 -15.6396484375 43 c 0
 15.3603515625 43 33.6904296875 73 56.060546875 113.5 c 2
 358.150390625 649 l 2
 361.510742188 656 367.291015625 660 375.291015625 660 c 2
 456.291015625 660 l 2
 463.291015625 660 467.510742188 656 469.150390625 649 c 2
 571.98046875 110.5 l 2xe4
441.689453125 800.959960938 m 1
 411.58984375 759.440429688 365.23828125 712.829101562 316.938476562 712.829101562 c 0
 291.518554688 712.829101562 284.428710938 737.409179688 289.869140625 765.369140625 c 0
 292.338867188 778.079101562 295.329101562 789.098632812 305.46875 793.338867188 c 0
 358.23828125 811.978515625 386.138671875 824.688476562 455.688476562 872.98828125 c 1
 506.46875 824.688476562 529.418945312 811.978515625 574.94921875 793.338867188 c 0
 583.44921875 789.098632812 582.149414062 778.079101562 579.6796875 765.369140625 c 0
 574.239257812 737.409179688 557.599609375 712.829101562 532.1796875 712.829101562 c 0
 483.879882812 712.829101562 455.649414062 759.439453125 441.689453125 800.959960938 c 1
581.807617188 839.69921875 m 0xf0
 569.517578125 826.889648438 532.817382812 850.649414062 542.626953125 861.649414062 c 0
 556.336914062 877.479492188 570.497070312 891.649414062 574.756835938 913.559570312 c 0xe4
 579.806640625 939.509765625 566.806640625 946.009765625 553.056640625 946.009765625 c 0
 532.426757812 946.009765625 513.7265625 925.899414062 509.596679688 935.849609375 c 0
 503.666992188 950.279296875 497.846679688 964.508789062 502.166992188 981.428710938 c 0xe8
 504.907226562 993.138671875 545.666992188 1014.27832031 578.157226562 1014.27832031 c 0
 635.006835938 1014.27832031 645.006835938 969.768554688 638.006835938 933.768554688 c 0xe4
 632.126953125 903.548828125 611.77734375 870.418945312 581.807617188 839.69921875 c 0xf0
208.208007812 277.999023438 m 1
 427.877929688 277.999023438 l 1
 375.057617188 577.37890625 l 1
 208.208007812 277.999023438 l 1
EndSplineSet
Substitution2: "'c2sc' Capitals to Small Capitals in Latin lookup 11 subtable" uni1EA8.sc
AlternateSubs2: "'aalt' Access All Alternates in Latin lookup 0 subtable" uni1EA8.sc
Position2: "'cpsp' Capital Spacing in Latin lookup 0 subtable" dx=5 dy=0 dh=10 dv=0
EndChar

StartChar: uni1EAA
Encoding: 7850 7850 18
Width: 667
GlyphClass: 2
Flags: MW
HStem: 640 20G<375.291 456.291 456.291 459.791> 713 160 894 59 978 58
VStem: 288 294 324 298 325 67 556 66
AnchorPoint: "Anchor-7" 437 777 basechar 0
AnchorPoint: "Anchor-6" 606 0 basechar 0
AnchorPoint: "Anchor-5" 484 1018 basechar 0
AnchorPoint: "Anchor-4" 263 0 basechar 0
LayerCount: 2
Fore
SplineSet
571.98046875 110.5 m 2xf8
 579.190429688 73 582.359375 43 614.359375 43 c 0
 626.359375 43 626.389648438 38 624.830078125 30 c 2
 621.530273438 13 l 2xf4
 619.780273438 4 615 0 606 0 c 2
 371 0 l 2
 363 0 358.780273438 4 360.530273438 13 c 2
 363.830078125 30 l 2
 365.389648438 38 367.359375 43 379.359375 43 c 0
 433.359375 43 461.58984375 72.5 454.129882812 119 c 2
 437.780273438 221 l 1
 177.16015625 221 l 1
 117.850585938 115 l 2
 94.1904296875 73 118.860351562 43 169.360351562 43 c 0
 181.360351562 43 181.390625 38 179.831054688 30 c 2
 176.53125 13 l 2
 174.78125 4 169.000976562 0 161.000976562 0 c 2
 -23.9990234375 0 l 2
 -31.9990234375 0 -36.21875 4 -34.46875 13 c 2
 -31.1689453125 30 l 2
 -29.609375 38 -27.6396484375 43 -15.6396484375 43 c 0
 15.3603515625 43 33.6904296875 73 56.060546875 113.5 c 2
 358.150390625 649 l 2
 361.510742188 656 367.291015625 660 375.291015625 660 c 2
 456.291015625 660 l 2
 463.291015625 660 467.510742188 656 469.150390625 649 c 2
 571.98046875 110.5 l 2xf8
441.689453125 800.959960938 m 1
 411.58984375 759.440429688 365.23828125 712.829101562 316.938476562 712.829101562 c 0
 291.518554688 712.829101562 284.428710938 737.409179688 289.869140625 765.369140625 c 0
 292.338867188 778.079101562 295.329101562 789.098632812 305.46875 793.338867188 c 0
 358.23828125 811.978515625 386.138671875 824.688476562 455.688476562 872.98828125 c 1
 506.46875 824.688476562 529.418945312 811.978515625 574.94921875 793.338867188 c 0
 583.44921875 789.098632812 582.149414062 778.079101562 579.6796875 765.369140625 c 0
 574.239257812 737.409179688 557.599609375 712.829101562 532.1796875 712.829101562 c 0
 483.879882812 712.829101562 455.649414062 759.439453125 441.689453125 800.959960938 c 1
498.407226562 980.749023438 m 0
 507.647460938 960.338867188 516.487304688 952.728515625 529.1875 952.728515625 c 0
 545.1875 952.728515625 556.1875 965.588867188 559.227539062 981.228515625 c 0
 561.4375 992.598632812 561.16796875 1004.42871094 555.557617188 1016.85839844 c 1xf1
 566.447265625 1025.75878906 583.716796875 1036.72851562 597.516601562 1036.72851562 c 0
 611.646484375 1036.72851562 627.616210938 1008.94824219 621.446289062 977.228515625 c 0xf4
 611.356445312 925.30859375 567.546875 893.728515625 527.716796875 893.728515625 c 0
 471.6171875 893.728515625 457.926757812 924.80859375 448.736328125 948.438476562 c 0
 440.946289062 970.008789062 431.74609375 977.728515625 419.045898438 977.728515625 c 0
 403.045898438 977.728515625 390.666015625 962.928710938 387.81640625 948.228515625 c 0
 385.56640625 936.6484375 386.696289062 924.838867188 392.40625 912.548828125 c 1xf2
 381.49609375 903.668945312 364.15625 892.728515625 349.526367188 892.728515625 c 0
 335.866210938 892.728515625 319.486328125 920.828125 325.396484375 951.228515625 c 0
 335.666992188 1004.08886719 380.447265625 1035.72851562 420.317382812 1035.72851562 c 0
 475.497070312 1035.72851562 489.6875 1002.72851562 498.407226562 980.749023438 c 0
208.20703125 278.008789062 m 1
 427.876953125 278.008789062 l 1
 375.056640625 577.388671875 l 1
 208.20703125 278.008789062 l 1
EndSplineSet
Substitution2: "'c2sc' Capitals to Small Capitals in Latin lookup 11 subtable" uni1EAA.sc
AlternateSubs2: "'aalt' Access All Alternates in Latin lookup 0 subtable" uni1EAA.sc
Position2: "'cpsp' Capital Spacing in Latin lookup 0 subtable" dx=5 dy=0 dh=10 dv=0
EndChar

StartChar: uni0200
Encoding: 512 512 19
Width: 667
GlyphClass: 2
Flags: MW
HStem: 640 20G<375.291 456.291 456.291 459.791> 865 20G
VStem: 275 190 448 190
AnchorPoint: "Anchor-6" 606 0 basechar 0
AnchorPoint: "Anchor-5" 414 899 basechar 0
AnchorPoint: "Anchor-4" 263 0 basechar 0
LayerCount: 2
Fore
SplineSet
571.98046875 110.5 m 2xd0
 579.190429688 73 582.359375 43 614.359375 43 c 0
 626.359375 43 626.389648438 38 624.830078125 30 c 2
 621.530273438 13 l 2
 619.780273438 4 615 0 606 0 c 2
 371 0 l 2
 363 0 358.780273438 4 360.530273438 13 c 2
 363.830078125 30 l 2
 365.389648438 38 367.359375 43 379.359375 43 c 0
 433.359375 43 461.58984375 72.5 454.129882812 119 c 2
 437.780273438 221 l 1
 177.16015625 221 l 1
 117.850585938 115 l 2
 94.1904296875 73 118.860351562 43 169.360351562 43 c 0
 181.360351562 43 181.390625 38 179.831054688 30 c 2
 176.53125 13 l 2
 174.78125 4 169.000976562 0 161.000976562 0 c 2
 -23.9990234375 0 l 2
 -31.9990234375 0 -36.21875 4 -34.46875 13 c 2
 -31.1689453125 30 l 2
 -29.609375 38 -27.6396484375 43 -15.6396484375 43 c 0
 15.3603515625 43 33.6904296875 73 56.060546875 113.5 c 2
 358.150390625 649 l 2
 361.510742188 656 367.291015625 660 375.291015625 660 c 2
 456.291015625 660 l 2
 463.291015625 660 467.510742188 656 469.150390625 649 c 2
 571.98046875 110.5 l 2xd0
618.099609375 718.5703125 m 2
 613.830078125 716.23046875 610.208984375 714.639648438 607.189453125 714.469726562 c 0
 603.489257812 714.33984375 598.999023438 716.25 594.579101562 718.25 c 0
 538.21875 745.5703125 460.098632812 786.110351562 448.858398438 843.890625 c 0
 443.588867188 871.030273438 459.96875 885.240234375 490.329101562 885.240234375 c 0
 501.69921875 885.240234375 514.26953125 883.240234375 520.979492188 872.900390625 c 0
 553.599609375 820.400390625 571.559570312 795.700195312 637.609375 729.100585938 c 1
 618.099609375 718.5703125 l 2
445.478515625 718.579101562 m 2
 441.208007812 716.239257812 437.599609375 714.6484375 434.569335938 714.478515625 c 0
 430.87890625 714.348632812 426.37890625 716.258789062 421.958984375 718.258789062 c 0
 365.609375 745.579101562 287.479492188 786.119140625 276.249023438 843.899414062 c 0
 270.96875 871.0390625 287.358398438 885.249023438 317.708007812 885.249023438 c 0
 329.087890625 885.249023438 341.658203125 883.249023438 348.368164062 872.909179688 c 0
 380.978515625 820.409179688 398.948242188 795.708984375 464.998046875 729.109375 c 1xe0
 445.478515625 718.579101562 l 2
208.2109375 278.017578125 m 1
 427.880859375 278.017578125 l 1
 375.060546875 577.397460938 l 1
 208.2109375 278.017578125 l 1
EndSplineSet
Substitution2: "'c2sc' Capitals to Small Capitals in Latin lookup 11 subtable" uni0200.sc
AlternateSubs2: "'aalt' Access All Alternates in Latin lookup 0 subtable" uni0200.sc
Position2: "'cpsp' Capital Spacing in Latin lookup 0 subtable" dx=5 dy=0 dh=10 dv=0
EndChar

StartChar: Adieresis
Encoding: 196 196 20
Width: 667
GlyphClass: 2
Flags: MW
HStem: 640 20G<375.291 456.291 456.291 459.791> 718 135
VStem: 271 136 476 136
AnchorPoint: "Anchor-6" 606 0 basechar 0
AnchorPoint: "Anchor-5" 450 845 basechar 0
AnchorPoint: "Anchor-4" 263 0 basechar 0
LayerCount: 2
Fore
SplineSet
571.98046875 110.5 m 2
 579.190429688 73 582.359375 43 614.359375 43 c 0
 626.359375 43 626.389648438 38 624.830078125 30 c 2
 621.530273438 13 l 2
 619.780273438 4 615 0 606 0 c 2
 371 0 l 2
 363 0 358.780273438 4 360.530273438 13 c 2
 363.830078125 30 l 2
 365.389648438 38 367.359375 43 379.359375 43 c 0
 433.359375 43 461.58984375 72.5 454.129882812 119 c 2
 437.780273438 221 l 1
 177.16015625 221 l 1
 117.850585938 115 l 2
 94.1904296875 73 118.860351562 43 169.360351562 43 c 0
 181.360351562 43 181.390625 38 179.831054688 30 c 2
 176.53125 13 l 2
 174.78125 4 169.000976562 0 161.000976562 0 c 2
 -23.9990234375 0 l 2
 -31.9990234375 0 -36.21875 4 -34.46875 13 c 2
 -31.1689453125 30 l 2
 -29.609375 38 -27.6396484375 43 -15.6396484375 43 c 0
 15.3603515625 43 33.6904296875 73 56.060546875 113.5 c 2
 358.150390625 649 l 2
 361.510742188 656 367.291015625 660 375.291015625 660 c 2
 456.291015625 660 l 2
 463.291015625 660 467.510742188 656 469.150390625 649 c 2
 571.98046875 110.5 l 2
351.2890625 852.66015625 m 0
 367.668945312 849.48046875 379.776367188 840.75 392.9765625 821.190429688 c 0
 406.166992188 801.630859375 409.926757812 788.150390625 406.736328125 771.770507812 c 0
 403.556640625 755.390625 393.806640625 743.470703125 375.45703125 731.100585938 c 0
 355.897460938 717.91015625 341.397460938 714.350585938 325.017578125 717.530273438 c 0
 309.657226562 720.530273438 298.567382812 729.060546875 284.34765625 748.8203125 c 0
 270.958007812 767.360351562 267.3984375 781.860351562 270.588867188 798.240234375 c 0
 273.768554688 814.620117188 282.298828125 825.709960938 301.869140625 838.91015625 c 0
 321.428710938 852.100585938 335.928710938 855.66015625 351.2890625 852.66015625 c 0
556.286132812 852.66015625 m 0
 572.666015625 849.48046875 584.7734375 840.75 597.973632812 821.190429688 c 0
 611.1640625 801.630859375 614.923828125 788.150390625 611.733398438 771.770507812 c 0
 608.553710938 755.390625 598.803710938 743.470703125 580.454101562 731.100585938 c 0
 560.89453125 717.91015625 546.39453125 714.350585938 530.014648438 717.530273438 c 0
 514.654296875 720.530273438 503.564453125 729.060546875 489.344726562 748.8203125 c 0
 475.955078125 767.360351562 472.395507812 781.860351562 475.5859375 798.240234375 c 0
 478.765625 814.620117188 487.295898438 825.709960938 506.866210938 838.91015625 c 0
 526.42578125 852.100585938 540.92578125 855.66015625 556.286132812 852.66015625 c 0
208.203125 278 m 1
 427.873046875 278 l 1
 375.052734375 577.379882812 l 1
 208.203125 278 l 1
EndSplineSet
Substitution2: "'c2sc' Capitals to Small Capitals in Latin lookup 11 subtable" Adieresis.sc
AlternateSubs2: "'aalt' Access All Alternates in Latin lookup 0 subtable" Adieresis.sc
Position2: "'cpsp' Capital Spacing in Latin lookup 0 subtable" dx=5 dy=0 dh=10 dv=0
EndChar

StartChar: uni1EA0
Encoding: 7840 7840 21
Width: 667
GlyphClass: 2
Flags: MW
HStem: -189 135 640 20G<375.291 456.291 456.291 459.791>
VStem: 176 136
AnchorPoint: "Anchor-6" 606 0 basechar 0
AnchorPoint: "Anchor-5" 414 660 basechar 0
AnchorPoint: "Anchor-4" 263 0 basechar 0
LayerCount: 2
Fore
SplineSet
571.98046875 110.5 m 2
 579.190429688 73 582.359375 43 614.359375 43 c 0
 626.359375 43 626.389648438 38 624.830078125 30 c 2
 621.530273438 13 l 2
 619.780273438 4 615 0 606 0 c 2
 371 0 l 2
 363 0 358.780273438 4 360.530273438 13 c 2
 363.830078125 30 l 2
 365.389648438 38 367.359375 43 379.359375 43 c 0
 433.359375 43 461.58984375 72.5 454.129882812 119 c 2
 437.780273438 221 l 1
 177.16015625 221 l 1
 117.850585938 115 l 2
 94.1904296875 73 118.860351562 43 169.360351562 43 c 0
 181.360351562 43 181.390625 38 179.831054688 30 c 2
 176.53125 13 l 2
 174.78125 4 169.000976562 0 161.000976562 0 c 2
 -23.9990234375 0 l 2
 -31.9990234375 0 -36.21875 4 -34.46875 13 c 2
 -31.1689453125 30 l 2
 -29.609375 38 -27.6396484375 43 -15.6396484375 43 c 0
 15.3603515625 43 33.6904296875 73 56.060546875 113.5 c 2
 358.150390625 649 l 2
 361.510742188 656 367.291015625 660 375.291015625 660 c 2
 456.291015625 660 l 2
 463.291015625 660 467.510742188 656 469.150390625 649 c 2
 571.98046875 110.5 l 2
256.219726562 -53.990234375 m 0
 272.599609375 -57.1806640625 284.70703125 -65.900390625 297.907226562 -85.470703125 c 0
 311.09765625 -105.030273438 314.857421875 -118.510742188 311.666992188 -134.890625 c 0
 308.487304688 -151.270507812 298.737304688 -163.180664062 280.387695312 -175.55078125 c 0
 260.828125 -188.750976562 246.328125 -192.310546875 229.948242188 -189.120117188 c 0
 214.587890625 -186.139648438 203.498046875 -177.609375 189.278320312 -157.83984375 c 0
 175.888671875 -139.309570312 172.329101562 -124.799804688 175.51953125 -108.419921875 c 0
 178.69921875 -92.0400390625 187.229492188 -80.9501953125 206.799804688 -67.759765625 c 0
 226.359375 -54.5595703125 240.859375 -51.009765625 256.219726562 -53.990234375 c 0
208.20703125 278.009765625 m 1
 427.876953125 278.009765625 l 1
 375.056640625 577.389648438 l 1
 208.20703125 278.009765625 l 1
EndSplineSet
Substitution2: "'c2sc' Capitals to Small Capitals in Latin lookup 11 subtable" uni1EA0.sc
AlternateSubs2: "'aalt' Access All Alternates in Latin lookup 0 subtable" uni1EA0.sc
Position2: "'cpsp' Capital Spacing in Latin lookup 0 subtable" dx=5 dy=0 dh=10 dv=0
EndChar

StartChar: Agrave
Encoding: 192 192 22
Width: 667
GlyphClass: 2
Flags: MW
HStem: 640 20G<375.291 456.291 456.291 459.791> 865 20G
VStem: 293 190
AnchorPoint: "Anchor-6" 606 0 basechar 0
AnchorPoint: "Anchor-5" 436 899 basechar 0
AnchorPoint: "Anchor-4" 263 0 basechar 0
LayerCount: 2
Fore
SplineSet
571.98046875 110.5 m 2
 579.190429688 73 582.359375 43 614.359375 43 c 0
 626.359375 43 626.389648438 38 624.830078125 30 c 2
 621.530273438 13 l 2
 619.780273438 4 615 0 606 0 c 2
 371 0 l 2
 363 0 358.780273438 4 360.530273438 13 c 2
 363.830078125 30 l 2
 365.389648438 38 367.359375 43 379.359375 43 c 0
 433.359375 43 461.58984375 72.5 454.129882812 119 c 2
 437.780273438 221 l 1
 177.16015625 221 l 1
 117.850585938 115 l 2
 94.1904296875 73 118.860351562 43 169.360351562 43 c 0
 181.360351562 43 181.390625 38 179.831054688 30 c 2
 176.53125 13 l 2
 174.78125 4 169.000976562 0 161.000976562 0 c 2
 -23.9990234375 0 l 2
 -31.9990234375 0 -36.21875 4 -34.46875 13 c 2
 -31.1689453125 30 l 2
 -29.609375 38 -27.6396484375 43 -15.6396484375 43 c 0
 15.3603515625 43 33.6904296875 73 56.060546875 113.5 c 2
 358.150390625 649 l 2
 361.510742188 656 367.291015625 660 375.291015625 660 c 2
 456.291015625 660 l 2
 463.291015625 660 467.510742188 656 469.150390625 649 c 2
 571.98046875 110.5 l 2
463.219726562 718.5703125 m 2
 458.950195312 716.23046875 455.340820312 714.639648438 452.310546875 714.469726562 c 0
 448.610351562 714.33984375 444.120117188 716.25 439.700195312 718.25 c 0
 383.350585938 745.5703125 305.220703125 786.110351562 293.990234375 843.890625 c 0
 288.709960938 871.030273438 305.099609375 885.240234375 335.44921875 885.240234375 c 0
 346.829101562 885.240234375 359.399414062 883.240234375 366.109375 872.900390625 c 0
 398.719726562 820.400390625 416.689453125 795.700195312 482.739257812 729.100585938 c 1
 463.219726562 718.5703125 l 2
208.2109375 278.008789062 m 1
 427.880859375 278.008789062 l 1
 375.060546875 577.388671875 l 1
 208.2109375 278.008789062 l 1
EndSplineSet
Substitution2: "'c2sc' Capitals to Small Capitals in Latin lookup 11 subtable" Agrave.sc
AlternateSubs2: "'aalt' Access All Alternates in Latin lookup 0 subtable" Agrave.sc
Position2: "'cpsp' Capital Spacing in Latin lookup 0 subtable" dx=5 dy=0 dh=10 dv=0
EndChar

StartChar: uni1EA2
Encoding: 7842 7842 23
Width: 667
GlyphClass: 2
Flags: MW
HStem: 640 20G<375.291 456.291 456.291 459.791> 824 68
VStem: 377 136 450 63
AnchorPoint: "Anchor-6" 606 0 basechar 0
AnchorPoint: "Anchor-5" 470 946 basechar 0
AnchorPoint: "Anchor-4" 263 0 basechar 0
LayerCount: 2
Fore
SplineSet
571.98046875 110.5 m 2xe0
 579.190429688 73 582.359375 43 614.359375 43 c 0
 626.359375 43 626.389648438 38 624.830078125 30 c 2
 621.530273438 13 l 2
 619.780273438 4 615 0 606 0 c 2
 371 0 l 2
 363 0 358.780273438 4 360.530273438 13 c 2
 363.830078125 30 l 2
 365.389648438 38 367.359375 43 379.359375 43 c 0
 433.359375 43 461.58984375 72.5 454.129882812 119 c 2
 437.780273438 221 l 1
 177.16015625 221 l 1
 117.850585938 115 l 2
 94.1904296875 73 118.860351562 43 169.360351562 43 c 0
 181.360351562 43 181.390625 38 179.831054688 30 c 2
 176.53125 13 l 2
 174.78125 4 169.000976562 0 161.000976562 0 c 2
 -23.9990234375 0 l 2
 -31.9990234375 0 -36.21875 4 -34.46875 13 c 2
 -31.1689453125 30 l 2
 -29.609375 38 -27.6396484375 43 -15.6396484375 43 c 0
 15.3603515625 43 33.6904296875 73 56.060546875 113.5 c 2
 358.150390625 649 l 2
 361.510742188 656 367.291015625 660 375.291015625 660 c 2
 456.291015625 660 l 2
 463.291015625 660 467.510742188 656 469.150390625 649 c 2
 571.98046875 110.5 l 2xe0
457.139648438 717.9296875 m 0
 444.849609375 705.120117188 408.138671875 728.879882812 417.958984375 739.879882812 c 0
 431.659179688 755.709960938 445.819335938 769.879882812 450.079101562 791.790039062 c 0xd0
 455.12890625 817.740234375 442.12890625 824.240234375 428.37890625 824.240234375 c 0
 407.749023438 824.240234375 389.048828125 804.129882812 384.918945312 814.080078125 c 0
 378.989257812 828.509765625 373.168945312 842.740234375 377.489257812 859.66015625 c 0
 380.239257812 871.370117188 420.989257812 892.509765625 453.489257812 892.509765625 c 0
 510.338867188 892.509765625 520.338867188 848 513.338867188 812 c 0
 507.458984375 781.780273438 487.109375 748.66015625 457.139648438 717.9296875 c 0
208.19921875 278 m 1
 427.869140625 278 l 1
 375.048828125 577.379882812 l 1
 208.19921875 278 l 1
EndSplineSet
Substitution2: "'c2sc' Capitals to Small Capitals in Latin lookup 11 subtable" uni1EA2.sc
AlternateSubs2: "'aalt' Access All Alternates in Latin lookup 0 subtable" uni1EA2.sc
Position2: "'cpsp' Capital Spacing in Latin lookup 0 subtable" dx=5 dy=0 dh=10 dv=0
EndChar

StartChar: uni0202
Encoding: 514 514 24
Width: 667
GlyphClass: 2
Flags: MW
HStem: 640 20G<375.291 456.291 456.291 459.791> 817 56
VStem: 302 270
AnchorPoint: "Anchor-6" 606 0 basechar 0
AnchorPoint: "Anchor-5" 461 899 basechar 0
AnchorPoint: "Anchor-4" 263 0 basechar 0
LayerCount: 2
Fore
SplineSet
571.98046875 110.5 m 2
 579.190429688 73 582.359375 43 614.359375 43 c 0
 626.359375 43 626.389648438 38 624.830078125 30 c 2
 621.530273438 13 l 2
 619.780273438 4 615 0 606 0 c 2
 371 0 l 2
 363 0 358.780273438 4 360.530273438 13 c 2
 363.830078125 30 l 2
 365.389648438 38 367.359375 43 379.359375 43 c 0
 433.359375 43 461.58984375 72.5 454.129882812 119 c 2
 437.780273438 221 l 1
 177.16015625 221 l 1
 117.850585938 115 l 2
 94.1904296875 73 118.860351562 43 169.360351562 43 c 0
 181.360351562 43 181.390625 38 179.831054688 30 c 2
 176.53125 13 l 2
 174.78125 4 169.000976562 0 161.000976562 0 c 2
 -23.9990234375 0 l 2
 -31.9990234375 0 -36.21875 4 -34.46875 13 c 2
 -31.1689453125 30 l 2
 -29.609375 38 -27.6396484375 43 -15.6396484375 43 c 0
 15.3603515625 43 33.6904296875 73 56.060546875 113.5 c 2
 358.150390625 649 l 2
 361.510742188 656 367.291015625 660 375.291015625 660 c 2
 456.291015625 660 l 2
 463.291015625 660 467.510742188 656 469.150390625 649 c 2
 571.98046875 110.5 l 2
457.689453125 873 m 0
 548.689453125 873 577.818359375 801.150390625 570.258789062 762.25 c 0
 568.318359375 752.25 561.73828125 748.349609375 552.348632812 747.25 c 0
 541.588867188 746.009765625 521.499023438 743.799804688 513.499023438 743.450195312 c 0
 502.819335938 742.790039062 499.139648438 746.370117188 500.609375 758.020507812 c 0
 503.01953125 794.760742188 486.169921875 816.760742188 446.759765625 816.760742188 c 0
 407.859375 816.760742188 382.458984375 794.760742188 370.569335938 758.020507812 c 0
 367.01953125 746.370117188 362.44921875 742.790039062 352.029296875 743.450195312 c 0
 343.659179688 743.799804688 324.939453125 746.009765625 314.159179688 747.25 c 0
 305.189453125 748.349609375 300.129882812 752.25 302.0703125 762.25 c 0
 309.629882812 801.150390625 367.189453125 873 457.689453125 873 c 0
208.208007812 278 m 1
 427.877929688 278 l 1
 375.057617188 577.379882812 l 1
 208.208007812 278 l 1
EndSplineSet
Substitution2: "'c2sc' Capitals to Small Capitals in Latin lookup 11 subtable" uni0202.sc
AlternateSubs2: "'aalt' Access All Alternates in Latin lookup 0 subtable" uni0202.sc
Position2: "'cpsp' Capital Spacing in Latin lookup 0 subtable" dx=5 dy=0 dh=10 dv=0
EndChar

StartChar: Amacron
Encoding: 256 256 25
Width: 667
GlyphClass: 2
Flags: MW
HStem: 640 20G<375.291 456.291 456.291 459.791> 721 64<308.65 551.59 325.59 539.15>
VStem: 303 260
AnchorPoint: "Anchor-6" 606 0 basechar 0
AnchorPoint: "Anchor-5" 435 765 basechar 0
AnchorPoint: "Anchor-4" 263 0 basechar 0
LayerCount: 2
Fore
SplineSet
571.98046875 110.5 m 2
 579.190429688 73 582.359375 43 614.359375 43 c 0
 626.359375 43 626.389648438 38 624.830078125 30 c 2
 621.530273438 13 l 2
 619.780273438 4 615 0 606 0 c 2
 371 0 l 2
 363 0 358.780273438 4 360.530273438 13 c 2
 363.830078125 30 l 2
 365.389648438 38 367.359375 43 379.359375 43 c 0
 433.359375 43 461.58984375 72.5 454.129882812 119 c 2
 437.780273438 221 l 1
 177.16015625 221 l 1
 117.850585938 115 l 2
 94.1904296875 73 118.860351562 43 169.360351562 43 c 0
 181.360351562 43 181.390625 38 179.831054688 30 c 2
 176.53125 13 l 2
 174.78125 4 169.000976562 0 161.000976562 0 c 2
 -23.9990234375 0 l 2
 -31.9990234375 0 -36.21875 4 -34.46875 13 c 2
 -31.1689453125 30 l 2
 -29.609375 38 -27.6396484375 43 -15.6396484375 43 c 0
 15.3603515625 43 33.6904296875 73 56.060546875 113.5 c 2
 358.150390625 649 l 2
 361.510742188 656 367.291015625 660 375.291015625 660 c 2
 456.291015625 660 l 2
 463.291015625 660 467.510742188 656 469.150390625 649 c 2
 571.98046875 110.5 l 2
554.6796875 734 m 2
 553.120117188 726 548.150390625 721 539.150390625 721 c 2
 313.150390625 721 l 2
 304.150390625 721 301.120117188 726 302.6796875 734 c 2
 310.059570312 772 l 2
 311.809570312 781 316.58984375 785 325.58984375 785 c 2
 551.58984375 785 l 2
 560.58984375 785 563.809570312 781 562.059570312 772 c 2
 554.6796875 734 l 2
208.209960938 278 m 1
 427.879882812 278 l 1
 375.059570312 577.379882812 l 1
 208.209960938 278 l 1
EndSplineSet
Substitution2: "'c2sc' Capitals to Small Capitals in Latin lookup 11 subtable" Amacron.sc
AlternateSubs2: "'aalt' Access All Alternates in Latin lookup 0 subtable" Amacron.sc
Position2: "'cpsp' Capital Spacing in Latin lookup 0 subtable" dx=5 dy=0 dh=10 dv=0
EndChar

StartChar: Aogonek
Encoding: 260 260 26
Width: 667
GlyphClass: 2
Flags: MW
HStem: 0 35 640 20G<375.291 456.291 456.291 459.791>
VStem: 412 70
AnchorPoint: "Anchor-6" 606 0 basechar 0
AnchorPoint: "Anchor-5" 414 660 basechar 0
AnchorPoint: "Anchor-4" 263 0 basechar 0
LayerCount: 2
Fore
SplineSet
571.98046875 110.5 m 2
 579.190429688 73 582.346679688 42.9990234375 614.346679688 42.9990234375 c 0
 626.346679688 42.9990234375 626.376953125 37.9990234375 624.817382812 29.9990234375 c 2
 621.517578125 12.9990234375 l 2
 620.677734375 8.708984375 619.157226562 5.55859375 616.817382812 3.4287109375 c 0
 615.557617188 2.05859375 613.557617188 1.0986328125 611.16796875 0.548828125 c 0
 609.627929688 0.1787109375 607.908203125 -0.0009765625 605.998046875 -0.0009765625 c 0
 594.998046875 -0.0009765625 499.068359375 -15.2705078125 484.087890625 -92.3505859375 c 0
 474.637695312 -140.970703125 499.078125 -167.73046875 552.448242188 -167.73046875 c 0
 590.3984375 -167.73046875 631.3984375 -142 640.3984375 -142 c 0
 644.3984375 -142 647.618164062 -146 646.2578125 -153 c 2
 641.397460938 -178 l 2
 640.227539062 -184 637.2578125 -189 631.677734375 -192 c 0
 594.788085938 -212 559.6484375 -223 529.6484375 -223 c 0
 433.6484375 -223 403.678710938 -156 414.168945312 -102 c 0
 423.5390625 -53.8203125 456.229492188 -21.25 491.719726562 0 c 1
 371 0 l 2
 363 0 358.780273438 4 360.530273438 13 c 2
 363.830078125 30 l 2
 365.389648438 38 367.359375 43 379.359375 43 c 0
 433.359375 43 461.58984375 72.5 454.129882812 119 c 2
 437.780273438 221 l 1
 177.16015625 221 l 1
 117.850585938 115 l 2
 94.1904296875 73 118.860351562 43 169.360351562 43 c 0
 181.360351562 43 181.390625 38 179.831054688 30 c 2
 176.53125 13 l 2
 174.78125 4 169.000976562 0 161.000976562 0 c 2
 -23.9990234375 0 l 2
 -31.9990234375 0 -36.21875 4 -34.46875 13 c 2
 -31.1689453125 30 l 2
 -29.609375 38 -27.6396484375 43 -15.6396484375 43 c 0
 15.3603515625 43 33.6904296875 73 56.060546875 113.5 c 2
 358.150390625 649 l 2
 361.510742188 656 367.291015625 660 375.291015625 660 c 2
 456.291015625 660 l 2
 463.291015625 660 467.510742188 656 469.150390625 649 c 2
 571.98046875 110.5 l 2
208.197265625 277.999023438 m 1
 427.8671875 277.999023438 l 1
 375.046875 577.37890625 l 1
 208.197265625 277.999023438 l 1
EndSplineSet
Substitution2: "'c2sc' Capitals to Small Capitals in Latin lookup 11 subtable" Aogonek.sc
AlternateSubs2: "'aalt' Access All Alternates in Latin lookup 0 subtable" Aogonek.sc
Position2: "'cpsp' Capital Spacing in Latin lookup 0 subtable" dx=5 dy=0 dh=10 dv=0
EndChar

StartChar: Aring
Encoding: 197 197 27
Width: 667
GlyphClass: 2
Flags: MW
HStem: 639 20G 687 20G 774 54
AnchorPoint: "Anchor-6" 606 0 basechar 0
AnchorPoint: "Anchor-5" 444 792 basechar 0
AnchorPoint: "Anchor-4" 263 0 basechar 0
LayerCount: 2
Fore
SplineSet
571.98046875 110.5 m 2
 579.190429688 73 582.360351562 43 614.360351562 43 c 0
 626.360351562 43 626.390625 38 624.831054688 30 c 2
 621.53125 13 l 2
 619.78125 4 615.000976562 0 606.000976562 0 c 2
 371.000976562 0 l 2
 363.000976562 0 358.78125 4 360.53125 13 c 2
 363.831054688 30 l 2
 365.390625 38 367.360351562 43 379.360351562 43 c 0
 433.360351562 43 461.590820312 72.5 454.130859375 119 c 2
 437.78125 221 l 1
 177.161132812 221 l 1
 117.8515625 115 l 2
 94.19140625 73 118.861328125 43 169.361328125 43 c 0
 181.361328125 43 181.391601562 38 179.83203125 30 c 2
 176.532226562 13 l 2
 174.782226562 4 169.001953125 0 161.001953125 0 c 2
 -23.998046875 0 l 2
 -31.998046875 0 -36.2177734375 4 -34.4677734375 13 c 2
 -31.16796875 30 l 2
 -29.6083984375 38 -27.638671875 43 -15.638671875 43 c 0
 15.361328125 43 33.69140625 73 56.0615234375 113.5 c 2
 357.01171875 646.979492188 l 1
 332.551757812 664.709960938 320.231445312 694.629882812 326.831054688 728.58984375 c 0
 337.590820312 783.939453125 392.860351562 828.049804688 451.669921875 828.049804688 c 0
 509.620117188 828.049804688 547.75 783.939453125 536.990234375 728.58984375 c 0
 530.020507812 692.759765625 503.740234375 661.419921875 470.080078125 644.16015625 c 1
 571.98046875 110.5 l 2
385.640625 728.58984375 m 0
 380.430664062 701.780273438 395.060546875 683.620117188 423.600585938 683.620117188 c 0
 451.270507812 683.620117188 472.970703125 701.780273438 478.180664062 728.58984375 c 0
 483.560546875 756.26953125 468.930664062 774.4296875 441.250976562 774.4296875 c 0
 412.7109375 774.4296875 391.020507812 756.26953125 385.640625 728.58984375 c 0
208.2109375 278 m 1
 427.880859375 278 l 1
 375.060546875 577.379882812 l 1
 208.2109375 278 l 1
EndSplineSet
Substitution2: "'c2sc' Capitals to Small Capitals in Latin lookup 11 subtable" Aring.sc
AlternateSubs2: "'aalt' Access All Alternates in Latin lookup 0 subtable" Aring.sc
Position2: "'cpsp' Capital Spacing in Latin lookup 0 subtable" dx=5 dy=0 dh=10 dv=0
EndChar

StartChar: Aringacute
Encoding: 506 506 28
Width: 667
GlyphClass: 2
Flags: MW
HStem: 640 20G 687 20G 774 54 997 20G
VStem: 395 190
AnchorPoint: "Anchor-6" 606 0 basechar 0
AnchorPoint: "Anchor-5" 522 1031 basechar 0
AnchorPoint: "Anchor-4" 263 0 basechar 0
LayerCount: 2
Fore
SplineSet
571.98046875 110.5 m 2
 579.190429688 73 582.360351562 43 614.360351562 43 c 0
 626.360351562 43 626.390625 38 624.831054688 30 c 2
 621.53125 13 l 2
 619.78125 4 615.000976562 0 606.000976562 0 c 2
 371.000976562 0 l 2
 363.000976562 0 358.78125 4 360.53125 13 c 2
 363.831054688 30 l 2
 365.390625 38 367.360351562 43 379.360351562 43 c 0
 433.360351562 43 461.590820312 72.5 454.130859375 119 c 2
 437.78125 221 l 1
 177.161132812 221 l 1
 117.8515625 115 l 2
 94.19140625 73 118.861328125 43 169.361328125 43 c 0
 181.361328125 43 181.391601562 38 179.83203125 30 c 2
 176.532226562 13 l 2
 174.782226562 4 169.001953125 0 161.001953125 0 c 2
 -23.998046875 0 l 2
 -31.998046875 0 -36.2177734375 4 -34.4677734375 13 c 2
 -31.16796875 30 l 2
 -29.6083984375 38 -27.638671875 43 -15.638671875 43 c 0
 15.361328125 43 33.69140625 73 56.0615234375 113.5 c 2
 357.01171875 646.979492188 l 1
 332.551757812 664.709960938 320.231445312 694.629882812 326.831054688 728.58984375 c 0
 337.590820312 783.939453125 392.860351562 828.049804688 451.669921875 828.049804688 c 0
 509.620117188 828.049804688 547.75 783.939453125 536.990234375 728.58984375 c 0
 530.020507812 692.759765625 503.740234375 661.419921875 470.080078125 644.16015625 c 1
 571.98046875 110.5 l 2
385.640625 728.58984375 m 0
 380.430664062 701.780273438 395.060546875 683.620117188 423.600585938 683.620117188 c 0
 451.270507812 683.620117188 472.970703125 701.780273438 478.180664062 728.58984375 c 0
 483.560546875 756.26953125 468.930664062 774.4296875 441.250976562 774.4296875 c 0
 412.7109375 774.4296875 391.020507812 756.26953125 385.640625 728.58984375 c 0
395.0703125 861.030273438 m 1
 461.120117188 927.629882812 479.088867188 952.331054688 511.708984375 1004.83105469 c 0
 518.418945312 1015.17089844 530.978515625 1017.16113281 542.358398438 1017.16113281 c 0
 572.71875 1017.16113281 589.098632812 1002.95117188 583.818359375 975.811523438 c 0
 572.588867188 918.03125 494.458984375 877.481445312 438.109375 850.161132812 c 0
 433.689453125 848.170898438 429.19921875 846.260742188 425.499023438 846.390625 c 0
 422.479492188 846.560546875 418.859375 848.16015625 414.58984375 850.5 c 2
 395.0703125 861.030273438 l 1
208.208984375 278.000976562 m 1
 427.87890625 278.000976562 l 1
 375.05859375 577.380859375 l 1
 208.208984375 278.000976562 l 1
EndSplineSet
Substitution2: "'c2sc' Capitals to Small Capitals in Latin lookup 11 subtable" Aringacute.sc
AlternateSubs2: "'aalt' Access All Alternates in Latin lookup 0 subtable" Aringacute.sc
Position2: "'cpsp' Capital Spacing in Latin lookup 0 subtable" dx=5 dy=0 dh=10 dv=0
EndChar

StartChar: Atilde
Encoding: 195 195 29
Width: 667
GlyphClass: 2
Flags: MW
HStem: 640 20G<375.291 456.291 456.291 459.791> 721 59 805 58
VStem: 292 67 522 66
AnchorPoint: "Anchor-6" 606 0 basechar 0
AnchorPoint: "Anchor-5" 450 845 basechar 0
AnchorPoint: "Anchor-4" 263 0 basechar 0
LayerCount: 2
Fore
SplineSet
571.98046875 110.5 m 2
 579.190429688 73 582.359375 43 614.359375 43 c 0
 626.359375 43 626.389648438 38 624.830078125 30 c 2
 621.530273438 13 l 2
 619.780273438 4 615 0 606 0 c 2
 371 0 l 2
 363 0 358.780273438 4 360.530273438 13 c 2
 363.830078125 30 l 2
 365.389648438 38 367.359375 43 379.359375 43 c 0
 433.359375 43 461.58984375 72.5 454.129882812 119 c 2
 437.780273438 221 l 1
 177.16015625 221 l 1
 117.850585938 115 l 2
 94.1904296875 73 118.860351562 43 169.360351562 43 c 0
 181.360351562 43 181.390625 38 179.831054688 30 c 2
 176.53125 13 l 2
 174.78125 4 169.000976562 0 161.000976562 0 c 2
 -23.9990234375 0 l 2
 -31.9990234375 0 -36.21875 4 -34.46875 13 c 2
 -31.1689453125 30 l 2
 -29.609375 38 -27.6396484375 43 -15.6396484375 43 c 0
 15.3603515625 43 33.6904296875 73 56.060546875 113.5 c 2
 358.150390625 649 l 2
 361.510742188 656 367.291015625 660 375.291015625 660 c 2
 456.291015625 660 l 2
 463.291015625 660 467.510742188 656 469.150390625 649 c 2
 571.98046875 110.5 l 2
464.739257812 807.530273438 m 0
 473.979492188 787.120117188 482.821289062 779.509765625 495.521484375 779.509765625 c 0
 511.521484375 779.509765625 522.521484375 792.370117188 525.561523438 808.009765625 c 0
 527.771484375 819.379882812 527.501953125 831.209960938 521.891601562 843.639648438 c 1
 532.78125 852.540039062 550.05078125 863.509765625 563.850585938 863.509765625 c 0
 577.98046875 863.509765625 593.950195312 835.729492188 587.780273438 804.009765625 c 0
 577.690429688 752.08984375 533.870117188 720.509765625 494.049804688 720.509765625 c 0
 437.950195312 720.509765625 424.259765625 751.58984375 415.069335938 775.219726562 c 0
 407.279296875 796.790039062 398.079101562 804.509765625 385.37890625 804.509765625 c 0
 369.37890625 804.509765625 356.999023438 789.709960938 354.149414062 775.009765625 c 0
 351.899414062 763.4296875 353.029296875 751.620117188 358.739257812 739.330078125 c 1
 347.829101562 730.450195312 330.489257812 719.509765625 315.859375 719.509765625 c 0
 302.19921875 719.509765625 285.819335938 747.609375 291.729492188 778.009765625 c 0
 301.999023438 830.870117188 346.779296875 862.509765625 386.649414062 862.509765625 c 0
 441.829101562 862.509765625 456.01953125 829.509765625 464.739257812 807.530273438 c 0
208.2109375 278.009765625 m 1
 427.880859375 278.009765625 l 1
 375.060546875 577.389648438 l 1
 208.2109375 278.009765625 l 1
EndSplineSet
Substitution2: "'c2sc' Capitals to Small Capitals in Latin lookup 11 subtable" Atilde.sc
AlternateSubs2: "'aalt' Access All Alternates in Latin lookup 0 subtable" Atilde.sc
Position2: "'cpsp' Capital Spacing in Latin lookup 0 subtable" dx=5 dy=0 dh=10 dv=0
EndChar

StartChar: AE
Encoding: 198 198 30
Width: 982
GlyphClass: 2
Flags: MW
HStem: -11.9 21G 0 45 0.100006 46.5 0.100006 52 220.5 57 325.1 56 608.1 52 616.1 44 651.1 20G
VStem: -35 1008 768.1 42.59
AnchorPoint: "Anchor-6" 806 0 basechar 0
AnchorPoint: "Anchor-5" 697 660 basechar 0
AnchorPoint: "Anchor-4" 614 0 basechar 0
LayerCount: 2
Fore
SplineSet
824.650390625 -11.8896484375 m 0x8e40
 821.650390625 -11.8896484375 818.963867188 -11.7236328125 817.25390625 -8.9033203125 c 2
 814.223632812 -3.9033203125 l 2
 811.874023438 -0.0029296875 808.024414062 0.0771484375 797.024414062 0.0771484375 c 2
 336.543945312 0.0771484375 l 2
 328.043945312 0.0771484375 323.82421875 4.0771484375 325.57421875 13.0771484375 c 2x1e40
 329.5546875 33.5771484375 l 2
 331.104492188 41.5771484375 336.57421875 46.5771484375 345.57421875 46.5771484375 c 0
 385.07421875 46.5771484375 415.213867188 73.0771484375 425.513671875 126.077148438 c 2x2e40
 443.86328125 220.477539062 l 1
 240.422851562 220.477539062 l 1
 161.913085938 114.977539062 l 2
 124.403320312 65.4775390625 123.973632812 44.9775390625 169.793945312 44.9775390625 c 0
 182.293945312 44.9775390625 181.813476562 39.9775390625 180.263671875 31.9775390625 c 2
 176.573242188 12.9775390625 l 2
 174.823242188 3.9775390625 169.053710938 -0.0224609375 161.053710938 -0.0224609375 c 2
 -23.4462890625 -0.0224609375 l 2
 -31.9462890625 -0.0224609375 -36.15625 3.9775390625 -34.40625 12.9775390625 c 2
 -30.7158203125 31.9775390625 l 2
 -29.166015625 39.9775390625 -26.1962890625 44.9775390625 -14.6962890625 44.9775390625 c 0
 23.3037109375 44.9775390625 58.3232421875 65.767578125 94.853515625 113.467773438 c 2
 442.063476562 571.967773438 l 2
 468.68359375 607.118164062 456.953125 616.05859375 425.783203125 616.05859375 c 0
 417.283203125 616.05859375 412.953125 622.05859375 414.502929688 630.05859375 c 2x4d40
 417.602539062 646.05859375 l 2
 419.352539062 655.05859375 425.322265625 660.05859375 434.322265625 660.05859375 c 2
 884.302734375 660.05859375 l 2x1e40
 893.302734375 660.05859375 897.672851562 660.7890625 902.073242188 664.048828125 c 2
 908.033203125 669.048828125 l 2
 910.422851562 671.048828125 913.422851562 671.048828125 916.422851562 671.048828125 c 0
 920.422851562 671.048828125 924.0625 669.069335938 926.052734375 664.059570312 c 2x1cc0
 971.922851562 545.059570312 l 2
 973.22265625 542.009765625 973.732421875 539.069335938 973.342773438 537.069335938 c 0
 972.3828125 532.069335938 968.942382812 528.76953125 964.232421875 526.079101562 c 2
 936.501953125 512.079101562 l 2
 930.881835938 509.189453125 928.7421875 508.08984375 925.7421875 508.08984375 c 0
 921.7421875 508.08984375 919.2421875 511.280273438 917.301757812 516.080078125 c 2
 915.271484375 521.080078125 l 2
 887.811523438 588.080078125 859.19140625 608.080078125 791.19140625 608.080078125 c 2
 630.69140625 608.080078125 l 1
 586.571289062 381.080078125 l 1
 682.071289062 381.080078125 l 2
 730.071289062 381.080078125 759.9609375 401.080078125 767.541015625 440.080078125 c 2
 768.701171875 446.080078125 l 2
 770.44140625 455.080078125 775.2109375 459.080078125 784.2109375 459.080078125 c 2
 800.2109375 459.080078125 l 2
 809.2109375 459.080078125 812.430664062 455.080078125 810.690429688 446.080078125 c 2
 774.73046875 261.080078125 l 2
 772.990234375 252.080078125 768.219726562 248.080078125 759.219726562 248.080078125 c 2
 743.219726562 248.080078125 l 2
 734.219726562 248.080078125 731 252.080078125 732.740234375 261.080078125 c 2
 733.719726562 266.080078125 l 2
 741.479492188 306.080078125 720.1796875 325.080078125 671.1796875 325.080078125 c 2
 575.669921875 325.080078125 l 1
 538.950195312 136.080078125 l 2
 528.450195312 82.080078125 548.610351562 52.080078125 587.610351562 52.080078125 c 2
 654.110351562 52.080078125 l 2x1e20
 783.110351562 52.080078125 834.840820312 81.580078125 909.23046875 189.080078125 c 2
 913.400390625 195.080078125 l 2
 917.650390625 201.580078125 925.73046875 204.580078125 932.850585938 200.080078125 c 2
 951.610351562 188.580078125 l 2
 959.690429688 184.030273438 958.75 178.850585938 953.020507812 170.090820312 c 2
 836.190429688 -3.8994140625 l 2
 832.370117188 -9.609375 828.650390625 -11.8896484375 824.650390625 -11.8896484375 c 0x8e40
283.39453125 277.49609375 m 1x1e40
 454.934570312 277.49609375 l 1
 514.875 585.896484375 l 1
 283.39453125 277.49609375 l 1x1e40
EndSplineSet
Substitution2: "'c2sc' Capitals to Small Capitals in Latin lookup 11 subtable" AE.sc
AlternateSubs2: "'aalt' Access All Alternates in Latin lookup 0 subtable" AE.sc
Position2: "'cpsp' Capital Spacing in Latin lookup 0 subtable" dx=5 dy=0 dh=10 dv=0
EndChar

StartChar: AEacute
Encoding: 508 508 31
Width: 982
GlyphClass: 2
Flags: MW
HStem: -11.9 21G 0 45 0.100006 46.5 0.100006 52 220.5 57 325.1 56 608.1 52 616.1 44 651.1 20G
VStem: -35 1008 768.1 42.59
AnchorPoint: "Anchor-6" 806 0 basechar 0
AnchorPoint: "Anchor-5" 775 899 basechar 0
AnchorPoint: "Anchor-4" 614 0 basechar 0
LayerCount: 2
Fore
SplineSet
824.650390625 -11.8896484375 m 0x8e40
 821.650390625 -11.8896484375 818.963867188 -11.7236328125 817.25390625 -8.9033203125 c 2
 814.223632812 -3.9033203125 l 2
 811.874023438 -0.0029296875 808.024414062 0.0771484375 797.024414062 0.0771484375 c 2
 336.543945312 0.0771484375 l 2
 328.043945312 0.0771484375 323.82421875 4.0771484375 325.57421875 13.0771484375 c 2x1e40
 329.5546875 33.5771484375 l 2
 331.104492188 41.5771484375 336.57421875 46.5771484375 345.57421875 46.5771484375 c 0
 385.07421875 46.5771484375 415.213867188 73.0771484375 425.513671875 126.077148438 c 2x2e40
 443.86328125 220.477539062 l 1
 240.422851562 220.477539062 l 1
 161.913085938 114.977539062 l 2
 124.403320312 65.4775390625 123.973632812 44.9775390625 169.793945312 44.9775390625 c 0
 182.293945312 44.9775390625 181.813476562 39.9775390625 180.263671875 31.9775390625 c 2
 176.573242188 12.9775390625 l 2
 174.823242188 3.9775390625 169.053710938 -0.0224609375 161.053710938 -0.0224609375 c 2
 -23.4462890625 -0.0224609375 l 2
 -31.9462890625 -0.0224609375 -36.15625 3.9775390625 -34.40625 12.9775390625 c 2
 -30.7158203125 31.9775390625 l 2
 -29.166015625 39.9775390625 -26.1962890625 44.9775390625 -14.6962890625 44.9775390625 c 0
 23.3037109375 44.9775390625 58.3232421875 65.767578125 94.853515625 113.467773438 c 2
 442.063476562 571.967773438 l 2
 468.68359375 607.118164062 456.953125 616.05859375 425.783203125 616.05859375 c 0
 417.283203125 616.05859375 412.953125 622.05859375 414.502929688 630.05859375 c 2x4d40
 417.602539062 646.05859375 l 2
 419.352539062 655.05859375 425.322265625 660.05859375 434.322265625 660.05859375 c 2
 884.302734375 660.05859375 l 2x1e40
 893.302734375 660.05859375 897.672851562 660.7890625 902.073242188 664.048828125 c 2
 908.033203125 669.048828125 l 2
 910.422851562 671.048828125 913.422851562 671.048828125 916.422851562 671.048828125 c 0
 920.422851562 671.048828125 924.0625 669.069335938 926.052734375 664.059570312 c 2x1cc0
 971.922851562 545.059570312 l 2
 973.22265625 542.009765625 973.732421875 539.069335938 973.342773438 537.069335938 c 0
 972.3828125 532.069335938 968.942382812 528.76953125 964.232421875 526.079101562 c 2
 936.501953125 512.079101562 l 2
 930.881835938 509.189453125 928.7421875 508.08984375 925.7421875 508.08984375 c 0
 921.7421875 508.08984375 919.2421875 511.280273438 917.301757812 516.080078125 c 2
 915.271484375 521.080078125 l 2
 887.811523438 588.080078125 859.19140625 608.080078125 791.19140625 608.080078125 c 2
 630.69140625 608.080078125 l 1
 586.571289062 381.080078125 l 1
 682.071289062 381.080078125 l 2
 730.071289062 381.080078125 759.9609375 401.080078125 767.541015625 440.080078125 c 2
 768.701171875 446.080078125 l 2
 770.44140625 455.080078125 775.2109375 459.080078125 784.2109375 459.080078125 c 2
 800.2109375 459.080078125 l 2
 809.2109375 459.080078125 812.430664062 455.080078125 810.690429688 446.080078125 c 2
 774.73046875 261.080078125 l 2
 772.990234375 252.080078125 768.219726562 248.080078125 759.219726562 248.080078125 c 2
 743.219726562 248.080078125 l 2
 734.219726562 248.080078125 731 252.080078125 732.740234375 261.080078125 c 2
 733.719726562 266.080078125 l 2
 741.479492188 306.080078125 720.1796875 325.080078125 671.1796875 325.080078125 c 2
 575.669921875 325.080078125 l 1
 538.950195312 136.080078125 l 2
 528.450195312 82.080078125 548.610351562 52.080078125 587.610351562 52.080078125 c 2
 654.110351562 52.080078125 l 2x1e20
 783.110351562 52.080078125 834.840820312 81.580078125 909.23046875 189.080078125 c 2
 913.400390625 195.080078125 l 2
 917.650390625 201.580078125 925.73046875 204.580078125 932.850585938 200.080078125 c 2
 951.610351562 188.580078125 l 2
 959.690429688 184.030273438 958.75 178.850585938 953.020507812 170.090820312 c 2
 836.190429688 -3.8994140625 l 2
 832.370117188 -9.609375 828.650390625 -11.8896484375 824.650390625 -11.8896484375 c 0x8e40
283.39453125 277.49609375 m 1x1e40
 454.934570312 277.49609375 l 1
 514.875 585.896484375 l 1
 283.39453125 277.49609375 l 1x1e40
648.375 729.0859375 m 1
 714.424804688 795.685546875 732.353515625 820.40625 764.963867188 872.90625 c 0
 771.6640625 883.236328125 784.234375 885.216796875 795.604492188 885.216796875 c 0
 825.954101562 885.216796875 842.32421875 871.016601562 837.064453125 843.876953125 c 0
 825.834960938 786.096679688 747.71484375 745.56640625 691.365234375 718.24609375 c 0
 686.9453125 716.24609375 682.46484375 714.3359375 678.774414062 714.475585938 c 0
 675.764648438 714.635742188 672.14453125 716.225585938 667.884765625 718.555664062 c 2
 648.375 729.0859375 l 1
EndSplineSet
Substitution2: "'c2sc' Capitals to Small Capitals in Latin lookup 11 subtable" AEacute.sc
AlternateSubs2: "'aalt' Access All Alternates in Latin lookup 0 subtable" AEacute.sc
Position2: "'cpsp' Capital Spacing in Latin lookup 0 subtable" dx=5 dy=0 dh=10 dv=0
EndChar

StartChar: B
Encoding: 66 66 32
Width: 633
GlyphClass: 2
Flags: MW
HStem: 0 39.5<268.659 290.659 290.659 321> 0 43<8.5 42.8389 16.8389 42.8389 16.8389 321> 338.5 47.5<264.5 319.76 255.26 328> 617 43<141.26 154.399> 620.5 39.5<310.08 376.58 310.08 310.08>
VStem: 485 112
AnchorPoint: "Anchor-5" 403 660 basechar 0
AnchorPoint: "Anchor-4" 274 0 basechar 0
LayerCount: 2
Fore
SplineSet
13 0 m 2xac
 4 0 -0.220703125 4 1.51953125 13 c 2xac
 4.8193359375 30 l 2
 6.369140625 38 12.3388671875 43 21.3388671875 43 c 0
 64.3388671875 43 91.7685546875 71 102.458984375 126 c 2
 181.758789062 534 l 2
 192.44921875 589 175.899414062 617 132.899414062 617 c 0
 123.899414062 617 119.879882812 622 121.4296875 630 c 2x74
 124.729492188 647 l 2
 126.479492188 656 132.259765625 660 141.259765625 660 c 2
 409.259765625 660 l 2
 531.259765625 660 612.649414062 590 595.359375 501 c 0
 585.44921875 450 546.099609375 407 482.469726562 378 c 1
 569.219726562 351 610.799804688 282 593.700195312 194 c 0
 571.540039062 80 459 0 321 0 c 2
 13 0 l 2xac
290.659179688 39.5 m 2
 394.159179688 39.5 463.330078125 97 481.490234375 190.5 c 0
 500.540039062 288.5 448.759765625 338.5 319.759765625 338.5 c 2
 255.259765625 338.5 l 1
 213.479492188 123.5 l 2
 202.01953125 64.5 222.659179688 39.5 268.659179688 39.5 c 2
 290.659179688 39.5 l 2
328 386 m 2
 414.5 386 470.25 431 484.330078125 503.5 c 0
 498.520507812 576.5 461.080078125 620.5 376.580078125 620.5 c 2
 310.080078125 620.5 l 1
 264.5 386 l 1
 328 386 l 2
EndSplineSet
Substitution2: "'ss04' Style Set 4 in Latin lookup 33 subtable" u1F151
Substitution2: "'ss03' Style Set 3 in Latin lookup 31 subtable" uni24B7
Substitution2: "'c2sc' Capitals to Small Capitals in Latin lookup 11 subtable" B.sc
AlternateSubs2: "'aalt' Access All Alternates in Latin lookup 0 subtable" B.sc uni24B7 u1F151
Position2: "'cpsp' Capital Spacing in Latin lookup 0 subtable" dx=5 dy=0 dh=10 dv=0
EndChar

StartChar: uni1E04
Encoding: 7684 7684 33
Width: 633
GlyphClass: 2
Flags: MW
HStem: 0 39.5<268.659 290.659 290.659 321> 0 43<8.5 42.8389 16.8389 42.8389 16.8389 321> 338.5 47.5<264.5 319.76 255.26 328> 617 43<141.26 154.399> 620.5 39.5<310.08 376.58 310.08 310.08>
VStem: 187.02 136.15 485 112
AnchorPoint: "Anchor-5" 403 660 basechar 0
AnchorPoint: "Anchor-4" 274 0 basechar 0
LayerCount: 2
Fore
SplineSet
13 0 m 2xaa
 4 0 -0.220703125 4 1.51953125 13 c 2xaa
 4.8193359375 30 l 2
 6.369140625 38 12.3388671875 43 21.3388671875 43 c 0
 64.3388671875 43 91.7685546875 71 102.458984375 126 c 2
 181.758789062 534 l 2
 192.44921875 589 175.899414062 617 132.899414062 617 c 0
 123.899414062 617 119.879882812 622 121.4296875 630 c 2x72
 124.729492188 647 l 2
 126.479492188 656 132.259765625 660 141.259765625 660 c 2
 409.259765625 660 l 2
 531.259765625 660 612.649414062 590 595.359375 501 c 0
 585.44921875 450 546.099609375 407 482.469726562 378 c 1
 569.219726562 351 610.799804688 282 593.700195312 194 c 0
 571.540039062 80 459 0 321 0 c 2
 13 0 l 2xaa
290.659179688 39.5 m 2
 394.159179688 39.5 463.330078125 97 481.490234375 190.5 c 0
 500.540039062 288.5 448.759765625 338.5 319.759765625 338.5 c 2
 255.259765625 338.5 l 1
 213.479492188 123.5 l 2
 202.01953125 64.5 222.659179688 39.5 268.659179688 39.5 c 2
 290.659179688 39.5 l 2
328 386 m 2
 414.5 386 470.25 431 484.330078125 503.5 c 0
 498.520507812 576.5 461.080078125 620.5 376.580078125 620.5 c 2
 310.080078125 620.5 l 1
 264.5 386 l 1
 328 386 l 2
267.700195312 -53.98046875 m 0xae
 284.0703125 -57.1708984375 296.169921875 -65.890625 309.360351562 -85.4501953125 c 0
 322.55078125 -105 326.310546875 -118.48046875 323.120117188 -134.850585938 c 0
 319.950195312 -151.23046875 310.190429688 -163.140625 291.860351562 -175.510742188 c 0
 272.310546875 -188.701171875 257.810546875 -192.250976562 241.440429688 -189.060546875 c 0
 226.090820312 -186.080078125 215.010742188 -177.560546875 200.791015625 -157.80078125 c 0
 187.401367188 -139.270507812 183.861328125 -124.760742188 187.03125 -108.390625 c 0
 190.201171875 -92.0205078125 198.720703125 -80.9306640625 218.291015625 -67.740234375 c 0
 237.850585938 -54.5498046875 252.350585938 -51 267.700195312 -53.98046875 c 0xae
EndSplineSet
Substitution2: "'c2sc' Capitals to Small Capitals in Latin lookup 11 subtable" uni1E04.sc
AlternateSubs2: "'aalt' Access All Alternates in Latin lookup 0 subtable" uni1E04.sc
Position2: "'cpsp' Capital Spacing in Latin lookup 0 subtable" dx=5 dy=0 dh=10 dv=0
EndChar

StartChar: C
Encoding: 67 67 34
Width: 649
GlyphClass: 2
Flags: MW
HStem: -11 57.5<263.06 391.358> 621 50<360.96 485.71>
VStem: 44 129 555 111.3
AnchorPoint: "Anchor-5" 434 660 basechar 0
AnchorPoint: "Anchor-4" 311 0 basechar 0
LayerCount: 2
Fore
SplineSet
630.709960938 209.5 m 2
 637.620117188 206.5 640.038085938 203.5 635.078125 196 c 0
 579.938476562 97.5 473.858398438 -11 308.858398438 -11 c 0
 102.858398438 -11 15.048828125 134 51.7890625 323 c 0
 80.359375 470 195.4296875 671 444.4296875 671 c 0
 641.9296875 671 673.870117188 519 666.290039062 480 c 0
 664.360351562 470 660.190429688 466.5 651.200195312 464 c 2
 561.580078125 435 l 2
 546.709960938 430.5 541.700195312 433 543.33984375 441.5 c 0
 544.700195312 448.5 548.919921875 460 551.939453125 475.5 c 0
 564.469726562 540 540.709960938 621 430.709960938 621 c 0
 291.209960938 621 205.290039062 467 184.599609375 360.5 c 0
 148.33984375 174 194.059570312 46.5 332.059570312 46.5 c 0
 468.559570312 46.5 547.26953125 132.5 591.619140625 211.5 c 0
 598.059570312 221.5 602.75 222.5 610.459960938 218.5 c 2
 630.709960938 209.5 l 2
EndSplineSet
Substitution2: "'ss04' Style Set 4 in Latin lookup 33 subtable" u1F152
Substitution2: "'ss03' Style Set 3 in Latin lookup 31 subtable" uni24B8
Substitution2: "'c2sc' Capitals to Small Capitals in Latin lookup 11 subtable" C.sc
AlternateSubs2: "'aalt' Access All Alternates in Latin lookup 0 subtable" C.sc uni24B8 u1F152
Position2: "'cpsp' Capital Spacing in Latin lookup 0 subtable" dx=5 dy=0 dh=10 dv=0
EndChar

StartChar: Cacute
Encoding: 262 262 35
Width: 649
GlyphClass: 2
Flags: MW
HStem: -11 57.5<263.06 391.358> 621 50<360.96 485.71>
VStem: 44 129 555 111.3
AnchorPoint: "Anchor-5" 513 899 basechar 0
AnchorPoint: "Anchor-4" 311 0 basechar 0
LayerCount: 2
Fore
SplineSet
630.709960938 209.5 m 2
 637.620117188 206.5 640.038085938 203.5 635.078125 196 c 0
 579.938476562 97.5 473.858398438 -11 308.858398438 -11 c 0
 102.858398438 -11 15.048828125 134 51.7890625 323 c 0
 80.359375 470 195.4296875 671 444.4296875 671 c 0
 641.9296875 671 673.870117188 519 666.290039062 480 c 0
 664.360351562 470 660.190429688 466.5 651.200195312 464 c 2
 561.580078125 435 l 2
 546.709960938 430.5 541.700195312 433 543.33984375 441.5 c 0
 544.700195312 448.5 548.919921875 460 551.939453125 475.5 c 0
 564.469726562 540 540.709960938 621 430.709960938 621 c 0
 291.209960938 621 205.290039062 467 184.599609375 360.5 c 0
 148.33984375 174 194.059570312 46.5 332.059570312 46.5 c 0
 468.559570312 46.5 547.26953125 132.5 591.619140625 211.5 c 0
 598.059570312 221.5 602.75 222.5 610.459960938 218.5 c 2
 630.709960938 209.5 l 2
385.698242188 729.08984375 m 1
 451.748046875 795.689453125 469.690429688 820.41015625 502.310546875 872.91015625 c 0
 509.020507812 883.240234375 521.5703125 885.220703125 532.950195312 885.220703125 c 0
 563.299804688 885.220703125 579.669921875 871.020507812 574.389648438 843.880859375 c 0
 563.159179688 786.100585938 485.0390625 745.5703125 428.69921875 718.25 c 0
 424.279296875 716.25 419.798828125 714.33984375 416.098632812 714.479492188 c 0
 413.088867188 714.639648438 409.478515625 716.229492188 405.208007812 718.559570312 c 2
 385.698242188 729.08984375 l 1
EndSplineSet
Substitution2: "'c2sc' Capitals to Small Capitals in Latin lookup 11 subtable" Cacute.sc
AlternateSubs2: "'aalt' Access All Alternates in Latin lookup 0 subtable" Cacute.sc
Position2: "'cpsp' Capital Spacing in Latin lookup 0 subtable" dx=5 dy=0 dh=10 dv=0
EndChar

StartChar: Ccaron
Encoding: 268 268 36
Width: 649
GlyphClass: 2
Flags: MW
HStem: -11 57.5<263.06 391.358> 621 50<360.96 485.71>
VStem: 44 129 555 111.3
AnchorPoint: "Anchor-5" 477 845 basechar 0
AnchorPoint: "Anchor-4" 311 0 basechar 0
LayerCount: 2
Fore
SplineSet
630.709960938 209.5 m 2
 637.620117188 206.5 640.038085938 203.5 635.078125 196 c 0
 579.938476562 97.5 473.858398438 -11 308.858398438 -11 c 0
 102.858398438 -11 15.048828125 134 51.7890625 323 c 0
 80.359375 470 195.4296875 671 444.4296875 671 c 0
 641.9296875 671 673.870117188 519 666.290039062 480 c 0
 664.360351562 470 660.190429688 466.5 651.200195312 464 c 2
 561.580078125 435 l 2
 546.709960938 430.5 541.700195312 433 543.33984375 441.5 c 0
 544.700195312 448.5 548.919921875 460 551.939453125 475.5 c 0
 564.469726562 540 540.709960938 621 430.709960938 621 c 0
 291.209960938 621 205.290039062 467 184.599609375 360.5 c 0
 148.33984375 174 194.059570312 46.5 332.059570312 46.5 c 0
 468.559570312 46.5 547.26953125 132.5 591.619140625 211.5 c 0
 598.059570312 221.5 602.75 222.5 610.459960938 218.5 c 2
 630.709960938 209.5 l 2
459.748046875 789.030273438 m 1
 489.84765625 830.540039062 536.186523438 877.139648438 584.486328125 877.139648438 c 0
 609.90625 877.139648438 616.9765625 852.569335938 611.556640625 824.609375 c 0
 609.096679688 811.899414062 606.106445312 800.889648438 595.966796875 796.659179688 c 0
 543.20703125 778.01953125 515.317382812 765.309570312 445.767578125 717.009765625 c 1
 394.998046875 765.309570312 372.047851562 778.01953125 326.538085938 796.659179688 c 0
 318.038085938 800.889648438 319.318359375 811.899414062 321.778320312 824.609375 c 0
 327.21875 852.569335938 343.858398438 877.139648438 369.268554688 877.139648438 c 0
 417.568359375 877.139648438 445.788085938 830.540039062 459.748046875 789.030273438 c 1
EndSplineSet
Substitution2: "'c2sc' Capitals to Small Capitals in Latin lookup 11 subtable" Ccaron.sc
AlternateSubs2: "'aalt' Access All Alternates in Latin lookup 0 subtable" Ccaron.sc
Position2: "'cpsp' Capital Spacing in Latin lookup 0 subtable" dx=5 dy=0 dh=10 dv=0
EndChar

StartChar: Ccedilla
Encoding: 199 199 37
Width: 649
GlyphClass: 2
Flags: MW
HStem: -6 21G
AnchorPoint: "Anchor-5" 434 660 basechar 0
AnchorPoint: "Anchor-4" 311 0 basechar 0
LayerCount: 2
Fore
SplineSet
630.719726562 209.5 m 2
 637.639648438 206.5 640.0703125 203.5 635.110351562 196 c 0
 581.16015625 99.6396484375 478.450195312 -6.30078125 319.520507812 -10.8505859375 c 1
 275.7109375 -53.0009765625 l 1
 289.680664062 -48.0009765625 304.0703125 -46.0009765625 318.0703125 -46.0009765625 c 0
 364.0703125 -46.0009765625 412.020507812 -72.0009765625 399.770507812 -135.000976562 c 0
 389.66015625 -187.000976562 336.270507812 -225.000976562 268.270507812 -225.000976562 c 0
 241.270507812 -225.000976562 212.250976562 -220.000976562 183.770507812 -207.000976562 c 0
 168.130859375 -200.000976562 169.720703125 -186.701171875 173.5703125 -166.880859375 c 0
 174.930664062 -159.890625 178.170898438 -155.23046875 182.831054688 -155.23046875 c 0
 186.331054688 -155.23046875 189.481445312 -156.590820312 191.701171875 -157.560546875 c 0
 214.590820312 -165.720703125 241.810546875 -173.880859375 270.950195312 -173.880859375 c 0
 303.919921875 -173.880859375 327.459960938 -160.720703125 332.219726562 -136.240234375 c 0
 339.01953125 -101.270507812 309.099609375 -87.2900390625 263.639648438 -87.2900390625 c 0
 247.659179688 -87.2900390625 227.168945312 -90.7802734375 213.518554688 -90.7802734375 c 0
 207.688476562 -90.7802734375 204.868164062 -87.2900390625 205.778320312 -82.6201171875 c 0
 206.458007812 -79.1298828125 206.677734375 -76.580078125 209.91796875 -73.2998046875 c 2
 268.868164062 -9.0595703125 l 1
 91.6083984375 8.73046875 17.5283203125 146.73046875 51.7978515625 323 c 0
 80.3681640625 470 195.438476562 671 444.438476562 671 c 0
 641.938476562 671 673.888671875 519 666.30859375 480 c 0
 664.368164062 470 660.188476562 466.5 651.188476562 464 c 2
 561.55859375 435 l 2
 546.678710938 430.5 541.668945312 433 543.319335938 441.5 c 0
 544.6796875 448.5 548.919921875 460 551.9296875 475.5 c 0
 564.469726562 540 540.709960938 621 430.709960938 621 c 0
 291.209960938 621 205.280273438 467 184.5703125 360.5 c 0
 148.3203125 174 194.040039062 46.5 332.040039062 46.5 c 0
 468.540039062 46.5 547.259765625 132.5 591.609375 211.5 c 0
 598.059570312 221.5 602.75 222.5 610.469726562 218.5 c 2
 630.719726562 209.5 l 2
EndSplineSet
Substitution2: "'c2sc' Capitals to Small Capitals in Latin lookup 11 subtable" Ccedilla.sc
AlternateSubs2: "'aalt' Access All Alternates in Latin lookup 0 subtable" Ccedilla.sc
Position2: "'cpsp' Capital Spacing in Latin lookup 0 subtable" dx=5 dy=0 dh=10 dv=0
EndChar

StartChar: uni1E08
Encoding: 7688 7688 38
Width: 649
GlyphClass: 2
Flags: MW
HStem: -225 51.12 -87.28 41.29 -9.06001 21G -9.05 55.56 621 50
VStem: 44 129 332.21 69.79 555 111.3
AnchorPoint: "Anchor-5" 513 899 basechar 0
AnchorPoint: "Anchor-4" 311 0 basechar 0
LayerCount: 2
Fore
SplineSet
630.709960938 209.5 m 1xec
 630.76953125 209.51953125 l 1xec
 637.6796875 206.51953125 640.099609375 203.51953125 635.139648438 196.01953125 c 0
 581.19921875 99.6591796875 478.489257812 -6.2705078125 319.569335938 -10.8203125 c 1
 275.76953125 -52.970703125 l 1
 289.729492188 -47.970703125 304.119140625 -45.970703125 318.119140625 -45.970703125 c 0
 364.119140625 -45.970703125 412.059570312 -71.970703125 399.809570312 -134.970703125 c 0
 389.709960938 -186.970703125 336.3203125 -224.970703125 268.3203125 -224.970703125 c 0
 241.3203125 -224.970703125 212.310546875 -219.970703125 183.830078125 -206.970703125 c 0
 168.190429688 -199.970703125 169.770507812 -186.670898438 173.620117188 -166.861328125 c 0
 174.969726562 -159.861328125 178.200195312 -155.201171875 182.860351562 -155.201171875 c 0
 186.360351562 -155.201171875 189.510742188 -156.561523438 191.720703125 -157.521484375 c 0
 214.610351562 -165.681640625 241.8203125 -173.841796875 270.959960938 -173.841796875 c 0
 303.919921875 -173.841796875 327.459960938 -160.681640625 332.209960938 -136.201171875 c 0
 339.009765625 -101.241210938 309.099609375 -87.2607421875 263.639648438 -87.2607421875 c 0
 247.659179688 -87.2607421875 227.168945312 -90.7412109375 213.529296875 -90.7412109375 c 0
 207.708984375 -90.7412109375 204.888671875 -87.2607421875 205.798828125 -82.5908203125 c 0
 206.46875 -79.1103515625 206.678710938 -76.560546875 209.909179688 -73.2802734375 c 2
 268.859375 -9.0498046875 l 1
 91.599609375 8.73046875 17.529296875 146.73046875 51.7890625 323 c 0
 80.359375 470 195.4296875 671 444.4296875 671 c 0
 641.9296875 671 673.870117188 519 666.290039062 480 c 0
 664.360351562 470 660.190429688 466.5 651.200195312 464 c 2
 561.580078125 435 l 2
 546.709960938 430.5 541.700195312 433 543.33984375 441.5 c 0
 544.700195312 448.5 548.919921875 460 551.939453125 475.5 c 0
 564.469726562 540 540.709960938 621 430.709960938 621 c 0
 291.209960938 621 205.290039062 467 184.599609375 360.5 c 0
 148.33984375 174 194.059570312 46.5 332.059570312 46.5 c 0xdf
 468.559570312 46.5 547.26953125 132.5 591.619140625 211.5 c 0
 598.059570312 221.5 602.75 222.5 610.459960938 218.5 c 2
 630.709960938 209.5 l 1xec
385.759765625 729.109375 m 1
 451.809570312 795.708984375 469.750976562 820.4296875 502.37109375 872.9296875 c 0
 509.081054688 883.259765625 521.630859375 885.240234375 533.010742188 885.240234375 c 0
 563.360351562 885.240234375 579.73046875 871.040039062 574.450195312 843.900390625 c 0
 563.219726562 786.120117188 485.099609375 745.58984375 428.759765625 718.26953125 c 0
 424.33984375 716.26953125 419.859375 714.359375 416.159179688 714.499023438 c 0
 413.149414062 714.659179688 409.5390625 716.249023438 405.26953125 718.579101562 c 2
 385.759765625 729.109375 l 1
EndSplineSet
Substitution2: "'c2sc' Capitals to Small Capitals in Latin lookup 11 subtable" uni1E08.sc
AlternateSubs2: "'aalt' Access All Alternates in Latin lookup 0 subtable" uni1E08.sc
Position2: "'cpsp' Capital Spacing in Latin lookup 0 subtable" dx=5 dy=0 dh=10 dv=0
EndChar

StartChar: Ccircumflex
Encoding: 264 264 39
Width: 649
GlyphClass: 2
Flags: MW
HStem: -11 57.5<263.06 391.358> 621 50<360.96 485.71>
VStem: 44 129 555 111.3
AnchorPoint: "Anchor-7" 457 777 basechar 0
AnchorPoint: "Anchor-5" 468 833 basechar 0
AnchorPoint: "Anchor-4" 311 0 basechar 0
LayerCount: 2
Fore
SplineSet
630.709960938 209.5 m 2
 637.620117188 206.5 640.038085938 203.5 635.078125 196 c 0
 579.938476562 97.5 473.858398438 -11 308.858398438 -11 c 0
 102.858398438 -11 15.048828125 134 51.7890625 323 c 0
 80.359375 470 195.4296875 671 444.4296875 671 c 0
 641.9296875 671 673.870117188 519 666.290039062 480 c 0
 664.360351562 470 660.190429688 466.5 651.200195312 464 c 2
 561.580078125 435 l 2
 546.709960938 430.5 541.700195312 433 543.33984375 441.5 c 0
 544.700195312 448.5 548.919921875 460 551.939453125 475.5 c 0
 564.469726562 540 540.709960938 621 430.709960938 621 c 0
 291.209960938 621 205.290039062 467 184.599609375 360.5 c 0
 148.33984375 174 194.059570312 46.5 332.059570312 46.5 c 0
 468.559570312 46.5 547.26953125 132.5 591.619140625 211.5 c 0
 598.059570312 221.5 602.75 222.5 610.459960938 218.5 c 2
 630.709960938 209.5 l 2
461.677734375 800.950195312 m 1
 431.587890625 759.440429688 385.215820312 712.840820312 336.916015625 712.840820312 c 0
 311.505859375 712.840820312 304.42578125 737.411132812 309.85546875 765.37109375 c 0
 312.325195312 778.081054688 315.305664062 789.090820312 325.4453125 793.331054688 c 0
 378.225585938 811.9609375 406.10546875 824.670898438 475.655273438 872.970703125 c 1
 526.435546875 824.670898438 549.375976562 811.9609375 594.90625 793.331054688 c 0
 603.40625 789.090820312 602.106445312 778.081054688 599.646484375 765.37109375 c 0
 594.2265625 737.411132812 577.586914062 712.840820312 552.166992188 712.840820312 c 0
 503.8671875 712.840820312 475.637695312 759.440429688 461.677734375 800.950195312 c 1
EndSplineSet
Substitution2: "'c2sc' Capitals to Small Capitals in Latin lookup 11 subtable" Ccircumflex.sc
AlternateSubs2: "'aalt' Access All Alternates in Latin lookup 0 subtable" Ccircumflex.sc
Position2: "'cpsp' Capital Spacing in Latin lookup 0 subtable" dx=5 dy=0 dh=10 dv=0
EndChar

StartChar: Cdotaccent
Encoding: 266 266 40
Width: 649
GlyphClass: 2
Flags: MW
HStem: -11 57.5<263.06 391.358> 621 50<360.96 485.71>
VStem: 44 129 393.19 136.15 555 111.3
AnchorPoint: "Anchor-5" 470 845 basechar 0
AnchorPoint: "Anchor-4" 311 0 basechar 0
LayerCount: 2
Fore
SplineSet
630.709960938 209.5 m 2
 637.620117188 206.5 640.038085938 203.5 635.078125 196 c 0
 579.938476562 97.5 473.858398438 -11 308.858398438 -11 c 0
 102.858398438 -11 15.048828125 134 51.7890625 323 c 0
 80.359375 470 195.4296875 671 444.4296875 671 c 0
 641.9296875 671 673.870117188 519 666.290039062 480 c 0
 664.360351562 470 660.190429688 466.5 651.200195312 464 c 2
 561.580078125 435 l 2
 546.709960938 430.5 541.700195312 433 543.33984375 441.5 c 0
 544.700195312 448.5 548.919921875 460 551.939453125 475.5 c 0
 564.469726562 540 540.709960938 621 430.709960938 621 c 0
 291.209960938 621 205.290039062 467 184.599609375 360.5 c 0
 148.33984375 174 194.059570312 46.5 332.059570312 46.5 c 0
 468.559570312 46.5 547.26953125 132.5 591.619140625 211.5 c 0
 598.059570312 221.5 602.75 222.5 610.459960938 218.5 c 2
 630.709960938 209.5 l 2
473.877929688 852.650390625 m 0xf8
 490.2578125 849.48046875 502.336914062 840.76953125 515.52734375 821.209960938 c 0
 528.716796875 801.66015625 532.466796875 788.180664062 529.296875 771.810546875 c 0
 526.1171875 755.430664062 516.3671875 743.520507812 498.037109375 731.150390625 c 0
 478.487304688 717.959960938 463.987304688 714.41015625 447.607421875 717.580078125 c 0
 432.2578125 720.5703125 421.177734375 729.08984375 406.967773438 748.849609375 c 0
 393.578125 767.379882812 390.028320312 781.879882812 393.208007812 798.25 c 0
 396.377929688 814.629882812 404.908203125 825.709960938 424.478515625 838.900390625 c 0
 444.028320312 852.090820312 458.528320312 855.640625 473.877929688 852.650390625 c 0xf8
EndSplineSet
Substitution2: "'c2sc' Capitals to Small Capitals in Latin lookup 11 subtable" Cdotaccent.sc
AlternateSubs2: "'aalt' Access All Alternates in Latin lookup 0 subtable" Cdotaccent.sc
Position2: "'cpsp' Capital Spacing in Latin lookup 0 subtable" dx=5 dy=0 dh=10 dv=0
EndChar

StartChar: D
Encoding: 68 68 41
Width: 660
GlyphClass: 2
Flags: MW
HStem: 0 43<-6.46875 12.3809 6.38086 12.3809 12.3809 31.3809 6.38086 258.031> 0 47<220.16 258.031> 617 43<126.28 139.431 294.45 294.45 294.45 335.45>
VStem: 547 112
AnchorPoint: "Anchor-5" 375 660 basechar 0
AnchorPoint: "Anchor-4" 259 0 basechar 0
LayerCount: 2
Fore
SplineSet
362.280273438 660 m 2x70
 572.280273438 660 691.000976562 535 651.361328125 331 c 0
 610.541015625 121 459.03125 0 258.03125 0 c 2
 -1.96875 0 l 2
 -10.96875 0 -15.1787109375 4 -13.4287109375 13 c 2x70
 -10.12890625 30 l 2
 -8.5791015625 38 -2.609375 43 6.380859375 43 c 2
 12.380859375 43 l 2
 50.380859375 43 77.390625 74 87.490234375 126 c 2xb0
 166.790039062 534 l 2
 177.48046875 589 160.930664062 617 117.930664062 617 c 0
 108.930664062 617 104.900390625 622 106.450195312 630 c 2
 109.75 647 l 2
 111.5 656 117.280273438 660 126.280273438 660 c 2
 362.280273438 660 l 2x70
198.23046875 122 m 2
 189.30078125 76 191.66015625 47 248.66015625 47 c 0
 393.66015625 47 501.23046875 140 538.360351562 331 c 0
 571.400390625 501 506.450195312 617 335.450195312 617 c 2
 294.450195312 617 l 1
 198.23046875 122 l 2
EndSplineSet
Substitution2: "'ss04' Style Set 4 in Latin lookup 33 subtable" u1F153
Substitution2: "'ss03' Style Set 3 in Latin lookup 31 subtable" uni24B9
Substitution2: "'c2sc' Capitals to Small Capitals in Latin lookup 11 subtable" D.sc
AlternateSubs2: "'aalt' Access All Alternates in Latin lookup 0 subtable" D.sc uni24B9 u1F153
Position2: "'cpsp' Capital Spacing in Latin lookup 0 subtable" dx=5 dy=0 dh=10 dv=0
EndChar

StartChar: uni01C4
Encoding: 452 452 42
Width: 1307
GlyphClass: 2
Flags: MW
HStem: -12 21G 0 43<-6.49902 12.3604 6.36035 12.3604 12.3604 31.3604 6.36035 258.001> 0 47<220.142 258.001> 617 43<126.29 139.431 294.432 294.432 294.432 335.432> 717 160
VStem: 547 112 991 294
AnchorPoint: "Anchor-5" 1148 845 basechar 0
AnchorPoint: "Anchor-4" 909 0 basechar 0
LayerCount: 2
Fore
SplineSet
362.290039062 660 m 2x5e
 572.290039062 660 690.9921875 535 651.341796875 331 c 0
 610.521484375 121 459.000976562 0 258.000976562 0 c 2
 -1.9990234375 0 l 2
 -10.9990234375 0 -15.21875 4 -13.46875 13 c 2
 -10.1689453125 30 l 2
 -8.609375 38 -2.6396484375 43 6.3603515625 43 c 2
 12.3603515625 43 l 2
 50.3603515625 43 77.3798828125 74 87.490234375 126 c 2
 166.799804688 534 l 2
 177.490234375 589 160.930664062 617 117.930664062 617 c 0
 108.930664062 617 104.900390625 622 106.459960938 630 c 2
 109.759765625 647 l 2
 111.509765625 656 117.290039062 660 126.290039062 660 c 2
 362.290039062 660 l 2x5e
198.211914062 122 m 2
 189.271484375 76 191.641601562 47 248.641601562 47 c 0x3e
 393.641601562 47 501.211914062 140 538.341796875 331 c 0
 571.391601562 501 506.431640625 617 335.431640625 617 c 2
 294.431640625 617 l 1
 198.211914062 122 l 2
1270.3515625 151 m 2
 1275.671875 147.5 1275.98046875 144 1275.40039062 141 c 0
 1274.81054688 138 1273.43066406 136 1270.84082031 133 c 2
 1174.2109375 -4 l 2
 1170.24121094 -9 1166.8515625 -11 1161.8515625 -11 c 0x9e
 1159.8515625 -11 1156.8515625 -11 1154.24121094 -9 c 2
 1151.2109375 -4 l 2
 1147.99121094 0 1140.99121094 0 1134.99121094 0 c 2
 634.991210938 0 l 2x5e
 626.991210938 0 622.771484375 4 624.521484375 13 c 2
 631.131835938 47 l 2
 632.291992188 53 635.961914062 59 640.431640625 64 c 2
 1174.90136719 604 l 1
 977.401367188 604 l 2
 897.401367188 604 854.301757812 567.5 802.391601562 516.5 c 2
 798.611328125 512.5 l 2
 793.641601562 507.5 790.061523438 504.5 786.061523438 504.5 c 0
 784.061523438 504.5 781.151367188 505 778.44140625 506.5 c 2
 758.87109375 519 l 2
 754.87109375 521.5 753.05078125 525 753.831054688 529 c 0
 754.411132812 532 755.80078125 534 758.380859375 537 c 2
 852.071289062 664 l 2
 856.241210938 670 860.431640625 671 865.431640625 671 c 0
 868.431640625 671 870.431640625 671 876.071289062 664 c 0
 880.291015625 660 886.291015625 660 892.291015625 660 c 2
 1353.29101562 660 l 2
 1357.29101562 660 1357.90136719 658 1357.51171875 656 c 2
 1356.54199219 651 l 2
 1355.96191406 648 1352.18164062 644 1349.6015625 641 c 2
 780.631835938 65 l 1
 933.631835938 65 l 2
 1097.63183594 65 1169.01171875 87.5 1223.53222656 154.5 c 2
 1227.50195312 159.5 l 2
 1231.48242188 164.5 1236.0625 167.5 1240.0625 167.5 c 0
 1243.0625 167.5 1244.96191406 167 1247.671875 165.5 c 2
 1270.3515625 151 l 2
1130.74023438 789.040039062 m 1
 1160.85058594 830.559570312 1207.20117188 877.170898438 1255.50097656 877.170898438 c 0
 1280.93066406 877.170898438 1288.01074219 852.590820312 1282.58105469 824.630859375 c 0
 1280.11132812 811.920898438 1277.11132812 800.901367188 1266.9609375 796.670898438 c 0
 1214.19042969 778.020507812 1186.30078125 765.310546875 1116.74023438 717.010742188 c 1
 1065.96972656 765.310546875 1043.00976562 778.020507812 997.490234375 796.670898438 c 0
 988.990234375 800.901367188 990.280273438 811.920898438 992.75 824.630859375 c 0
 998.190429688 852.590820312 1014.83007812 877.170898438 1040.25 877.170898438 c 0
 1088.56054688 877.170898438 1116.78027344 830.560546875 1130.74023438 789.040039062 c 1
EndSplineSet
Substitution2: "'c2sc' Capitals to Small Capitals in Latin lookup 11 subtable" uni01C4.sc
AlternateSubs2: "'aalt' Access All Alternates in Latin lookup 0 subtable" uni01C4.sc
Position2: "'cpsp' Capital Spacing in Latin lookup 0 subtable" dx=5 dy=0 dh=10 dv=0
EndChar

StartChar: Dcaron
Encoding: 270 270 43
Width: 660
GlyphClass: 2
Flags: MW
HStem: 0 43<-6.46875 12.3809 6.38086 12.3809 12.3809 31.3809 6.38086 258.031> 0 47<220.16 258.031> 617 43<126.28 139.431 294.45 294.45 294.45 335.45>
VStem: 547 112
AnchorPoint: "Anchor-5" 418 845 basechar 0
AnchorPoint: "Anchor-4" 259 0 basechar 0
LayerCount: 2
Fore
SplineSet
362.280273438 660 m 2x70
 572.280273438 660 691.000976562 535 651.361328125 331 c 0
 610.541015625 121 459.03125 0 258.03125 0 c 2
 -1.96875 0 l 2
 -10.96875 0 -15.1787109375 4 -13.4287109375 13 c 2x70
 -10.12890625 30 l 2
 -8.5791015625 38 -2.609375 43 6.380859375 43 c 2
 12.380859375 43 l 2
 50.380859375 43 77.390625 74 87.490234375 126 c 2xb0
 166.790039062 534 l 2
 177.48046875 589 160.930664062 617 117.930664062 617 c 0
 108.930664062 617 104.900390625 622 106.450195312 630 c 2
 109.75 647 l 2
 111.5 656 117.280273438 660 126.280273438 660 c 2
 362.280273438 660 l 2x70
198.23046875 122 m 2
 189.30078125 76 191.66015625 47 248.66015625 47 c 0
 393.66015625 47 501.23046875 140 538.360351562 331 c 0
 571.400390625 501 506.450195312 617 335.450195312 617 c 2
 294.450195312 617 l 1
 198.23046875 122 l 2
400.76953125 789.030273438 m 1
 430.869140625 830.540039062 477.208007812 877.139648438 525.5078125 877.139648438 c 0
 550.927734375 877.139648438 557.998046875 852.569335938 552.578125 824.609375 c 0
 550.118164062 811.899414062 547.127929688 800.889648438 536.98828125 796.659179688 c 0
 484.228515625 778.01953125 456.338867188 765.309570312 386.7890625 717.009765625 c 1
 336.01953125 765.309570312 313.069335938 778.01953125 267.559570312 796.659179688 c 0
 259.059570312 800.889648438 260.33984375 811.899414062 262.799804688 824.609375 c 0
 268.240234375 852.569335938 284.879882812 877.139648438 310.290039062 877.139648438 c 0
 358.58984375 877.139648438 386.809570312 830.540039062 400.76953125 789.030273438 c 1
EndSplineSet
Substitution2: "'c2sc' Capitals to Small Capitals in Latin lookup 11 subtable" Dcaron.sc
AlternateSubs2: "'aalt' Access All Alternates in Latin lookup 0 subtable" Dcaron.sc
Position2: "'cpsp' Capital Spacing in Latin lookup 0 subtable" dx=5 dy=0 dh=10 dv=0
EndChar

StartChar: Dcroat
Encoding: 272 272 44
Width: 695
GlyphClass: 2
Flags: MW
HStem: 0 43<-6.47852 12.3711 6.37109 12.3711 12.3711 31.3711 6.37109 258.021> 0 47<220.151 258.021> 287 73<35.5 132.99 40.0205 118.78 244.491 401.011> 617 43<126.301 139.451 294.441 294.441 294.441 335.441>
VStem: 547 112
AnchorPoint: "Anchor-5" 375 660 basechar 0
AnchorPoint: "Anchor-4" 259 0 basechar 0
LayerCount: 2
Fore
SplineSet
40 287 m 2x78
 31 287 26.0205078125 292 26.0205078125 300 c 2
 26.0205078125 346 l 2
 26.0205078125 355 31.0205078125 360 40.0205078125 360 c 2
 132.990234375 360 l 1
 166.810546875 534 l 2
 177.500976562 589 160.951171875 617 117.951171875 617 c 0
 108.951171875 617 104.920898438 622 106.470703125 630 c 2
 109.770507812 647 l 2
 111.520507812 656 117.30078125 660 126.30078125 660 c 2
 362.30078125 660 l 2
 572.30078125 660 690.991210938 535 651.3515625 331 c 0
 610.53125 121 459.021484375 0 258.021484375 0 c 2
 -1.978515625 0 l 2
 -10.978515625 0 -15.1884765625 4 -13.4384765625 13 c 2x78
 -10.138671875 30 l 2
 -8.5888671875 38 -2.619140625 43 6.37109375 43 c 2
 12.37109375 43 l 2
 50.37109375 43 77.380859375 74 87.48046875 126 c 2xb8
 118.780273438 287 l 1
 40 287 l 2x78
198.220703125 122 m 2
 189.291015625 76 191.651367188 47 248.651367188 47 c 0
 393.651367188 47 501.221679688 140 538.3515625 331 c 0
 571.391601562 501 506.44140625 617 335.44140625 617 c 2
 294.44140625 617 l 1
 244.491210938 360 l 1
 401.010742188 360 l 2
 410.010742188 360 414.010742188 355 414.010742188 346 c 2
 414.010742188 300 l 2
 414.010742188 292 410.010742188 287 401.010742188 287 c 2
 230.30078125 287 l 1
 198.220703125 122 l 2
EndSplineSet
Substitution2: "'c2sc' Capitals to Small Capitals in Latin lookup 11 subtable" Dcroat.sc
AlternateSubs2: "'aalt' Access All Alternates in Latin lookup 0 subtable" Dcroat.sc
Position2: "'cpsp' Capital Spacing in Latin lookup 0 subtable" dx=5 dy=0 dh=10 dv=0
EndChar

StartChar: uni1E0C
Encoding: 7692 7692 45
Width: 660
GlyphClass: 2
Flags: MW
HStem: 0 43<-6.46875 12.3809 6.38086 12.3809 12.3809 31.3809 6.38086 258.031> 0 47<220.16 258.031> 617 43<126.28 139.431 294.45 294.45 294.45 335.45>
VStem: 172.02 136.15 547 112
AnchorPoint: "Anchor-5" 375 660 basechar 0
AnchorPoint: "Anchor-4" 259 0 basechar 0
LayerCount: 2
Fore
SplineSet
362.280273438 660 m 2x68
 572.280273438 660 691.000976562 535 651.361328125 331 c 0
 610.541015625 121 459.03125 0 258.03125 0 c 2
 -1.96875 0 l 2
 -10.96875 0 -15.1787109375 4 -13.4287109375 13 c 2x68
 -10.12890625 30 l 2
 -8.5791015625 38 -2.609375 43 6.380859375 43 c 2
 12.380859375 43 l 2
 50.380859375 43 77.390625 74 87.490234375 126 c 2xa8
 166.790039062 534 l 2
 177.48046875 589 160.930664062 617 117.930664062 617 c 0
 108.930664062 617 104.900390625 622 106.450195312 630 c 2
 109.75 647 l 2
 111.5 656 117.280273438 660 126.280273438 660 c 2
 362.280273438 660 l 2x68
198.23046875 122 m 2
 189.30078125 76 191.66015625 47 248.66015625 47 c 0
 393.66015625 47 501.23046875 140 538.360351562 331 c 0
 571.400390625 501 506.450195312 617 335.450195312 617 c 2
 294.450195312 617 l 1
 198.23046875 122 l 2
252.739257812 -53.98046875 m 0x78
 269.109375 -57.1708984375 281.208984375 -65.890625 294.399414062 -85.4501953125 c 0
 307.58984375 -105 311.349609375 -118.48046875 308.159179688 -134.850585938 c 0
 304.989257812 -151.23046875 295.229492188 -163.140625 276.899414062 -175.510742188 c 0
 257.349609375 -188.701171875 242.849609375 -192.250976562 226.479492188 -189.060546875 c 0
 211.129882812 -186.080078125 200.049804688 -177.560546875 185.830078125 -157.80078125 c 0
 172.440429688 -139.270507812 168.900390625 -124.760742188 172.0703125 -108.390625 c 0
 175.240234375 -92.0205078125 183.759765625 -80.9306640625 203.330078125 -67.740234375 c 0
 222.889648438 -54.5498046875 237.389648438 -51 252.739257812 -53.98046875 c 0x78
EndSplineSet
Substitution2: "'c2sc' Capitals to Small Capitals in Latin lookup 11 subtable" uni1E0C.sc
AlternateSubs2: "'aalt' Access All Alternates in Latin lookup 0 subtable" uni1E0C.sc
Position2: "'cpsp' Capital Spacing in Latin lookup 0 subtable" dx=5 dy=0 dh=10 dv=0
EndChar

StartChar: uni1E0E
Encoding: 7694 7694 46
Width: 660
GlyphClass: 2
Flags: MW
HStem: -138 64<117.641 360.569 134.569 348.141> 0 43<-6.46875 12.3809 6.38086 12.3809 12.3809 31.3809 6.38086 258.031> 0 47<220.16 258.031> 617 43<126.28 139.431 294.45 294.45 294.45 335.45>
VStem: 547 112
AnchorPoint: "Anchor-5" 375 660 basechar 0
AnchorPoint: "Anchor-4" 259 0 basechar 0
LayerCount: 2
Fore
SplineSet
362.280273438 660 m 2xb8
 572.280273438 660 691.000976562 535 651.361328125 331 c 0
 610.541015625 121 459.03125 0 258.03125 0 c 2
 -1.96875 0 l 2
 -10.96875 0 -15.1787109375 4 -13.4287109375 13 c 2xb8
 -10.12890625 30 l 2
 -8.5791015625 38 -2.609375 43 6.380859375 43 c 2
 12.380859375 43 l 2
 50.380859375 43 77.390625 74 87.490234375 126 c 2xd8
 166.790039062 534 l 2
 177.48046875 589 160.930664062 617 117.930664062 617 c 0
 108.930664062 617 104.900390625 622 106.450195312 630 c 2
 109.75 647 l 2
 111.5 656 117.280273438 660 126.280273438 660 c 2
 362.280273438 660 l 2xb8
198.23046875 122 m 2
 189.30078125 76 191.66015625 47 248.66015625 47 c 0
 393.66015625 47 501.23046875 140 538.360351562 331 c 0
 571.400390625 501 506.450195312 617 335.450195312 617 c 2
 294.450195312 617 l 1
 198.23046875 122 l 2
363.649414062 -125 m 2
 362.099609375 -133 357.140625 -138 348.140625 -138 c 2
 122.140625 -138 l 2
 113.140625 -138 110.110351562 -133 111.66015625 -125 c 2
 119.049804688 -87 l 2
 120.799804688 -78 125.569335938 -74 134.569335938 -74 c 2
 360.569335938 -74 l 2
 369.569335938 -74 372.7890625 -78 371.0390625 -87 c 2
 363.649414062 -125 l 2
EndSplineSet
Substitution2: "'c2sc' Capitals to Small Capitals in Latin lookup 11 subtable" uni1E0E.sc
AlternateSubs2: "'aalt' Access All Alternates in Latin lookup 0 subtable" uni1E0E.sc
Position2: "'cpsp' Capital Spacing in Latin lookup 0 subtable" dx=5 dy=0 dh=10 dv=0
EndChar

StartChar: uni01C5
Encoding: 453 453 47
Width: 1125
GlyphClass: 2
Flags: MW
HStem: -12 21G 0 43<-6.49902 12.3604 6.36035 12.3604 12.3604 31.3604 6.36035 258.001> 0 47<220.142 258.001> 431 20G 497 160 617 43<126.29 139.431 294.432 294.432 294.432 335.432>
VStem: 547 112 833 294
AnchorPoint: "Anchor-5" 990 625 basechar 0
AnchorPoint: "Anchor-4" 843 0 basechar 0
LayerCount: 2
Fore
SplineSet
362.290039062 660 m 2x57
 572.290039062 660 690.9921875 535 651.341796875 331 c 0
 610.521484375 121 459.000976562 0 258.000976562 0 c 2
 -1.9990234375 0 l 2
 -10.9990234375 0 -15.21875 4 -13.46875 13 c 2
 -10.1689453125 30 l 2
 -8.609375 38 -2.6396484375 43 6.3603515625 43 c 2
 12.3603515625 43 l 2
 50.3603515625 43 77.3798828125 74 87.490234375 126 c 2
 166.799804688 534 l 2
 177.490234375 589 160.930664062 617 117.930664062 617 c 0
 108.930664062 617 104.900390625 622 106.459960938 630 c 2
 109.759765625 647 l 2
 111.509765625 656 117.290039062 660 126.290039062 660 c 2
 362.290039062 660 l 2x57
198.211914062 122 m 2
 189.271484375 76 191.641601562 47 248.641601562 47 c 0x37
 393.641601562 47 501.211914062 140 538.341796875 331 c 0
 571.391601562 501 506.431640625 617 335.431640625 617 c 2
 294.431640625 617 l 1
 198.211914062 122 l 2
1092.27148438 130 m 2
 1098.671875 125.83984375 1099.37011719 119.189453125 1093.75976562 111.999023438 c 2
 1003.20996094 -4.0009765625 l 2
 999.290039062 -9.03125 994.849609375 -11.0009765625 990.849609375 -11.0009765625 c 0x97
 986.849609375 -11.0009765625 986.989257812 -10.87109375 980.208984375 -4.0009765625 c 0
 976.12890625 0.138671875 970.989257812 -0.0009765625 964.989257812 -0.0009765625 c 2
 630.989257812 -0.0009765625 l 2x57
 621.989257812 -0.0009765625 618.76953125 3.9990234375 620.51953125 12.9990234375 c 2
 625.959960938 40.9990234375 l 2
 626.740234375 44.9990234375 627.350585938 48.62890625 629.900390625 50.9990234375 c 2
 993.600585938 388.999023438 l 1
 874.770507812 388.999023438 l 2
 816.600585938 388.999023438 773.200195312 364.138671875 733.290039062 312.008789062 c 2
 727.9296875 305.008789062 l 2
 720.330078125 295.088867188 717.610351562 294.12890625 708.950195312 300.008789062 c 2
 694.25 310.008789062 l 2
 687.030273438 314.909179688 687.150390625 319.909179688 693.75 327.999023438 c 2
 788.299804688 443.999023438 l 2
 791.759765625 448.249023438 795.66015625 450.999023438 800.66015625 450.999023438 c 0
 803.66015625 450.999023438 805.419921875 450.819335938 810.299804688 443.999023438 c 0
 813.299804688 439.80859375 819.530273438 439.999023438 825.530273438 439.999023438 c 2
 1136.58984375 439.999023438 l 2
 1141.74023438 439.999023438 1141.97070312 437.12890625 1141.19042969 433.12890625 c 0
 1140.61035156 430.12890625 1138.8203125 427.19921875 1135.42089844 423.999023438 c 2
 738.911132812 50.9990234375 l 1
 860.53125 50.9990234375 l 2
 921.53125 50.9990234375 997.141601562 56.5693359375 1055.20117188 129.649414062 c 2
 1059.17089844 134.649414062 l 2
 1069.19042969 147.259765625 1076.88085938 140 1078.95117188 138.650390625 c 2
 1092.27148438 130 l 2
972.979492188 569.040039062 m 1
 1003.07910156 610.559570312 1049.43066406 657.170898438 1097.73046875 657.170898438 c 0
 1123.15039062 657.170898438 1130.24023438 632.590820312 1124.79980469 604.630859375 c 0
 1122.33007812 591.920898438 1119.35058594 580.901367188 1109.20019531 576.670898438 c 0
 1056.43066406 558.020507812 1028.53027344 545.310546875 958.98046875 497.010742188 c 1
 908.200195312 545.310546875 885.25 558.020507812 839.719726562 576.670898438 c 0
 831.229492188 580.901367188 832.51953125 591.920898438 834.989257812 604.630859375 c 0
 840.4296875 632.590820312 857.069335938 657.170898438 882.489257812 657.170898438 c 0x5b
 930.7890625 657.170898438 959.01953125 610.560546875 972.979492188 569.040039062 c 1
EndSplineSet
Substitution2: "'c2sc' Capitals to Small Capitals in Latin lookup 11 subtable" uni01C5.sc
AlternateSubs2: "'aalt' Access All Alternates in Latin lookup 0 subtable" uni01C5.sc
Position2: "'cpsp' Capital Spacing in Latin lookup 0 subtable" dx=5 dy=0 dh=10 dv=0
EndChar

StartChar: Eth
Encoding: 208 208 48
Width: 695
GlyphClass: 2
Flags: MW
HStem: 0 43<-6.47852 12.3711 6.37109 12.3711 12.3711 31.3711 6.37109 258.021> 0 47<220.151 258.021> 287 73<35.5 132.99 40.0205 118.78 244.491 401.011> 617 43<126.301 139.451 294.441 294.441 294.441 335.441>
VStem: 547 112
AnchorPoint: "Anchor-5" 375 660 basechar 0
AnchorPoint: "Anchor-4" 259 0 basechar 0
LayerCount: 2
Fore
SplineSet
40 287 m 2x78
 31 287 26.0205078125 292 26.0205078125 300 c 2
 26.0205078125 346 l 2
 26.0205078125 355 31.0205078125 360 40.0205078125 360 c 2
 132.990234375 360 l 1
 166.810546875 534 l 2
 177.500976562 589 160.951171875 617 117.951171875 617 c 0
 108.951171875 617 104.920898438 622 106.470703125 630 c 2
 109.770507812 647 l 2
 111.520507812 656 117.30078125 660 126.30078125 660 c 2
 362.30078125 660 l 2
 572.30078125 660 690.991210938 535 651.3515625 331 c 0
 610.53125 121 459.021484375 0 258.021484375 0 c 2
 -1.978515625 0 l 2
 -10.978515625 0 -15.1884765625 4 -13.4384765625 13 c 2x78
 -10.138671875 30 l 2
 -8.5888671875 38 -2.619140625 43 6.37109375 43 c 2
 12.37109375 43 l 2
 50.37109375 43 77.380859375 74 87.48046875 126 c 2xb8
 118.780273438 287 l 1
 40 287 l 2x78
198.220703125 122 m 2
 189.291015625 76 191.651367188 47 248.651367188 47 c 0
 393.651367188 47 501.221679688 140 538.3515625 331 c 0
 571.391601562 501 506.44140625 617 335.44140625 617 c 2
 294.44140625 617 l 1
 244.491210938 360 l 1
 401.010742188 360 l 2
 410.010742188 360 414.010742188 355 414.010742188 346 c 2
 414.010742188 300 l 2
 414.010742188 292 410.010742188 287 401.010742188 287 c 2
 230.30078125 287 l 1
 198.220703125 122 l 2
EndSplineSet
Substitution2: "'c2sc' Capitals to Small Capitals in Latin lookup 11 subtable" Eth.sc
AlternateSubs2: "'aalt' Access All Alternates in Latin lookup 0 subtable" Eth.sc
Position2: "'cpsp' Capital Spacing in Latin lookup 0 subtable" dx=5 dy=0 dh=10 dv=0
EndChar

StartChar: E
Encoding: 69 69 49
Width: 644
GlyphClass: 2
Flags: MW
HStem: 0 43<-6.44531 7.4043 6.4043 7.4043 7.4043 28.9043 6.4043 459.055> 0 52<249.641 316.141 316.141 380.641> 325 56<248.602 333.201 237.701 344.102> 608 52<292.722 453.222 292.722 292.722> 616 44<126.313 139.774> 651 20G<576.933 580.433>
VStem: -14 649 430.1 42.59
AnchorPoint: "Anchor-6" 469 0 basechar 0
AnchorPoint: "Anchor-5" 397 660 basechar 0
AnchorPoint: "Anchor-4" 277 0 basechar 0
LayerCount: 2
Fore
SplineSet
613.629882812 188.5 m 2x72
 621.759765625 184 620.815429688 179 615.075195312 170 c 2
 498.254882812 -4 l 2
 494.594726562 -10 490.705078125 -12 486.705078125 -12 c 0
 483.705078125 -12 481.294921875 -11.5 479.294921875 -9 c 2
 476.264648438 -4 l 2
 473.444335938 -0.5 470.0546875 0 459.0546875 0 c 2
 -1.9453125 0 l 2
 -10.9453125 0 -15.1552734375 4 -13.4052734375 13 c 2x72
 -10.10546875 30 l 2
 -8.5556640625 38 -1.5859375 43 6.404296875 43 c 2
 7.404296875 43 l 2
 50.404296875 43 76.654296875 70 87.5244140625 126 c 2
 166.64453125 533 l 2
 177.32421875 588 161.774414062 616 117.774414062 616 c 0
 109.774414062 616 104.944335938 622 106.494140625 630 c 2xaa
 109.59375 646 l 2
 111.34375 655 117.313476562 660 126.313476562 660 c 2
 546.313476562 660 l 2x72
 555.313476562 660 559.403320312 660.5 564.073242188 664 c 2
 570.04296875 669 l 2
 572.432617188 671 575.432617188 671 578.432617188 671 c 0
 582.432617188 671 586.032226562 669 588.051757812 664 c 2x66
 633.921875 545 l 2
 635.33203125 542 635.751953125 539 635.362304688 537 c 0
 634.392578125 532 630.72265625 528.5 626.2421875 526 c 2
 598.532226562 512 l 2
 592.952148438 509 590.772460938 508 587.772460938 508 c 0
 583.772460938 508 581.352539062 511 579.322265625 516 c 2
 577.301757812 521 l 2
 549.83203125 588 521.221679688 608 453.221679688 608 c 2
 292.721679688 608 l 1
 248.6015625 381 l 1
 344.1015625 381 l 2
 392.1015625 381 421.991210938 401 429.561523438 440 c 2
 430.721679688 446 l 2
 432.471679688 455 437.251953125 459 446.251953125 459 c 2
 462.251953125 459 l 2
 471.251953125 459 474.461914062 455 472.711914062 446 c 2
 436.751953125 261 l 2
 435.001953125 252 430.2421875 248 421.2421875 248 c 2
 405.2421875 248 l 2
 396.2421875 248 393.01171875 252 394.76171875 261 c 2
 395.741210938 266 l 2x71
 403.500976562 306 382.201171875 325 333.201171875 325 c 2
 237.701171875 325 l 1
 200.970703125 136 l 2
 190.470703125 82 210.640625 52 249.640625 52 c 2
 316.140625 52 l 2
 445.140625 52 496.870117188 81.5 571.259765625 189 c 2
 575.419921875 195 l 2
 579.6796875 201.5 587.759765625 204.5 594.879882812 200 c 2
 613.629882812 188.5 l 2x72
EndSplineSet
Substitution2: "'ss04' Style Set 4 in Latin lookup 33 subtable" u1F154
Substitution2: "'ss03' Style Set 3 in Latin lookup 31 subtable" uni24BA
Substitution2: "'c2sc' Capitals to Small Capitals in Latin lookup 11 subtable" E.sc
AlternateSubs2: "'aalt' Access All Alternates in Latin lookup 0 subtable" E.sc uni24BA u1F154
Position2: "'cpsp' Capital Spacing in Latin lookup 0 subtable" dx=5 dy=0 dh=10 dv=0
EndChar

StartChar: Eacute
Encoding: 201 201 50
Width: 644
GlyphClass: 2
Flags: MW
HStem: 0 43<-6.44531 7.4043 6.4043 7.4043 7.4043 28.9043 6.4043 459.055> 0 52<249.641 316.141 316.141 380.641> 325 56<248.602 333.201 237.701 344.102> 608 52<292.722 453.222 292.722 292.722> 616 44<126.313 139.774> 651 20G<576.933 580.433>
VStem: -14 649 430.1 42.59
AnchorPoint: "Anchor-6" 469 0 basechar 0
AnchorPoint: "Anchor-5" 476 899 basechar 0
AnchorPoint: "Anchor-4" 277 0 basechar 0
LayerCount: 2
Fore
SplineSet
613.629882812 188.5 m 2x72
 621.759765625 184 620.815429688 179 615.075195312 170 c 2
 498.254882812 -4 l 2
 494.594726562 -10 490.705078125 -12 486.705078125 -12 c 0
 483.705078125 -12 481.294921875 -11.5 479.294921875 -9 c 2
 476.264648438 -4 l 2
 473.444335938 -0.5 470.0546875 0 459.0546875 0 c 2
 -1.9453125 0 l 2
 -10.9453125 0 -15.1552734375 4 -13.4052734375 13 c 2x72
 -10.10546875 30 l 2
 -8.5556640625 38 -1.5859375 43 6.404296875 43 c 2
 7.404296875 43 l 2
 50.404296875 43 76.654296875 70 87.5244140625 126 c 2
 166.64453125 533 l 2
 177.32421875 588 161.774414062 616 117.774414062 616 c 0
 109.774414062 616 104.944335938 622 106.494140625 630 c 2xaa
 109.59375 646 l 2
 111.34375 655 117.313476562 660 126.313476562 660 c 2
 546.313476562 660 l 2x72
 555.313476562 660 559.403320312 660.5 564.073242188 664 c 2
 570.04296875 669 l 2
 572.432617188 671 575.432617188 671 578.432617188 671 c 0
 582.432617188 671 586.032226562 669 588.051757812 664 c 2x66
 633.921875 545 l 2
 635.33203125 542 635.751953125 539 635.362304688 537 c 0
 634.392578125 532 630.72265625 528.5 626.2421875 526 c 2
 598.532226562 512 l 2
 592.952148438 509 590.772460938 508 587.772460938 508 c 0
 583.772460938 508 581.352539062 511 579.322265625 516 c 2
 577.301757812 521 l 2
 549.83203125 588 521.221679688 608 453.221679688 608 c 2
 292.721679688 608 l 1
 248.6015625 381 l 1
 344.1015625 381 l 2
 392.1015625 381 421.991210938 401 429.561523438 440 c 2
 430.721679688 446 l 2
 432.471679688 455 437.251953125 459 446.251953125 459 c 2
 462.251953125 459 l 2
 471.251953125 459 474.461914062 455 472.711914062 446 c 2
 436.751953125 261 l 2
 435.001953125 252 430.2421875 248 421.2421875 248 c 2
 405.2421875 248 l 2
 396.2421875 248 393.01171875 252 394.76171875 261 c 2
 395.741210938 266 l 2x71
 403.500976562 306 382.201171875 325 333.201171875 325 c 2
 237.701171875 325 l 1
 200.970703125 136 l 2
 190.470703125 82 210.640625 52 249.640625 52 c 2
 316.140625 52 l 2
 445.140625 52 496.870117188 81.5 571.259765625 189 c 2
 575.419921875 195 l 2
 579.6796875 201.5 587.759765625 204.5 594.879882812 200 c 2
 613.629882812 188.5 l 2x72
348.745117188 729.08984375 m 1
 414.794921875 795.689453125 432.736328125 820.41015625 465.356445312 872.91015625 c 0
 472.06640625 883.240234375 484.616210938 885.220703125 495.99609375 885.220703125 c 0
 526.345703125 885.220703125 542.715820312 871.020507812 537.435546875 843.880859375 c 0
 526.205078125 786.100585938 448.084960938 745.5703125 391.745117188 718.25 c 0
 387.325195312 716.25 382.844726562 714.33984375 379.14453125 714.479492188 c 0
 376.134765625 714.639648438 372.524414062 716.229492188 368.254882812 718.559570312 c 2
 348.745117188 729.08984375 l 1
EndSplineSet
Substitution2: "'c2sc' Capitals to Small Capitals in Latin lookup 11 subtable" Eacute.sc
AlternateSubs2: "'aalt' Access All Alternates in Latin lookup 0 subtable" Eacute.sc
Position2: "'cpsp' Capital Spacing in Latin lookup 0 subtable" dx=5 dy=0 dh=10 dv=0
EndChar

StartChar: Ebreve
Encoding: 276 276 51
Width: 644
GlyphClass: 2
Flags: MW
HStem: 0 43<-6.44531 7.4043 6.4043 7.4043 7.4043 28.9043 6.4043 459.055> 0 52<249.641 316.141 316.141 380.641> 325 56<248.602 333.201 237.701 344.102> 608 52<292.722 453.222 292.722 292.722> 616 44<126.313 139.774> 651 20G<576.933 580.433> 711 56.24
VStem: -14 649 430.1 42.59
AnchorPoint: "Anchor-6" 469 0 basechar 0
AnchorPoint: "Anchor-5" 429 825 basechar 0
AnchorPoint: "Anchor-4" 277 0 basechar 0
LayerCount: 2
Fore
SplineSet
613.629882812 188.5 m 2x73
 621.759765625 184 620.815429688 179 615.075195312 170 c 2
 498.254882812 -4 l 2
 494.594726562 -10 490.705078125 -12 486.705078125 -12 c 0
 483.705078125 -12 481.294921875 -11.5 479.294921875 -9 c 2
 476.264648438 -4 l 2
 473.444335938 -0.5 470.0546875 0 459.0546875 0 c 2
 -1.9453125 0 l 2
 -10.9453125 0 -15.1552734375 4 -13.4052734375 13 c 2x73
 -10.10546875 30 l 2
 -8.5556640625 38 -1.5859375 43 6.404296875 43 c 2
 7.404296875 43 l 2
 50.404296875 43 76.654296875 70 87.5244140625 126 c 2
 166.64453125 533 l 2
 177.32421875 588 161.774414062 616 117.774414062 616 c 0
 109.774414062 616 104.944335938 622 106.494140625 630 c 2xab
 109.59375 646 l 2
 111.34375 655 117.313476562 660 126.313476562 660 c 2
 546.313476562 660 l 2x73
 555.313476562 660 559.403320312 660.5 564.073242188 664 c 2
 570.04296875 669 l 2
 572.432617188 671 575.432617188 671 578.432617188 671 c 0
 582.432617188 671 586.032226562 669 588.051757812 664 c 2x67
 633.921875 545 l 2
 635.33203125 542 635.751953125 539 635.362304688 537 c 0
 634.392578125 532 630.72265625 528.5 626.2421875 526 c 2
 598.532226562 512 l 2
 592.952148438 509 590.772460938 508 587.772460938 508 c 0
 583.772460938 508 581.352539062 511 579.322265625 516 c 2
 577.301757812 521 l 2
 549.83203125 588 521.221679688 608 453.221679688 608 c 2
 292.721679688 608 l 1
 248.6015625 381 l 1
 344.1015625 381 l 2
 392.1015625 381 421.991210938 401 429.561523438 440 c 2
 430.721679688 446 l 2
 432.471679688 455 437.251953125 459 446.251953125 459 c 2
 462.251953125 459 l 2
 471.251953125 459 474.461914062 455 472.711914062 446 c 2
 436.751953125 261 l 2
 435.001953125 252 430.2421875 248 421.2421875 248 c 2
 405.2421875 248 l 2
 396.2421875 248 393.01171875 252 394.76171875 261 c 2
 395.741210938 266 l 2x7280
 403.500976562 306 382.201171875 325 333.201171875 325 c 2
 237.701171875 325 l 1
 200.970703125 136 l 2
 190.470703125 82 210.640625 52 249.640625 52 c 2
 316.140625 52 l 2
 445.140625 52 496.870117188 81.5 571.259765625 189 c 2
 575.419921875 195 l 2
 579.6796875 201.5 587.759765625 204.5 594.879882812 200 c 2
 613.629882812 188.5 l 2x73
407.245117188 711 m 1
 407.315429688 711 l 1
 316.815429688 711 287.1953125 782.83984375 294.745117188 821.740234375 c 0
 296.685546875 831.740234375 303.255859375 835.629882812 312.645507812 836.729492188 c 0
 323.905273438 837.959960938 343.485351562 840.169921875 351.985351562 840.509765625 c 0
 362.655273438 841.169921875 365.825195312 837.599609375 364.844726562 825.94921875 c 0
 362.455078125 789.21875 379.294921875 767.21875 418.205078125 767.21875 c 0
 457.60546875 767.21875 482.995117188 789.21875 494.884765625 825.94921875 c 0
 497.934570312 837.599609375 503.004882812 841.169921875 513.415039062 840.509765625 c 0
 521.28515625 840.169921875 540.495117188 837.959960938 550.775390625 836.729492188 c 0
 559.735351562 835.629882812 564.794921875 831.740234375 562.854492188 821.740234375 c 0
 555.3046875 782.83984375 498.245117188 711 407.245117188 711 c 1
EndSplineSet
Substitution2: "'c2sc' Capitals to Small Capitals in Latin lookup 11 subtable" Ebreve.sc
AlternateSubs2: "'aalt' Access All Alternates in Latin lookup 0 subtable" Ebreve.sc
Position2: "'cpsp' Capital Spacing in Latin lookup 0 subtable" dx=5 dy=0 dh=10 dv=0
EndChar

StartChar: Ecaron
Encoding: 282 282 52
Width: 644
GlyphClass: 2
Flags: MW
HStem: 0 43<-6.44531 7.4043 6.4043 7.4043 7.4043 28.9043 6.4043 459.055> 0 52<249.641 316.141 316.141 380.641> 325 56<248.602 333.201 237.701 344.102> 608 52<292.722 453.222 292.722 292.722> 616 44<126.313 139.774> 651 20G<576.933 580.433>
VStem: -14 649 430.1 42.59
AnchorPoint: "Anchor-6" 469 0 basechar 0
AnchorPoint: "Anchor-5" 440 845 basechar 0
AnchorPoint: "Anchor-4" 277 0 basechar 0
LayerCount: 2
Fore
SplineSet
613.629882812 188.5 m 2x72
 621.759765625 184 620.815429688 179 615.075195312 170 c 2
 498.254882812 -4 l 2
 494.594726562 -10 490.705078125 -12 486.705078125 -12 c 0
 483.705078125 -12 481.294921875 -11.5 479.294921875 -9 c 2
 476.264648438 -4 l 2
 473.444335938 -0.5 470.0546875 0 459.0546875 0 c 2
 -1.9453125 0 l 2
 -10.9453125 0 -15.1552734375 4 -13.4052734375 13 c 2x72
 -10.10546875 30 l 2
 -8.5556640625 38 -1.5859375 43 6.404296875 43 c 2
 7.404296875 43 l 2
 50.404296875 43 76.654296875 70 87.5244140625 126 c 2
 166.64453125 533 l 2
 177.32421875 588 161.774414062 616 117.774414062 616 c 0
 109.774414062 616 104.944335938 622 106.494140625 630 c 2xaa
 109.59375 646 l 2
 111.34375 655 117.313476562 660 126.313476562 660 c 2
 546.313476562 660 l 2x72
 555.313476562 660 559.403320312 660.5 564.073242188 664 c 2
 570.04296875 669 l 2
 572.432617188 671 575.432617188 671 578.432617188 671 c 0
 582.432617188 671 586.032226562 669 588.051757812 664 c 2x66
 633.921875 545 l 2
 635.33203125 542 635.751953125 539 635.362304688 537 c 0
 634.392578125 532 630.72265625 528.5 626.2421875 526 c 2
 598.532226562 512 l 2
 592.952148438 509 590.772460938 508 587.772460938 508 c 0
 583.772460938 508 581.352539062 511 579.322265625 516 c 2
 577.301757812 521 l 2
 549.83203125 588 521.221679688 608 453.221679688 608 c 2
 292.721679688 608 l 1
 248.6015625 381 l 1
 344.1015625 381 l 2
 392.1015625 381 421.991210938 401 429.561523438 440 c 2
 430.721679688 446 l 2
 432.471679688 455 437.251953125 459 446.251953125 459 c 2
 462.251953125 459 l 2
 471.251953125 459 474.461914062 455 472.711914062 446 c 2
 436.751953125 261 l 2
 435.001953125 252 430.2421875 248 421.2421875 248 c 2
 405.2421875 248 l 2
 396.2421875 248 393.01171875 252 394.76171875 261 c 2
 395.741210938 266 l 2x71
 403.500976562 306 382.201171875 325 333.201171875 325 c 2
 237.701171875 325 l 1
 200.970703125 136 l 2
 190.470703125 82 210.640625 52 249.640625 52 c 2
 316.140625 52 l 2
 445.140625 52 496.870117188 81.5 571.259765625 189 c 2
 575.419921875 195 l 2
 579.6796875 201.5 587.759765625 204.5 594.879882812 200 c 2
 613.629882812 188.5 l 2x72
422.78515625 789.030273438 m 1
 452.884765625 830.540039062 499.223632812 877.139648438 547.5234375 877.139648438 c 0
 572.943359375 877.139648438 580.013671875 852.569335938 574.59375 824.609375 c 0
 572.133789062 811.899414062 569.143554688 800.889648438 559.00390625 796.659179688 c 0
 506.244140625 778.01953125 478.354492188 765.309570312 408.8046875 717.009765625 c 1
 358.03515625 765.309570312 335.084960938 778.01953125 289.575195312 796.659179688 c 0
 281.075195312 800.889648438 282.35546875 811.899414062 284.815429688 824.609375 c 0
 290.255859375 852.569335938 306.895507812 877.139648438 332.305664062 877.139648438 c 0
 380.60546875 877.139648438 408.825195312 830.540039062 422.78515625 789.030273438 c 1
EndSplineSet
Substitution2: "'c2sc' Capitals to Small Capitals in Latin lookup 11 subtable" Ecaron.sc
AlternateSubs2: "'aalt' Access All Alternates in Latin lookup 0 subtable" Ecaron.sc
Position2: "'cpsp' Capital Spacing in Latin lookup 0 subtable" dx=5 dy=0 dh=10 dv=0
EndChar

StartChar: uni1E1C
Encoding: 7708 7708 53
Width: 644
GlyphClass: 2
Flags: MW
HStem: -225 51.12 -87.28 41.29 0 43<-6.44531 7.4043 6.4043 7.4043 7.4043 28.9043 6.4043 243.215> 0 52<-1.94531 316.141> 325 56<248.602 333.201 237.701 344.102> 608 52<292.722 453.222 292.722 292.722> 616 44<126.313 139.774> 651 20G<576.933 580.433> 711 56.24
VStem: 298.21 69.79 430.1 42.59
AnchorPoint: "Anchor-6" 469 0 basechar 0
AnchorPoint: "Anchor-5" 429 825 basechar 0
AnchorPoint: "Anchor-4" 277 0 basechar 0
LayerCount: 2
Fore
SplineSet
613.629882812 188.5 m 1xdce0
 613.716796875 188.51953125 l 1
 621.846679688 184.01953125 620.866210938 179.01953125 615.125976562 170.01953125 c 2
 498.305664062 -3.98046875 l 2
 494.645507812 -9.98046875 490.755859375 -11.98046875 486.755859375 -11.98046875 c 0
 483.755859375 -11.98046875 481.345703125 -11.48046875 479.345703125 -8.98046875 c 2
 476.315429688 -3.98046875 l 2
 473.495117188 -0.48046875 470.10546875 0.01953125 459.10546875 0.01953125 c 2
 296.895507812 0.01953125 l 1
 241.815429688 -52.98046875 l 1
 255.775390625 -47.98046875 270.165039062 -45.98046875 284.165039062 -45.98046875 c 0
 330.165039062 -45.98046875 378.10546875 -71.98046875 365.85546875 -134.98046875 c 0
 355.755859375 -186.98046875 302.366210938 -224.98046875 234.366210938 -224.98046875 c 0
 207.366210938 -224.98046875 178.356445312 -219.98046875 149.875976562 -206.98046875 c 0
 134.236328125 -199.98046875 135.81640625 -186.680664062 139.666015625 -166.87109375 c 0
 141.015625 -159.87109375 144.24609375 -155.2109375 148.90625 -155.2109375 c 0
 152.40625 -155.2109375 155.556640625 -156.571289062 157.766601562 -157.53125 c 0
 180.65625 -165.69140625 207.866210938 -173.8515625 237.005859375 -173.8515625 c 0
 269.965820312 -173.8515625 293.505859375 -160.69140625 298.255859375 -136.2109375 c 0
 305.055664062 -101.250976562 275.145507812 -87.2705078125 229.685546875 -87.2705078125 c 0
 213.705078125 -87.2705078125 193.21484375 -90.7509765625 179.575195312 -90.7509765625 c 0
 173.754882812 -90.7509765625 170.934570312 -87.2705078125 171.844726562 -82.6005859375 c 0
 172.514648438 -79.1201171875 172.724609375 -76.5703125 175.955078125 -73.2900390625 c 2
 243.21484375 0 l 1
 -1.9453125 0 l 2
 -10.9453125 0 -15.1552734375 4 -13.4052734375 13 c 2xdce0
 -10.10546875 30 l 2
 -8.5556640625 38 -1.5859375 43 6.404296875 43 c 2
 7.404296875 43 l 2
 50.404296875 43 76.654296875 70 87.5244140625 126 c 2
 166.64453125 533 l 2
 177.32421875 588 161.774414062 616 117.774414062 616 c 0
 109.774414062 616 104.944335938 622 106.494140625 630 c 2xeae0
 109.59375 646 l 2
 111.34375 655 117.313476562 660 126.313476562 660 c 2
 546.313476562 660 l 2xdce0
 555.313476562 660 559.403320312 660.5 564.073242188 664 c 2
 570.04296875 669 l 2
 572.432617188 671 575.432617188 671 578.432617188 671 c 0
 582.432617188 671 586.032226562 669 588.051757812 664 c 2xd9e0
 633.921875 545 l 2
 635.33203125 542 635.751953125 539 635.362304688 537 c 0
 634.392578125 532 630.72265625 528.5 626.2421875 526 c 2
 598.532226562 512 l 2
 592.952148438 509 590.772460938 508 587.772460938 508 c 0
 583.772460938 508 581.352539062 511 579.322265625 516 c 2
 577.301757812 521 l 2
 549.83203125 588 521.221679688 608 453.221679688 608 c 2
 292.721679688 608 l 1
 248.6015625 381 l 1
 344.1015625 381 l 2
 392.1015625 381 421.991210938 401 429.561523438 440 c 2
 430.721679688 446 l 2
 432.471679688 455 437.251953125 459 446.251953125 459 c 2
 462.251953125 459 l 2
 471.251953125 459 474.461914062 455 472.711914062 446 c 2
 436.751953125 261 l 2
 435.001953125 252 430.2421875 248 421.2421875 248 c 2
 405.2421875 248 l 2
 396.2421875 248 393.01171875 252 394.76171875 261 c 2
 395.741210938 266 l 2
 403.500976562 306 382.201171875 325 333.201171875 325 c 2
 237.701171875 325 l 1
 200.970703125 136 l 2
 190.470703125 82 210.640625 52 249.640625 52 c 2
 316.140625 52 l 2
 445.140625 52 496.870117188 81.5 571.259765625 189 c 2
 575.419921875 195 l 2
 579.6796875 201.5 587.759765625 204.5 594.879882812 200 c 2
 613.629882812 188.5 l 1xdce0
407.296875 711.01953125 m 1
 407.3671875 711.020507812 l 1
 316.8671875 711.020507812 287.247070312 782.860351562 294.796875 821.760742188 c 0
 296.737304688 831.760742188 303.307617188 835.650390625 312.697265625 836.75 c 0
 323.95703125 837.979492188 343.537109375 840.189453125 352.037109375 840.529296875 c 0
 362.70703125 841.189453125 365.876953125 837.619140625 364.896484375 825.96875 c 0
 362.506835938 789.23828125 379.346679688 767.23828125 418.256835938 767.23828125 c 0
 457.657226562 767.23828125 483.046875 789.23828125 494.936523438 825.967773438 c 0
 497.986328125 837.618164062 503.056640625 841.188476562 513.466796875 840.528320312 c 0
 521.336914062 840.188476562 540.546875 837.978515625 550.827148438 836.749023438 c 0
 559.787109375 835.649414062 564.846679688 831.759765625 562.90625 821.759765625 c 0
 555.356445312 782.859375 498.296875 711.01953125 407.296875 711.01953125 c 1
EndSplineSet
Substitution2: "'c2sc' Capitals to Small Capitals in Latin lookup 11 subtable" uni1E1C.sc
AlternateSubs2: "'aalt' Access All Alternates in Latin lookup 0 subtable" uni1E1C.sc
Position2: "'cpsp' Capital Spacing in Latin lookup 0 subtable" dx=5 dy=0 dh=10 dv=0
EndChar

StartChar: Ecircumflex
Encoding: 202 202 54
Width: 644
GlyphClass: 2
Flags: MW
HStem: 0 43<-6.44531 7.4043 6.4043 7.4043 7.4043 28.9043 6.4043 459.055> 0 52<249.641 316.141 316.141 380.641> 325 56<248.602 333.201 237.701 344.102> 608 52<292.722 453.222 292.722 292.722> 616 44<126.313 139.774> 651 20G<576.933 580.433>
VStem: -14 649 430.1 42.59
AnchorPoint: "Anchor-7" 420 777 basechar 0
AnchorPoint: "Anchor-6" 469 0 basechar 0
AnchorPoint: "Anchor-5" 431 833 basechar 0
AnchorPoint: "Anchor-4" 277 0 basechar 0
LayerCount: 2
Fore
SplineSet
613.629882812 188.5 m 2x72
 621.759765625 184 620.815429688 179 615.075195312 170 c 2
 498.254882812 -4 l 2
 494.594726562 -10 490.705078125 -12 486.705078125 -12 c 0
 483.705078125 -12 481.294921875 -11.5 479.294921875 -9 c 2
 476.264648438 -4 l 2
 473.444335938 -0.5 470.0546875 0 459.0546875 0 c 2
 -1.9453125 0 l 2
 -10.9453125 0 -15.1552734375 4 -13.4052734375 13 c 2x72
 -10.10546875 30 l 2
 -8.5556640625 38 -1.5859375 43 6.404296875 43 c 2
 7.404296875 43 l 2
 50.404296875 43 76.654296875 70 87.5244140625 126 c 2
 166.64453125 533 l 2
 177.32421875 588 161.774414062 616 117.774414062 616 c 0
 109.774414062 616 104.944335938 622 106.494140625 630 c 2xaa
 109.59375 646 l 2
 111.34375 655 117.313476562 660 126.313476562 660 c 2
 546.313476562 660 l 2x72
 555.313476562 660 559.403320312 660.5 564.073242188 664 c 2
 570.04296875 669 l 2
 572.432617188 671 575.432617188 671 578.432617188 671 c 0
 582.432617188 671 586.032226562 669 588.051757812 664 c 2x66
 633.921875 545 l 2
 635.33203125 542 635.751953125 539 635.362304688 537 c 0
 634.392578125 532 630.72265625 528.5 626.2421875 526 c 2
 598.532226562 512 l 2
 592.952148438 509 590.772460938 508 587.772460938 508 c 0
 583.772460938 508 581.352539062 511 579.322265625 516 c 2
 577.301757812 521 l 2
 549.83203125 588 521.221679688 608 453.221679688 608 c 2
 292.721679688 608 l 1
 248.6015625 381 l 1
 344.1015625 381 l 2
 392.1015625 381 421.991210938 401 429.561523438 440 c 2
 430.721679688 446 l 2
 432.471679688 455 437.251953125 459 446.251953125 459 c 2
 462.251953125 459 l 2
 471.251953125 459 474.461914062 455 472.711914062 446 c 2
 436.751953125 261 l 2
 435.001953125 252 430.2421875 248 421.2421875 248 c 2
 405.2421875 248 l 2
 396.2421875 248 393.01171875 252 394.76171875 261 c 2
 395.741210938 266 l 2x71
 403.500976562 306 382.201171875 325 333.201171875 325 c 2
 237.701171875 325 l 1
 200.970703125 136 l 2
 190.470703125 82 210.640625 52 249.640625 52 c 2
 316.140625 52 l 2
 445.140625 52 496.870117188 81.5 571.259765625 189 c 2
 575.419921875 195 l 2
 579.6796875 201.5 587.759765625 204.5 594.879882812 200 c 2
 613.629882812 188.5 l 2x72
424.724609375 800.950195312 m 1
 394.634765625 759.440429688 348.263671875 712.840820312 299.963867188 712.840820312 c 0
 274.553710938 712.840820312 267.473632812 737.411132812 272.903320312 765.37109375 c 0
 275.373046875 778.081054688 278.353515625 789.090820312 288.493164062 793.331054688 c 0
 341.2734375 811.9609375 369.153320312 824.670898438 438.703125 872.970703125 c 1
 489.483398438 824.670898438 512.423828125 811.9609375 557.954101562 793.331054688 c 0
 566.454101562 789.090820312 565.154296875 778.081054688 562.694335938 765.37109375 c 0
 557.274414062 737.411132812 540.634765625 712.840820312 515.21484375 712.840820312 c 0
 466.915039062 712.840820312 438.684570312 759.440429688 424.724609375 800.950195312 c 1
EndSplineSet
Substitution2: "'c2sc' Capitals to Small Capitals in Latin lookup 11 subtable" Ecircumflex.sc
AlternateSubs2: "'aalt' Access All Alternates in Latin lookup 0 subtable" Ecircumflex.sc
Position2: "'cpsp' Capital Spacing in Latin lookup 0 subtable" dx=5 dy=0 dh=10 dv=0
EndChar

StartChar: uni1EBE
Encoding: 7870 7870 55
Width: 644
GlyphClass: 2
Flags: MW
HStem: 0 43<-6.44531 7.4043 6.4043 7.4043 7.4043 28.9043 6.4043 459.055> 0 52<249.641 316.141 316.141 380.641> 325 56<248.602 333.201 237.701 344.102> 608 52<292.722 453.222 292.722 292.722> 616 44<126.313 139.774> 651 20G<576.933 580.433>
VStem: -14 721 430.1 42.59
AnchorPoint: "Anchor-7" 645 1021 basechar 0
AnchorPoint: "Anchor-6" 469 0 basechar 0
AnchorPoint: "Anchor-5" 431 833 basechar 0
AnchorPoint: "Anchor-4" 277 0 basechar 0
LayerCount: 2
Fore
SplineSet
613.629882812 188.5 m 2x72
 621.759765625 184 620.815429688 179 615.075195312 170 c 2
 498.254882812 -4 l 2
 494.594726562 -10 490.705078125 -12 486.705078125 -12 c 0
 483.705078125 -12 481.294921875 -11.5 479.294921875 -9 c 2
 476.264648438 -4 l 2
 473.444335938 -0.5 470.0546875 0 459.0546875 0 c 2
 -1.9453125 0 l 2
 -10.9453125 0 -15.1552734375 4 -13.4052734375 13 c 2x72
 -10.10546875 30 l 2
 -8.5556640625 38 -1.5859375 43 6.404296875 43 c 2
 7.404296875 43 l 2
 50.404296875 43 76.654296875 70 87.5244140625 126 c 2
 166.64453125 533 l 2
 177.32421875 588 161.774414062 616 117.774414062 616 c 0
 109.774414062 616 104.944335938 622 106.494140625 630 c 2xaa
 109.59375 646 l 2
 111.34375 655 117.313476562 660 126.313476562 660 c 2
 546.313476562 660 l 2x72
 555.313476562 660 559.403320312 660.5 564.073242188 664 c 2
 570.04296875 669 l 2
 572.432617188 671 575.432617188 671 578.432617188 671 c 0
 582.432617188 671 586.032226562 669 588.051757812 664 c 2x66
 633.921875 545 l 2
 635.33203125 542 635.751953125 539 635.362304688 537 c 0
 634.392578125 532 630.72265625 528.5 626.2421875 526 c 2
 598.532226562 512 l 2
 592.952148438 509 590.772460938 508 587.772460938 508 c 0
 583.772460938 508 581.352539062 511 579.322265625 516 c 2
 577.301757812 521 l 2
 549.83203125 588 521.221679688 608 453.221679688 608 c 2
 292.721679688 608 l 1
 248.6015625 381 l 1
 344.1015625 381 l 2
 392.1015625 381 421.991210938 401 429.561523438 440 c 2
 430.721679688 446 l 2
 432.471679688 455 437.251953125 459 446.251953125 459 c 2
 462.251953125 459 l 2
 471.251953125 459 474.461914062 455 472.711914062 446 c 2
 436.751953125 261 l 2
 435.001953125 252 430.2421875 248 421.2421875 248 c 2
 405.2421875 248 l 2
 396.2421875 248 393.01171875 252 394.76171875 261 c 2
 395.741210938 266 l 2x71
 403.500976562 306 382.201171875 325 333.201171875 325 c 2
 237.701171875 325 l 1
 200.970703125 136 l 2
 190.470703125 82 210.640625 52 249.640625 52 c 2
 316.140625 52 l 2
 445.140625 52 496.870117188 81.5 571.259765625 189 c 2
 575.419921875 195 l 2
 579.6796875 201.5 587.759765625 204.5 594.879882812 200 c 2
 613.629882812 188.5 l 2x72
424.724609375 800.950195312 m 1
 394.634765625 759.440429688 348.263671875 712.840820312 299.963867188 712.840820312 c 0
 274.553710938 712.840820312 267.473632812 737.411132812 272.903320312 765.37109375 c 0
 275.373046875 778.081054688 278.353515625 789.090820312 288.493164062 793.331054688 c 0
 341.2734375 811.9609375 369.153320312 824.670898438 438.703125 872.970703125 c 1
 489.483398438 824.670898438 512.423828125 811.9609375 557.954101562 793.331054688 c 0
 566.454101562 789.090820312 565.154296875 778.081054688 562.694335938 765.37109375 c 0
 557.274414062 737.411132812 540.634765625 712.840820312 515.21484375 712.840820312 c 0
 466.915039062 712.840820312 438.684570312 759.440429688 424.724609375 800.950195312 c 1
517.5234375 850.860351562 m 1
 583.573242188 917.459960938 601.504882812 942.190429688 634.104492188 994.690429688 c 0
 640.814453125 1005.02050781 653.384765625 1007.01074219 664.754882812 1007.01074219 c 0
 695.104492188 1007.01074219 711.494140625 992.80078125 706.213867188 965.661132812 c 0
 694.983398438 907.880859375 616.86328125 867.331054688 560.513671875 840.021484375 c 0
 556.103515625 838.03125 551.61328125 836.12109375 547.922851562 836.241210938 c 0
 544.892578125 836.411132812 541.29296875 838.010742188 537.033203125 840.340820312 c 2
 517.5234375 850.860351562 l 1
EndSplineSet
Substitution2: "'c2sc' Capitals to Small Capitals in Latin lookup 11 subtable" uni1EBE.sc
AlternateSubs2: "'aalt' Access All Alternates in Latin lookup 0 subtable" uni1EBE.sc
Position2: "'cpsp' Capital Spacing in Latin lookup 0 subtable" dx=5 dy=0 dh=10 dv=0
EndChar

StartChar: uni1EC6
Encoding: 7878 7878 56
Width: 644
GlyphClass: 2
Flags: MW
HStem: 0 43<-6.44531 7.4043 6.4043 7.4043 7.4043 28.9043 6.4043 459.055> 0 52<249.641 316.141 316.141 380.641> 325 56<248.602 333.201 237.701 344.102> 608 52<292.722 453.222 292.722 292.722> 616 44<126.313 139.774> 651 20G<576.933 580.433>
VStem: -14 649 190.02 136.15 430.1 42.59
AnchorPoint: "Anchor-7" 420 777 basechar 0
AnchorPoint: "Anchor-6" 469 0 basechar 0
AnchorPoint: "Anchor-5" 431 833 basechar 0
AnchorPoint: "Anchor-4" 277 0 basechar 0
LayerCount: 2
Fore
SplineSet
613.629882812 188.5 m 2x72
 621.759765625 184 620.815429688 179 615.075195312 170 c 2
 498.254882812 -4 l 2
 494.594726562 -10 490.705078125 -12 486.705078125 -12 c 0
 483.705078125 -12 481.294921875 -11.5 479.294921875 -9 c 2
 476.264648438 -4 l 2
 473.444335938 -0.5 470.0546875 0 459.0546875 0 c 2
 -1.9453125 0 l 2
 -10.9453125 0 -15.1552734375 4 -13.4052734375 13 c 2x72
 -10.10546875 30 l 2
 -8.5556640625 38 -1.5859375 43 6.404296875 43 c 2
 7.404296875 43 l 2
 50.404296875 43 76.654296875 70 87.5244140625 126 c 2
 166.64453125 533 l 2
 177.32421875 588 161.774414062 616 117.774414062 616 c 0
 109.774414062 616 104.944335938 622 106.494140625 630 c 2xaa
 109.59375 646 l 2
 111.34375 655 117.313476562 660 126.313476562 660 c 2
 546.313476562 660 l 2x72
 555.313476562 660 559.403320312 660.5 564.073242188 664 c 2
 570.04296875 669 l 2
 572.432617188 671 575.432617188 671 578.432617188 671 c 0
 582.432617188 671 586.032226562 669 588.051757812 664 c 2x66
 633.921875 545 l 2
 635.33203125 542 635.751953125 539 635.362304688 537 c 0
 634.392578125 532 630.72265625 528.5 626.2421875 526 c 2
 598.532226562 512 l 2
 592.952148438 509 590.772460938 508 587.772460938 508 c 0
 583.772460938 508 581.352539062 511 579.322265625 516 c 2
 577.301757812 521 l 2
 549.83203125 588 521.221679688 608 453.221679688 608 c 2
 292.721679688 608 l 1
 248.6015625 381 l 1
 344.1015625 381 l 2
 392.1015625 381 421.991210938 401 429.561523438 440 c 2
 430.721679688 446 l 2
 432.471679688 455 437.251953125 459 446.251953125 459 c 2
 462.251953125 459 l 2
 471.251953125 459 474.461914062 455 472.711914062 446 c 2
 436.751953125 261 l 2
 435.001953125 252 430.2421875 248 421.2421875 248 c 2
 405.2421875 248 l 2
 396.2421875 248 393.01171875 252 394.76171875 261 c 2
 395.741210938 266 l 2x7080
 403.500976562 306 382.201171875 325 333.201171875 325 c 2
 237.701171875 325 l 1
 200.970703125 136 l 2
 190.470703125 82 210.640625 52 249.640625 52 c 2
 316.140625 52 l 2
 445.140625 52 496.870117188 81.5 571.259765625 189 c 2
 575.419921875 195 l 2
 579.6796875 201.5 587.759765625 204.5 594.879882812 200 c 2
 613.629882812 188.5 l 2x72
270.754882812 -53.98046875 m 0x71
 287.125 -57.1708984375 299.224609375 -65.890625 312.415039062 -85.4501953125 c 0
 325.60546875 -105 329.365234375 -118.48046875 326.174804688 -134.850585938 c 0
 323.004882812 -151.23046875 313.245117188 -163.140625 294.915039062 -175.510742188 c 0
 275.365234375 -188.701171875 260.865234375 -192.250976562 244.495117188 -189.060546875 c 0
 229.145507812 -186.080078125 218.065429688 -177.560546875 203.845703125 -157.80078125 c 0
 190.456054688 -139.270507812 186.916015625 -124.760742188 190.0859375 -108.390625 c 0
 193.255859375 -92.0205078125 201.775390625 -80.9306640625 221.345703125 -67.740234375 c 0
 240.905273438 -54.5498046875 255.405273438 -51 270.754882812 -53.98046875 c 0x71
424.71484375 800.959960938 m 1
 394.625 759.450195312 348.252929688 712.850585938 299.953125 712.850585938 c 0
 274.54296875 712.850585938 267.462890625 737.420898438 272.892578125 765.380859375 c 0
 275.362304688 778.090820312 278.342773438 789.100585938 288.482421875 793.340820312 c 0
 341.262695312 811.970703125 369.142578125 824.680664062 438.692382812 872.98046875 c 1
 489.47265625 824.680664062 512.413085938 811.970703125 557.943359375 793.340820312 c 0
 566.443359375 789.100585938 565.143554688 778.090820312 562.68359375 765.380859375 c 0
 557.263671875 737.420898438 540.624023438 712.850585938 515.204101562 712.850585938 c 0
 466.904296875 712.850585938 438.674804688 759.450195312 424.71484375 800.959960938 c 1
EndSplineSet
Substitution2: "'c2sc' Capitals to Small Capitals in Latin lookup 11 subtable" uni1EC6.sc
AlternateSubs2: "'aalt' Access All Alternates in Latin lookup 0 subtable" uni1EC6.sc
Position2: "'cpsp' Capital Spacing in Latin lookup 0 subtable" dx=5 dy=0 dh=10 dv=0
EndChar

StartChar: uni1EC0
Encoding: 7872 7872 57
Width: 644
GlyphClass: 2
Flags: MW
HStem: 0 43<-6.44531 7.4043 6.4043 7.4043 7.4043 28.9043 6.4043 459.055> 0 52<249.641 316.141 316.141 380.641> 325 56<248.602 333.201 237.701 344.102> 608 52<292.722 453.222 292.722 292.722> 616 44<126.313 139.774> 651 20G<576.933 580.433>
VStem: -14 649 430.1 42.59
AnchorPoint: "Anchor-7" 314 1021 basechar 0
AnchorPoint: "Anchor-6" 469 0 basechar 0
AnchorPoint: "Anchor-5" 431 833 basechar 0
AnchorPoint: "Anchor-4" 277 0 basechar 0
LayerCount: 2
Fore
SplineSet
613.629882812 188.5 m 2x72
 621.759765625 184 620.815429688 179 615.075195312 170 c 2
 498.254882812 -4 l 2
 494.594726562 -10 490.705078125 -12 486.705078125 -12 c 0
 483.705078125 -12 481.294921875 -11.5 479.294921875 -9 c 2
 476.264648438 -4 l 2
 473.444335938 -0.5 470.0546875 0 459.0546875 0 c 2
 -1.9453125 0 l 2
 -10.9453125 0 -15.1552734375 4 -13.4052734375 13 c 2x72
 -10.10546875 30 l 2
 -8.5556640625 38 -1.5859375 43 6.404296875 43 c 2
 7.404296875 43 l 2
 50.404296875 43 76.654296875 70 87.5244140625 126 c 2
 166.64453125 533 l 2
 177.32421875 588 161.774414062 616 117.774414062 616 c 0
 109.774414062 616 104.944335938 622 106.494140625 630 c 2xaa
 109.59375 646 l 2
 111.34375 655 117.313476562 660 126.313476562 660 c 2
 546.313476562 660 l 2x72
 555.313476562 660 559.403320312 660.5 564.073242188 664 c 2
 570.04296875 669 l 2
 572.432617188 671 575.432617188 671 578.432617188 671 c 0
 582.432617188 671 586.032226562 669 588.051757812 664 c 2x66
 633.921875 545 l 2
 635.33203125 542 635.751953125 539 635.362304688 537 c 0
 634.392578125 532 630.72265625 528.5 626.2421875 526 c 2
 598.532226562 512 l 2
 592.952148438 509 590.772460938 508 587.772460938 508 c 0
 583.772460938 508 581.352539062 511 579.322265625 516 c 2
 577.301757812 521 l 2
 549.83203125 588 521.221679688 608 453.221679688 608 c 2
 292.721679688 608 l 1
 248.6015625 381 l 1
 344.1015625 381 l 2
 392.1015625 381 421.991210938 401 429.561523438 440 c 2
 430.721679688 446 l 2
 432.471679688 455 437.251953125 459 446.251953125 459 c 2
 462.251953125 459 l 2
 471.251953125 459 474.461914062 455 472.711914062 446 c 2
 436.751953125 261 l 2
 435.001953125 252 430.2421875 248 421.2421875 248 c 2
 405.2421875 248 l 2
 396.2421875 248 393.01171875 252 394.76171875 261 c 2
 395.741210938 266 l 2x71
 403.500976562 306 382.201171875 325 333.201171875 325 c 2
 237.701171875 325 l 1
 200.970703125 136 l 2
 190.470703125 82 210.640625 52 249.640625 52 c 2
 316.140625 52 l 2
 445.140625 52 496.870117188 81.5 571.259765625 189 c 2
 575.419921875 195 l 2
 579.6796875 201.5 587.759765625 204.5 594.879882812 200 c 2
 613.629882812 188.5 l 2x72
424.724609375 800.950195312 m 1
 394.634765625 759.440429688 348.263671875 712.840820312 299.963867188 712.840820312 c 0
 274.553710938 712.840820312 267.473632812 737.411132812 272.903320312 765.37109375 c 0
 275.373046875 778.081054688 278.353515625 789.090820312 288.493164062 793.331054688 c 0
 341.2734375 811.9609375 369.153320312 824.670898438 438.703125 872.970703125 c 1
 489.483398438 824.670898438 512.423828125 811.9609375 557.954101562 793.331054688 c 0
 566.454101562 789.090820312 565.154296875 778.081054688 562.694335938 765.37109375 c 0
 557.274414062 737.411132812 540.634765625 712.840820312 515.21484375 712.840820312 c 0
 466.915039062 712.840820312 438.684570312 759.440429688 424.724609375 800.950195312 c 1
341.903320312 840.330078125 m 2
 337.643554688 838 334.004882812 836.360351562 330.985351562 836.190429688 c 0
 327.294921875 836.0703125 322.814453125 837.98046875 318.39453125 839.970703125 c 0
 262.0546875 867.280273438 183.924804688 907.830078125 172.694335938 965.610351562 c 0
 167.424804688 992.75 183.814453125 1006.95996094 214.154296875 1006.95996094 c 0
 225.534179688 1006.95996094 238.09375 1004.96972656 244.803710938 994.639648438 c 0
 277.403320312 942.139648438 295.373046875 917.44921875 361.413085938 850.849609375 c 1
 341.903320312 840.330078125 l 2
EndSplineSet
Substitution2: "'c2sc' Capitals to Small Capitals in Latin lookup 11 subtable" uni1EC0.sc
AlternateSubs2: "'aalt' Access All Alternates in Latin lookup 0 subtable" uni1EC0.sc
Position2: "'cpsp' Capital Spacing in Latin lookup 0 subtable" dx=5 dy=0 dh=10 dv=0
EndChar

StartChar: uni1EC2
Encoding: 7874 7874 58
Width: 644
GlyphClass: 2
Flags: MW
HStem: 0 43<-6.44531 7.4043 6.4043 7.4043 7.4043 28.9043 6.4043 459.055> 0 52<249.641 316.141 316.141 380.641> 325 56<248.602 333.201 237.701 344.102> 608 52<292.722 453.222 292.722 292.722> 616 44<126.313 139.774> 651 20G<576.933 580.433> 933 81.27 946 68.27
VStem: 430.1 42.59 485.16 135.85 557.76 63.25
AnchorPoint: "Anchor-7" 578 1068 basechar 0
AnchorPoint: "Anchor-6" 469 0 basechar 0
AnchorPoint: "Anchor-5" 431 833 basechar 0
AnchorPoint: "Anchor-4" 277 0 basechar 0
LayerCount: 2
Fore
SplineSet
613.629882812 188.5 m 2x70a0
 621.759765625 184 620.815429688 179 615.075195312 170 c 2
 498.254882812 -4 l 2
 494.594726562 -10 490.705078125 -12 486.705078125 -12 c 0
 483.705078125 -12 481.294921875 -11.5 479.294921875 -9 c 2
 476.264648438 -4 l 2
 473.444335938 -0.5 470.0546875 0 459.0546875 0 c 2
 -1.9453125 0 l 2
 -10.9453125 0 -15.1552734375 4 -13.4052734375 13 c 2x70a0
 -10.10546875 30 l 2
 -8.5556640625 38 -1.5859375 43 6.404296875 43 c 2
 7.404296875 43 l 2
 50.404296875 43 76.654296875 70 87.5244140625 126 c 2
 166.64453125 533 l 2
 177.32421875 588 161.774414062 616 117.774414062 616 c 0
 109.774414062 616 104.944335938 622 106.494140625 630 c 2xa8a0
 109.59375 646 l 2
 111.34375 655 117.313476562 660 126.313476562 660 c 2
 546.313476562 660 l 2x70a0
 555.313476562 660 559.403320312 660.5 564.073242188 664 c 2
 570.04296875 669 l 2
 572.432617188 671 575.432617188 671 578.432617188 671 c 0
 582.432617188 671 586.032226562 669 588.051757812 664 c 2x64a0
 633.921875 545 l 2
 635.33203125 542 635.751953125 539 635.362304688 537 c 0
 634.392578125 532 630.72265625 528.5 626.2421875 526 c 2
 598.532226562 512 l 2
 592.952148438 509 590.772460938 508 587.772460938 508 c 0
 583.772460938 508 581.352539062 511 579.322265625 516 c 2
 577.301757812 521 l 2
 549.83203125 588 521.221679688 608 453.221679688 608 c 2
 292.721679688 608 l 1
 248.6015625 381 l 1
 344.1015625 381 l 2
 392.1015625 381 421.991210938 401 429.561523438 440 c 2
 430.721679688 446 l 2
 432.471679688 455 437.251953125 459 446.251953125 459 c 2
 462.251953125 459 l 2
 471.251953125 459 474.461914062 455 472.711914062 446 c 2
 436.751953125 261 l 2
 435.001953125 252 430.2421875 248 421.2421875 248 c 2
 405.2421875 248 l 2
 396.2421875 248 393.01171875 252 394.76171875 261 c 2
 395.741210938 266 l 2
 403.500976562 306 382.201171875 325 333.201171875 325 c 2
 237.701171875 325 l 1
 200.970703125 136 l 2
 190.470703125 82 210.640625 52 249.640625 52 c 2
 316.140625 52 l 2
 445.140625 52 496.870117188 81.5 571.259765625 189 c 2
 575.419921875 195 l 2
 579.6796875 201.5 587.759765625 204.5 594.879882812 200 c 2
 613.629882812 188.5 l 2x70a0
424.724609375 800.950195312 m 1
 394.634765625 759.440429688 348.263671875 712.840820312 299.963867188 712.840820312 c 0
 274.553710938 712.840820312 267.473632812 737.411132812 272.903320312 765.37109375 c 0
 275.373046875 778.081054688 278.353515625 789.090820312 288.493164062 793.331054688 c 0
 341.2734375 811.9609375 369.153320312 824.670898438 438.703125 872.970703125 c 1
 489.483398438 824.670898438 512.423828125 811.9609375 557.954101562 793.331054688 c 0
 566.454101562 789.090820312 565.154296875 778.081054688 562.694335938 765.37109375 c 0
 557.274414062 737.411132812 540.634765625 712.840820312 515.21484375 712.840820312 c 0
 466.915039062 712.840820312 438.684570312 759.440429688 424.724609375 800.950195312 c 1
564.823242188 839.690429688 m 0
 552.54296875 826.880859375 515.8125 850.650390625 525.6328125 861.629882812 c 0
 539.333007812 877.459960938 553.493164062 891.620117188 557.743164062 913.530273438 c 0
 562.79296875 939.48046875 549.783203125 945.98046875 536.033203125 945.98046875 c 0x71a0
 515.413085938 945.98046875 496.72265625 925.870117188 492.602539062 935.8203125 c 0x71c0
 486.672851562 950.240234375 480.86328125 964.470703125 485.172851562 981.380859375 c 0x72c0
 487.913085938 993.090820312 528.663085938 1014.23046875 561.153320312 1014.23046875 c 0
 618.002929688 1014.23046875 627.993164062 969.720703125 621.002929688 933.740234375 c 0x72a0
 615.1328125 903.520507812 594.783203125 870.400390625 564.823242188 839.690429688 c 0
EndSplineSet
Substitution2: "'c2sc' Capitals to Small Capitals in Latin lookup 11 subtable" uni1EC2.sc
AlternateSubs2: "'aalt' Access All Alternates in Latin lookup 0 subtable" uni1EC2.sc
Position2: "'cpsp' Capital Spacing in Latin lookup 0 subtable" dx=5 dy=0 dh=10 dv=0
EndChar

StartChar: uni1EC4
Encoding: 7876 7876 59
Width: 644
GlyphClass: 2
Flags: MW
HStem: 0 43<-6.44531 7.4043 6.4043 7.4043 7.4043 28.9043 6.4043 459.055> 0 52<249.641 316.141 316.141 380.641> 325 56<248.602 333.201 237.701 344.102> 608 52<292.722 453.222 292.722 292.722> 616 44<126.313 139.774> 651 20G<576.933 580.433> 893.72 59 977.72 58
VStem: -14 649 308.4 67.01 430.1 42.59 538.56 65.89
AnchorPoint: "Anchor-7" 420 777 basechar 0
AnchorPoint: "Anchor-6" 469 0 basechar 0
AnchorPoint: "Anchor-5" 467 1018 basechar 0
AnchorPoint: "Anchor-4" 277 0 basechar 0
LayerCount: 2
Fore
SplineSet
613.629882812 188.5 m 2x7080
 621.759765625 184 620.815429688 179 615.075195312 170 c 2
 498.254882812 -4 l 2
 494.594726562 -10 490.705078125 -12 486.705078125 -12 c 0
 483.705078125 -12 481.294921875 -11.5 479.294921875 -9 c 2
 476.264648438 -4 l 2
 473.444335938 -0.5 470.0546875 0 459.0546875 0 c 2
 -1.9453125 0 l 2
 -10.9453125 0 -15.1552734375 4 -13.4052734375 13 c 2x7080
 -10.10546875 30 l 2
 -8.5556640625 38 -1.5859375 43 6.404296875 43 c 2
 7.404296875 43 l 2
 50.404296875 43 76.654296875 70 87.5244140625 126 c 2
 166.64453125 533 l 2
 177.32421875 588 161.774414062 616 117.774414062 616 c 0
 109.774414062 616 104.944335938 622 106.494140625 630 c 2xa880
 109.59375 646 l 2
 111.34375 655 117.313476562 660 126.313476562 660 c 2
 546.313476562 660 l 2x7080
 555.313476562 660 559.403320312 660.5 564.073242188 664 c 2
 570.04296875 669 l 2
 572.432617188 671 575.432617188 671 578.432617188 671 c 0
 582.432617188 671 586.032226562 669 588.051757812 664 c 2x6480
 633.921875 545 l 2
 635.33203125 542 635.751953125 539 635.362304688 537 c 0
 634.392578125 532 630.72265625 528.5 626.2421875 526 c 2
 598.532226562 512 l 2
 592.952148438 509 590.772460938 508 587.772460938 508 c 0
 583.772460938 508 581.352539062 511 579.322265625 516 c 2
 577.301757812 521 l 2
 549.83203125 588 521.221679688 608 453.221679688 608 c 2
 292.721679688 608 l 1
 248.6015625 381 l 1
 344.1015625 381 l 2
 392.1015625 381 421.991210938 401 429.561523438 440 c 2
 430.721679688 446 l 2
 432.471679688 455 437.251953125 459 446.251953125 459 c 2
 462.251953125 459 l 2
 471.251953125 459 474.461914062 455 472.711914062 446 c 2
 436.751953125 261 l 2
 435.001953125 252 430.2421875 248 421.2421875 248 c 2
 405.2421875 248 l 2
 396.2421875 248 393.01171875 252 394.76171875 261 c 2
 395.741210938 266 l 2x7020
 403.500976562 306 382.201171875 325 333.201171875 325 c 2
 237.701171875 325 l 1
 200.970703125 136 l 2
 190.470703125 82 210.640625 52 249.640625 52 c 2
 316.140625 52 l 2
 445.140625 52 496.870117188 81.5 571.259765625 189 c 2
 575.419921875 195 l 2
 579.6796875 201.5 587.759765625 204.5 594.879882812 200 c 2
 613.629882812 188.5 l 2x7080
424.724609375 800.950195312 m 1
 394.634765625 759.440429688 348.263671875 712.840820312 299.963867188 712.840820312 c 0
 274.553710938 712.840820312 267.473632812 737.411132812 272.903320312 765.37109375 c 0
 275.373046875 778.081054688 278.353515625 789.090820312 288.493164062 793.331054688 c 0
 341.2734375 811.9609375 369.153320312 824.670898438 438.703125 872.970703125 c 1
 489.483398438 824.670898438 512.423828125 811.9609375 557.954101562 793.331054688 c 0
 566.454101562 789.090820312 565.154296875 778.081054688 562.694335938 765.37109375 c 0
 557.274414062 737.411132812 540.634765625 712.840820312 515.21484375 712.840820312 c 0
 466.915039062 712.840820312 438.684570312 759.440429688 424.724609375 800.950195312 c 1
481.413085938 980.740234375 m 0x7140
 490.653320312 960.330078125 499.47265625 952.721679688 512.163085938 952.721679688 c 0
 528.163085938 952.721679688 539.163085938 965.571289062 542.193359375 981.2109375 c 0
 544.403320312 992.581054688 544.143554688 1004.40136719 538.543945312 1016.82128906 c 1
 549.43359375 1025.72167969 566.693359375 1036.68164062 580.493164062 1036.68164062 c 0
 594.61328125 1036.68164062 610.573242188 1008.90136719 604.413085938 977.19140625 c 0
 594.333007812 925.271484375 550.5234375 893.701171875 510.703125 893.701171875 c 0x7210
 454.603515625 893.701171875 440.923828125 924.771484375 431.733398438 948.401367188 c 0
 423.953125 969.971679688 414.762695312 977.681640625 402.0625 977.681640625 c 0
 386.0625 977.681640625 373.692382812 962.881835938 370.842773438 948.19140625 c 0
 368.592773438 936.611328125 369.72265625 924.811523438 375.422851562 912.53125 c 1
 364.533203125 903.661132812 347.18359375 892.720703125 332.563476562 892.720703125 c 0
 318.903320312 892.720703125 302.533203125 920.810546875 308.443359375 951.2109375 c 0
 318.703125 1004.06054688 363.483398438 1035.70019531 403.353515625 1035.70019531 c 0
 458.5234375 1035.70019531 472.703125 1002.70996094 481.413085938 980.740234375 c 0x7140
EndSplineSet
Substitution2: "'c2sc' Capitals to Small Capitals in Latin lookup 11 subtable" uni1EC4.sc
AlternateSubs2: "'aalt' Access All Alternates in Latin lookup 0 subtable" uni1EC4.sc
Position2: "'cpsp' Capital Spacing in Latin lookup 0 subtable" dx=5 dy=0 dh=10 dv=0
EndChar

StartChar: uni0204
Encoding: 516 516 60
Width: 644
GlyphClass: 2
Flags: MW
HStem: 0 43<-6.44531 7.4043 6.4043 7.4043 7.4043 28.9043 6.4043 459.055> 0 52<249.641 316.141 316.141 380.641> 325 56<248.602 333.201 237.701 344.102> 608 52<292.722 453.222 292.722 292.722> 616 44<126.313 139.774> 651 20G<576.933 580.433>
VStem: -14 649 430.1 42.59
AnchorPoint: "Anchor-6" 469 0 basechar 0
AnchorPoint: "Anchor-5" 397 899 basechar 0
AnchorPoint: "Anchor-4" 277 0 basechar 0
LayerCount: 2
Fore
SplineSet
613.629882812 188.5 m 2x72
 621.759765625 184 620.815429688 179 615.075195312 170 c 2
 498.254882812 -4 l 2
 494.594726562 -10 490.705078125 -12 486.705078125 -12 c 0
 483.705078125 -12 481.294921875 -11.5 479.294921875 -9 c 2
 476.264648438 -4 l 2
 473.444335938 -0.5 470.0546875 0 459.0546875 0 c 2
 -1.9453125 0 l 2
 -10.9453125 0 -15.1552734375 4 -13.4052734375 13 c 2x72
 -10.10546875 30 l 2
 -8.5556640625 38 -1.5859375 43 6.404296875 43 c 2
 7.404296875 43 l 2
 50.404296875 43 76.654296875 70 87.5244140625 126 c 2
 166.64453125 533 l 2
 177.32421875 588 161.774414062 616 117.774414062 616 c 0
 109.774414062 616 104.944335938 622 106.494140625 630 c 2xaa
 109.59375 646 l 2
 111.34375 655 117.313476562 660 126.313476562 660 c 2
 546.313476562 660 l 2x72
 555.313476562 660 559.403320312 660.5 564.073242188 664 c 2
 570.04296875 669 l 2
 572.432617188 671 575.432617188 671 578.432617188 671 c 0
 582.432617188 671 586.032226562 669 588.051757812 664 c 2x66
 633.921875 545 l 2
 635.33203125 542 635.751953125 539 635.362304688 537 c 0
 634.392578125 532 630.72265625 528.5 626.2421875 526 c 2
 598.532226562 512 l 2
 592.952148438 509 590.772460938 508 587.772460938 508 c 0
 583.772460938 508 581.352539062 511 579.322265625 516 c 2
 577.301757812 521 l 2
 549.83203125 588 521.221679688 608 453.221679688 608 c 2
 292.721679688 608 l 1
 248.6015625 381 l 1
 344.1015625 381 l 2
 392.1015625 381 421.991210938 401 429.561523438 440 c 2
 430.721679688 446 l 2
 432.471679688 455 437.251953125 459 446.251953125 459 c 2
 462.251953125 459 l 2
 471.251953125 459 474.461914062 455 472.711914062 446 c 2
 436.751953125 261 l 2
 435.001953125 252 430.2421875 248 421.2421875 248 c 2
 405.2421875 248 l 2
 396.2421875 248 393.01171875 252 394.76171875 261 c 2
 395.741210938 266 l 2x71
 403.500976562 306 382.201171875 325 333.201171875 325 c 2
 237.701171875 325 l 1
 200.970703125 136 l 2
 190.470703125 82 210.640625 52 249.640625 52 c 2
 316.140625 52 l 2
 445.140625 52 496.870117188 81.5 571.259765625 189 c 2
 575.419921875 195 l 2
 579.6796875 201.5 587.759765625 204.5 594.879882812 200 c 2
 613.629882812 188.5 l 2x72
601.134765625 718.559570312 m 2
 596.875 716.229492188 593.224609375 714.608398438 590.21484375 714.448242188 c 0
 586.524414062 714.30859375 582.043945312 716.21875 577.624023438 718.21875 c 0
 521.274414062 745.5390625 443.154296875 786.069335938 431.923828125 843.849609375 c 0
 426.654296875 870.989257812 443.024414062 885.189453125 473.374023438 885.189453125 c 0
 484.744140625 885.189453125 497.314453125 883.209960938 504.014648438 872.879882812 c 0
 536.634765625 820.379882812 554.594726562 795.689453125 620.64453125 729.08984375 c 1
 601.134765625 718.559570312 l 2
428.484375 718.528320312 m 2
 424.224609375 716.198242188 420.60546875 714.577148438 417.575195312 714.416992188 c 0
 413.895507812 714.27734375 409.395507812 716.1875 404.975585938 718.1875 c 0
 348.635742188 745.5078125 270.505859375 786.038085938 259.286132812 843.818359375 c 0
 254.005859375 870.958007812 270.395507812 885.158203125 300.735351562 885.158203125 c 0
 312.115234375 885.158203125 324.674804688 883.178710938 331.384765625 872.848632812 c 0
 363.984375 820.348632812 381.954101562 795.658203125 448.00390625 729.05859375 c 1
 428.484375 718.528320312 l 2
EndSplineSet
Substitution2: "'c2sc' Capitals to Small Capitals in Latin lookup 11 subtable" uni0204.sc
AlternateSubs2: "'aalt' Access All Alternates in Latin lookup 0 subtable" uni0204.sc
Position2: "'cpsp' Capital Spacing in Latin lookup 0 subtable" dx=5 dy=0 dh=10 dv=0
EndChar

StartChar: Edieresis
Encoding: 203 203 61
Width: 644
GlyphClass: 2
Flags: MW
HStem: 0 43<-6.44531 7.4043 6.4043 7.4043 7.4043 28.9043 6.4043 459.055> 0 52<249.641 316.141 316.141 380.641> 325 56<248.602 333.201 237.701 344.102> 608 52<292.722 453.222 292.722 292.722> 616 44<126.313 139.774> 651 20G<576.933 580.433>
VStem: -14 649 253.59 136.15 430.1 42.59 458.59 136.15
AnchorPoint: "Anchor-6" 469 0 basechar 0
AnchorPoint: "Anchor-5" 433 845 basechar 0
AnchorPoint: "Anchor-4" 277 0 basechar 0
LayerCount: 2
Fore
SplineSet
613.629882812 188.5 m 2x72
 621.759765625 184 620.815429688 179 615.075195312 170 c 2
 498.254882812 -4 l 2
 494.594726562 -10 490.705078125 -12 486.705078125 -12 c 0
 483.705078125 -12 481.294921875 -11.5 479.294921875 -9 c 2
 476.264648438 -4 l 2
 473.444335938 -0.5 470.0546875 0 459.0546875 0 c 2
 -1.9453125 0 l 2
 -10.9453125 0 -15.1552734375 4 -13.4052734375 13 c 2x72
 -10.10546875 30 l 2
 -8.5556640625 38 -1.5859375 43 6.404296875 43 c 2
 7.404296875 43 l 2
 50.404296875 43 76.654296875 70 87.5244140625 126 c 2
 166.64453125 533 l 2
 177.32421875 588 161.774414062 616 117.774414062 616 c 0
 109.774414062 616 104.944335938 622 106.494140625 630 c 2xaa
 109.59375 646 l 2
 111.34375 655 117.313476562 660 126.313476562 660 c 2
 546.313476562 660 l 2x72
 555.313476562 660 559.403320312 660.5 564.073242188 664 c 2
 570.04296875 669 l 2
 572.432617188 671 575.432617188 671 578.432617188 671 c 0
 582.432617188 671 586.032226562 669 588.051757812 664 c 2x66
 633.921875 545 l 2
 635.33203125 542 635.751953125 539 635.362304688 537 c 0
 634.392578125 532 630.72265625 528.5 626.2421875 526 c 2
 598.532226562 512 l 2
 592.952148438 509 590.772460938 508 587.772460938 508 c 0
 583.772460938 508 581.352539062 511 579.322265625 516 c 2
 577.301757812 521 l 2
 549.83203125 588 521.221679688 608 453.221679688 608 c 2
 292.721679688 608 l 1
 248.6015625 381 l 1
 344.1015625 381 l 2
 392.1015625 381 421.991210938 401 429.561523438 440 c 2
 430.721679688 446 l 2
 432.471679688 455 437.251953125 459 446.251953125 459 c 2
 462.251953125 459 l 2
 471.251953125 459 474.461914062 455 472.711914062 446 c 2
 436.751953125 261 l 2
 435.001953125 252 430.2421875 248 421.2421875 248 c 2
 405.2421875 248 l 2
 396.2421875 248 393.01171875 252 394.76171875 261 c 2
 395.741210938 266 l 2x7080
 403.500976562 306 382.201171875 325 333.201171875 325 c 2
 237.701171875 325 l 1
 200.970703125 136 l 2
 190.470703125 82 210.640625 52 249.640625 52 c 2
 316.140625 52 l 2
 445.140625 52 496.870117188 81.5 571.259765625 189 c 2
 575.419921875 195 l 2
 579.6796875 201.5 587.759765625 204.5 594.879882812 200 c 2
 613.629882812 188.5 l 2x72
334.325195312 852.650390625 m 0x7140
 350.6953125 849.48046875 362.805664062 840.76953125 375.99609375 821.209960938 c 0
 389.186523438 801.66015625 392.946289062 788.180664062 389.755859375 771.810546875 c 0
 386.5859375 755.430664062 376.8359375 743.520507812 358.486328125 731.150390625 c 0
 338.936523438 717.959960938 324.436523438 714.41015625 308.06640625 717.580078125 c 0
 292.706054688 720.5703125 281.625976562 729.08984375 267.416015625 748.849609375 c 0
 254.026367188 767.379882812 250.4765625 781.879882812 253.65625 798.25 c 0
 256.826171875 814.629882812 265.345703125 825.709960938 284.916015625 838.900390625 c 0
 304.475585938 852.090820312 318.975585938 855.640625 334.325195312 852.650390625 c 0x7140
539.3359375 852.659179688 m 0
 555.706054688 849.489257812 567.8046875 840.779296875 580.995117188 821.219726562 c 0
 594.185546875 801.669921875 597.9453125 788.189453125 594.754882812 771.819335938 c 0
 591.584960938 755.439453125 581.834960938 743.529296875 563.485351562 731.159179688 c 0
 543.935546875 717.96875 529.435546875 714.418945312 513.065429688 717.588867188 c 0
 497.705078125 720.579101562 486.625 729.098632812 472.415039062 748.858398438 c 0
 459.025390625 767.388671875 455.475585938 781.888671875 458.666015625 798.258789062 c 0
 461.8359375 814.638671875 470.356445312 825.71875 489.926757812 838.909179688 c 0
 509.486328125 852.099609375 523.986328125 855.649414062 539.3359375 852.659179688 c 0
EndSplineSet
Substitution2: "'c2sc' Capitals to Small Capitals in Latin lookup 11 subtable" Edieresis.sc
AlternateSubs2: "'aalt' Access All Alternates in Latin lookup 0 subtable" Edieresis.sc
Position2: "'cpsp' Capital Spacing in Latin lookup 0 subtable" dx=5 dy=0 dh=10 dv=0
EndChar

StartChar: Edotaccent
Encoding: 278 278 62
Width: 644
GlyphClass: 2
Flags: MW
HStem: 0 43<-6.44531 7.4043 6.4043 7.4043 7.4043 28.9043 6.4043 459.055> 0 52<249.641 316.141 316.141 380.641> 325 56<248.602 333.201 237.701 344.102> 608 52<292.722 453.222 292.722 292.722> 616 44<126.313 139.774> 651 20G<576.933 580.433>
VStem: -14 649 356.19 136.15 430.1 42.59
AnchorPoint: "Anchor-6" 469 0 basechar 0
AnchorPoint: "Anchor-5" 433 845 basechar 0
AnchorPoint: "Anchor-4" 277 0 basechar 0
LayerCount: 2
Fore
SplineSet
613.629882812 188.5 m 2x72
 621.759765625 184 620.815429688 179 615.075195312 170 c 2
 498.254882812 -4 l 2
 494.594726562 -10 490.705078125 -12 486.705078125 -12 c 0
 483.705078125 -12 481.294921875 -11.5 479.294921875 -9 c 2
 476.264648438 -4 l 2
 473.444335938 -0.5 470.0546875 0 459.0546875 0 c 2
 -1.9453125 0 l 2
 -10.9453125 0 -15.1552734375 4 -13.4052734375 13 c 2x72
 -10.10546875 30 l 2
 -8.5556640625 38 -1.5859375 43 6.404296875 43 c 2
 7.404296875 43 l 2
 50.404296875 43 76.654296875 70 87.5244140625 126 c 2
 166.64453125 533 l 2
 177.32421875 588 161.774414062 616 117.774414062 616 c 0
 109.774414062 616 104.944335938 622 106.494140625 630 c 2xaa
 109.59375 646 l 2
 111.34375 655 117.313476562 660 126.313476562 660 c 2
 546.313476562 660 l 2x72
 555.313476562 660 559.403320312 660.5 564.073242188 664 c 2
 570.04296875 669 l 2
 572.432617188 671 575.432617188 671 578.432617188 671 c 0
 582.432617188 671 586.032226562 669 588.051757812 664 c 2x66
 633.921875 545 l 2
 635.33203125 542 635.751953125 539 635.362304688 537 c 0
 634.392578125 532 630.72265625 528.5 626.2421875 526 c 2
 598.532226562 512 l 2
 592.952148438 509 590.772460938 508 587.772460938 508 c 0
 583.772460938 508 581.352539062 511 579.322265625 516 c 2
 577.301757812 521 l 2
 549.83203125 588 521.221679688 608 453.221679688 608 c 2
 292.721679688 608 l 1
 248.6015625 381 l 1
 344.1015625 381 l 2
 392.1015625 381 421.991210938 401 429.561523438 440 c 2
 430.721679688 446 l 2
 432.471679688 455 437.251953125 459 446.251953125 459 c 2
 462.251953125 459 l 2
 471.251953125 459 474.461914062 455 472.711914062 446 c 2
 436.751953125 261 l 2
 435.001953125 252 430.2421875 248 421.2421875 248 c 2
 405.2421875 248 l 2
 396.2421875 248 393.01171875 252 394.76171875 261 c 2
 395.741210938 266 l 2x7080
 403.500976562 306 382.201171875 325 333.201171875 325 c 2
 237.701171875 325 l 1
 200.970703125 136 l 2
 190.470703125 82 210.640625 52 249.640625 52 c 2
 316.140625 52 l 2
 445.140625 52 496.870117188 81.5 571.259765625 189 c 2
 575.419921875 195 l 2
 579.6796875 201.5 587.759765625 204.5 594.879882812 200 c 2
 613.629882812 188.5 l 2x72
436.915039062 852.650390625 m 0x71
 453.294921875 849.48046875 465.373046875 840.76953125 478.563476562 821.209960938 c 0
 491.75390625 801.66015625 495.50390625 788.180664062 492.333984375 771.810546875 c 0
 489.154296875 755.430664062 479.404296875 743.520507812 461.07421875 731.150390625 c 0
 441.524414062 717.959960938 427.024414062 714.41015625 410.64453125 717.580078125 c 0
 395.294921875 720.5703125 384.21484375 729.08984375 370.004882812 748.849609375 c 0
 356.615234375 767.379882812 353.065429688 781.879882812 356.245117188 798.25 c 0
 359.415039062 814.629882812 367.9453125 825.709960938 387.515625 838.900390625 c 0
 407.065429688 852.090820312 421.565429688 855.640625 436.915039062 852.650390625 c 0x71
EndSplineSet
Substitution2: "'c2sc' Capitals to Small Capitals in Latin lookup 11 subtable" Edotaccent.sc
AlternateSubs2: "'aalt' Access All Alternates in Latin lookup 0 subtable" Edotaccent.sc
Position2: "'cpsp' Capital Spacing in Latin lookup 0 subtable" dx=5 dy=0 dh=10 dv=0
EndChar

StartChar: uni1EB8
Encoding: 7864 7864 63
Width: 644
GlyphClass: 2
Flags: MW
HStem: 0 43<-6.44531 7.4043 6.4043 7.4043 7.4043 28.9043 6.4043 459.055> 0 52<249.641 316.141 316.141 380.641> 325 56<248.602 333.201 237.701 344.102> 608 52<292.722 453.222 292.722 292.722> 616 44<126.313 139.774> 651 20G<576.933 580.433>
VStem: -14 649 190.02 136.15 430.1 42.59
AnchorPoint: "Anchor-6" 469 0 basechar 0
AnchorPoint: "Anchor-5" 397 660 basechar 0
AnchorPoint: "Anchor-4" 277 0 basechar 0
LayerCount: 2
Fore
SplineSet
613.629882812 188.5 m 2x72
 621.759765625 184 620.815429688 179 615.075195312 170 c 2
 498.254882812 -4 l 2
 494.594726562 -10 490.705078125 -12 486.705078125 -12 c 0
 483.705078125 -12 481.294921875 -11.5 479.294921875 -9 c 2
 476.264648438 -4 l 2
 473.444335938 -0.5 470.0546875 0 459.0546875 0 c 2
 -1.9453125 0 l 2
 -10.9453125 0 -15.1552734375 4 -13.4052734375 13 c 2x72
 -10.10546875 30 l 2
 -8.5556640625 38 -1.5859375 43 6.404296875 43 c 2
 7.404296875 43 l 2
 50.404296875 43 76.654296875 70 87.5244140625 126 c 2
 166.64453125 533 l 2
 177.32421875 588 161.774414062 616 117.774414062 616 c 0
 109.774414062 616 104.944335938 622 106.494140625 630 c 2xaa
 109.59375 646 l 2
 111.34375 655 117.313476562 660 126.313476562 660 c 2
 546.313476562 660 l 2x72
 555.313476562 660 559.403320312 660.5 564.073242188 664 c 2
 570.04296875 669 l 2
 572.432617188 671 575.432617188 671 578.432617188 671 c 0
 582.432617188 671 586.032226562 669 588.051757812 664 c 2x66
 633.921875 545 l 2
 635.33203125 542 635.751953125 539 635.362304688 537 c 0
 634.392578125 532 630.72265625 528.5 626.2421875 526 c 2
 598.532226562 512 l 2
 592.952148438 509 590.772460938 508 587.772460938 508 c 0
 583.772460938 508 581.352539062 511 579.322265625 516 c 2
 577.301757812 521 l 2
 549.83203125 588 521.221679688 608 453.221679688 608 c 2
 292.721679688 608 l 1
 248.6015625 381 l 1
 344.1015625 381 l 2
 392.1015625 381 421.991210938 401 429.561523438 440 c 2
 430.721679688 446 l 2
 432.471679688 455 437.251953125 459 446.251953125 459 c 2
 462.251953125 459 l 2
 471.251953125 459 474.461914062 455 472.711914062 446 c 2
 436.751953125 261 l 2
 435.001953125 252 430.2421875 248 421.2421875 248 c 2
 405.2421875 248 l 2
 396.2421875 248 393.01171875 252 394.76171875 261 c 2
 395.741210938 266 l 2x7080
 403.500976562 306 382.201171875 325 333.201171875 325 c 2
 237.701171875 325 l 1
 200.970703125 136 l 2
 190.470703125 82 210.640625 52 249.640625 52 c 2
 316.140625 52 l 2
 445.140625 52 496.870117188 81.5 571.259765625 189 c 2
 575.419921875 195 l 2
 579.6796875 201.5 587.759765625 204.5 594.879882812 200 c 2
 613.629882812 188.5 l 2x72
270.754882812 -53.98046875 m 0x71
 287.125 -57.1708984375 299.224609375 -65.890625 312.415039062 -85.4501953125 c 0
 325.60546875 -105 329.365234375 -118.48046875 326.174804688 -134.850585938 c 0
 323.004882812 -151.23046875 313.245117188 -163.140625 294.915039062 -175.510742188 c 0
 275.365234375 -188.701171875 260.865234375 -192.250976562 244.495117188 -189.060546875 c 0
 229.145507812 -186.080078125 218.065429688 -177.560546875 203.845703125 -157.80078125 c 0
 190.456054688 -139.270507812 186.916015625 -124.760742188 190.0859375 -108.390625 c 0
 193.255859375 -92.0205078125 201.775390625 -80.9306640625 221.345703125 -67.740234375 c 0
 240.905273438 -54.5498046875 255.405273438 -51 270.754882812 -53.98046875 c 0x71
EndSplineSet
Substitution2: "'c2sc' Capitals to Small Capitals in Latin lookup 11 subtable" uni1EB8.sc
AlternateSubs2: "'aalt' Access All Alternates in Latin lookup 0 subtable" uni1EB8.sc
Position2: "'cpsp' Capital Spacing in Latin lookup 0 subtable" dx=5 dy=0 dh=10 dv=0
EndChar

StartChar: Egrave
Encoding: 200 200 64
Width: 644
GlyphClass: 2
Flags: MW
HStem: 0 43<-6.44531 7.4043 6.4043 7.4043 7.4043 28.9043 6.4043 459.055> 0 52<249.641 316.141 316.141 380.641> 325 56<248.602 333.201 237.701 344.102> 608 52<292.722 453.222 292.722 292.722> 616 44<126.313 139.774> 651 20G<576.933 580.433>
VStem: -14 649 430.1 42.59
AnchorPoint: "Anchor-6" 469 0 basechar 0
AnchorPoint: "Anchor-5" 419 899 basechar 0
AnchorPoint: "Anchor-4" 277 0 basechar 0
LayerCount: 2
Fore
SplineSet
613.629882812 188.5 m 2x72
 621.759765625 184 620.815429688 179 615.075195312 170 c 2
 498.254882812 -4 l 2
 494.594726562 -10 490.705078125 -12 486.705078125 -12 c 0
 483.705078125 -12 481.294921875 -11.5 479.294921875 -9 c 2
 476.264648438 -4 l 2
 473.444335938 -0.5 470.0546875 0 459.0546875 0 c 2
 -1.9453125 0 l 2
 -10.9453125 0 -15.1552734375 4 -13.4052734375 13 c 2x72
 -10.10546875 30 l 2
 -8.5556640625 38 -1.5859375 43 6.404296875 43 c 2
 7.404296875 43 l 2
 50.404296875 43 76.654296875 70 87.5244140625 126 c 2
 166.64453125 533 l 2
 177.32421875 588 161.774414062 616 117.774414062 616 c 0
 109.774414062 616 104.944335938 622 106.494140625 630 c 2xaa
 109.59375 646 l 2
 111.34375 655 117.313476562 660 126.313476562 660 c 2
 546.313476562 660 l 2x72
 555.313476562 660 559.403320312 660.5 564.073242188 664 c 2
 570.04296875 669 l 2
 572.432617188 671 575.432617188 671 578.432617188 671 c 0
 582.432617188 671 586.032226562 669 588.051757812 664 c 2x66
 633.921875 545 l 2
 635.33203125 542 635.751953125 539 635.362304688 537 c 0
 634.392578125 532 630.72265625 528.5 626.2421875 526 c 2
 598.532226562 512 l 2
 592.952148438 509 590.772460938 508 587.772460938 508 c 0
 583.772460938 508 581.352539062 511 579.322265625 516 c 2
 577.301757812 521 l 2
 549.83203125 588 521.221679688 608 453.221679688 608 c 2
 292.721679688 608 l 1
 248.6015625 381 l 1
 344.1015625 381 l 2
 392.1015625 381 421.991210938 401 429.561523438 440 c 2
 430.721679688 446 l 2
 432.471679688 455 437.251953125 459 446.251953125 459 c 2
 462.251953125 459 l 2
 471.251953125 459 474.461914062 455 472.711914062 446 c 2
 436.751953125 261 l 2
 435.001953125 252 430.2421875 248 421.2421875 248 c 2
 405.2421875 248 l 2
 396.2421875 248 393.01171875 252 394.76171875 261 c 2
 395.741210938 266 l 2x71
 403.500976562 306 382.201171875 325 333.201171875 325 c 2
 237.701171875 325 l 1
 200.970703125 136 l 2
 190.470703125 82 210.640625 52 249.640625 52 c 2
 316.140625 52 l 2
 445.140625 52 496.870117188 81.5 571.259765625 189 c 2
 575.419921875 195 l 2
 579.6796875 201.5 587.759765625 204.5 594.879882812 200 c 2
 613.629882812 188.5 l 2x72
446.254882812 718.559570312 m 2
 441.995117188 716.229492188 438.375976562 714.608398438 435.345703125 714.448242188 c 0
 431.655273438 714.30859375 427.155273438 716.21875 422.745117188 718.21875 c 0
 366.395507812 745.5390625 288.275390625 786.069335938 277.045898438 843.849609375 c 0
 271.765625 870.989257812 288.155273438 885.189453125 318.504882812 885.189453125 c 0
 329.875 885.189453125 342.4453125 883.209960938 349.155273438 872.879882812 c 0
 381.754882812 820.379882812 399.71484375 795.689453125 465.764648438 729.08984375 c 1
 446.254882812 718.559570312 l 2
EndSplineSet
Substitution2: "'c2sc' Capitals to Small Capitals in Latin lookup 11 subtable" Egrave.sc
AlternateSubs2: "'aalt' Access All Alternates in Latin lookup 0 subtable" Egrave.sc
Position2: "'cpsp' Capital Spacing in Latin lookup 0 subtable" dx=5 dy=0 dh=10 dv=0
EndChar

StartChar: uni1EBA
Encoding: 7866 7866 65
Width: 644
GlyphClass: 2
Flags: MW
HStem: 0 43<-6.44531 7.4043 6.4043 7.4043 7.4043 28.9043 6.4043 459.055> 0 52<249.641 316.141 316.141 380.641> 325 56<248.602 333.201 237.701 344.102> 608 52<292.722 453.222 292.722 292.722> 616 44<126.313 139.774> 651 20G<576.933 580.433> 811 81.5 824.23 68.27
VStem: 360.49 135.85 430.1 42.59 433.09 63.25
AnchorPoint: "Anchor-6" 469 0 basechar 0
AnchorPoint: "Anchor-5" 453 946 basechar 0
AnchorPoint: "Anchor-4" 277 0 basechar 0
LayerCount: 2
Fore
SplineSet
613.629882812 188.5 m 2x7020
 621.759765625 184 620.815429688 179 615.075195312 170 c 2
 498.254882812 -4 l 2
 494.594726562 -10 490.705078125 -12 486.705078125 -12 c 0
 483.705078125 -12 481.294921875 -11.5 479.294921875 -9 c 2
 476.264648438 -4 l 2
 473.444335938 -0.5 470.0546875 0 459.0546875 0 c 2
 -1.9453125 0 l 2
 -10.9453125 0 -15.1552734375 4 -13.4052734375 13 c 2x7020
 -10.10546875 30 l 2
 -8.5556640625 38 -1.5859375 43 6.404296875 43 c 2
 7.404296875 43 l 2
 50.404296875 43 76.654296875 70 87.5244140625 126 c 2
 166.64453125 533 l 2
 177.32421875 588 161.774414062 616 117.774414062 616 c 0
 109.774414062 616 104.944335938 622 106.494140625 630 c 2xa820
 109.59375 646 l 2
 111.34375 655 117.313476562 660 126.313476562 660 c 2
 546.313476562 660 l 2x7020
 555.313476562 660 559.403320312 660.5 564.073242188 664 c 2
 570.04296875 669 l 2
 572.432617188 671 575.432617188 671 578.432617188 671 c 0
 582.432617188 671 586.032226562 669 588.051757812 664 c 2x6420
 633.921875 545 l 2
 635.33203125 542 635.751953125 539 635.362304688 537 c 0
 634.392578125 532 630.72265625 528.5 626.2421875 526 c 2
 598.532226562 512 l 2
 592.952148438 509 590.772460938 508 587.772460938 508 c 0
 583.772460938 508 581.352539062 511 579.322265625 516 c 2
 577.301757812 521 l 2
 549.83203125 588 521.221679688 608 453.221679688 608 c 2
 292.721679688 608 l 1
 248.6015625 381 l 1
 344.1015625 381 l 2
 392.1015625 381 421.991210938 401 429.561523438 440 c 2
 430.721679688 446 l 2
 432.471679688 455 437.251953125 459 446.251953125 459 c 2
 462.251953125 459 l 2
 471.251953125 459 474.461914062 455 472.711914062 446 c 2
 436.751953125 261 l 2
 435.001953125 252 430.2421875 248 421.2421875 248 c 2
 405.2421875 248 l 2
 396.2421875 248 393.01171875 252 394.76171875 261 c 2
 395.741210938 266 l 2x7040
 403.500976562 306 382.201171875 325 333.201171875 325 c 2
 237.701171875 325 l 1
 200.970703125 136 l 2
 190.470703125 82 210.640625 52 249.640625 52 c 2
 316.140625 52 l 2
 445.140625 52 496.870117188 81.5 571.259765625 189 c 2
 575.419921875 195 l 2
 579.6796875 201.5 587.759765625 204.5 594.879882812 200 c 2
 613.629882812 188.5 l 2x7020
440.165039062 717.919921875 m 1
 440.114257812 717.938476562 l 1x7020
 427.833984375 705.138671875 391.143554688 728.888671875 400.963867188 739.869140625 c 0
 414.654296875 755.69921875 428.814453125 769.859375 433.07421875 791.76953125 c 0
 438.114257812 817.709960938 425.114257812 824.209960938 411.364257812 824.209960938 c 0x7120
 390.744140625 824.209960938 372.043945312 804.110351562 367.923828125 814.05078125 c 0x7180
 362.00390625 828.48046875 356.18359375 842.700195312 360.50390625 859.620117188 c 0x7280
 363.25390625 871.330078125 404.00390625 892.469726562 436.50390625 892.469726562 c 0
 493.353515625 892.469726562 503.333984375 847.959960938 496.354492188 811.979492188 c 0x7220
 490.474609375 781.759765625 470.134765625 748.639648438 440.165039062 717.919921875 c 1
EndSplineSet
Substitution2: "'c2sc' Capitals to Small Capitals in Latin lookup 11 subtable" uni1EBA.sc
AlternateSubs2: "'aalt' Access All Alternates in Latin lookup 0 subtable" uni1EBA.sc
Position2: "'cpsp' Capital Spacing in Latin lookup 0 subtable" dx=5 dy=0 dh=10 dv=0
EndChar

StartChar: uni0206
Encoding: 518 518 66
Width: 644
GlyphClass: 2
Flags: MW
HStem: 0 43<-6.44531 7.4043 6.4043 7.4043 7.4043 28.9043 6.4043 459.055> 0 52<249.641 316.141 316.141 380.641> 325 56<248.602 333.201 237.701 344.102> 608 52<292.722 453.222 292.722 292.722> 616 44<126.313 139.774> 651 20G<576.933 580.433> 816.76 56.24
VStem: -14 649 430.1 42.59
AnchorPoint: "Anchor-6" 469 0 basechar 0
AnchorPoint: "Anchor-5" 444 899 basechar 0
AnchorPoint: "Anchor-4" 277 0 basechar 0
LayerCount: 2
Fore
SplineSet
613.629882812 188.5 m 2x73
 621.759765625 184 620.815429688 179 615.075195312 170 c 2
 498.254882812 -4 l 2
 494.594726562 -10 490.705078125 -12 486.705078125 -12 c 0
 483.705078125 -12 481.294921875 -11.5 479.294921875 -9 c 2
 476.264648438 -4 l 2
 473.444335938 -0.5 470.0546875 0 459.0546875 0 c 2
 -1.9453125 0 l 2
 -10.9453125 0 -15.1552734375 4 -13.4052734375 13 c 2x73
 -10.10546875 30 l 2
 -8.5556640625 38 -1.5859375 43 6.404296875 43 c 2
 7.404296875 43 l 2
 50.404296875 43 76.654296875 70 87.5244140625 126 c 2
 166.64453125 533 l 2
 177.32421875 588 161.774414062 616 117.774414062 616 c 0
 109.774414062 616 104.944335938 622 106.494140625 630 c 2xab
 109.59375 646 l 2
 111.34375 655 117.313476562 660 126.313476562 660 c 2
 546.313476562 660 l 2x73
 555.313476562 660 559.403320312 660.5 564.073242188 664 c 2
 570.04296875 669 l 2
 572.432617188 671 575.432617188 671 578.432617188 671 c 0
 582.432617188 671 586.032226562 669 588.051757812 664 c 2x67
 633.921875 545 l 2
 635.33203125 542 635.751953125 539 635.362304688 537 c 0
 634.392578125 532 630.72265625 528.5 626.2421875 526 c 2
 598.532226562 512 l 2
 592.952148438 509 590.772460938 508 587.772460938 508 c 0
 583.772460938 508 581.352539062 511 579.322265625 516 c 2
 577.301757812 521 l 2
 549.83203125 588 521.221679688 608 453.221679688 608 c 2
 292.721679688 608 l 1
 248.6015625 381 l 1
 344.1015625 381 l 2
 392.1015625 381 421.991210938 401 429.561523438 440 c 2
 430.721679688 446 l 2
 432.471679688 455 437.251953125 459 446.251953125 459 c 2
 462.251953125 459 l 2
 471.251953125 459 474.461914062 455 472.711914062 446 c 2
 436.751953125 261 l 2
 435.001953125 252 430.2421875 248 421.2421875 248 c 2
 405.2421875 248 l 2
 396.2421875 248 393.01171875 252 394.76171875 261 c 2
 395.741210938 266 l 2x7280
 403.500976562 306 382.201171875 325 333.201171875 325 c 2
 237.701171875 325 l 1
 200.970703125 136 l 2
 190.470703125 82 210.640625 52 249.640625 52 c 2
 316.140625 52 l 2
 445.140625 52 496.870117188 81.5 571.259765625 189 c 2
 575.419921875 195 l 2
 579.6796875 201.5 587.759765625 204.5 594.879882812 200 c 2
 613.629882812 188.5 l 2x73
440.724609375 873 m 1
 440.654296875 873 l 1
 531.654296875 873 560.774414062 801.150390625 553.224609375 762.260742188 c 0
 551.284179688 752.260742188 544.713867188 748.360351562 535.32421875 747.270507812 c 0
 524.57421875 746.030273438 504.494140625 743.8203125 496.494140625 743.490234375 c 0
 485.814453125 742.830078125 482.14453125 746.400390625 483.625 758.05078125 c 0
 486.025390625 794.78125 469.17578125 816.78125 429.765625 816.78125 c 0
 390.875976562 816.78125 365.475585938 794.78125 353.5859375 758.05078125 c 0
 350.045898438 746.400390625 345.475585938 742.830078125 335.055664062 743.490234375 c 0
 326.685546875 743.8203125 307.975585938 746.030273438 297.1953125 747.270507812 c 0
 288.235351562 748.360351562 283.185546875 752.260742188 285.115234375 762.260742188 c 0
 292.674804688 801.150390625 350.224609375 873 440.724609375 873 c 1
EndSplineSet
Substitution2: "'c2sc' Capitals to Small Capitals in Latin lookup 11 subtable" uni0206.sc
AlternateSubs2: "'aalt' Access All Alternates in Latin lookup 0 subtable" uni0206.sc
Position2: "'cpsp' Capital Spacing in Latin lookup 0 subtable" dx=5 dy=0 dh=10 dv=0
EndChar

